<svg xmlns="http://www.w3.org/2000/svg" viewBox="0 0 522.97 483.98"><defs><style>.cls-1{fill:#fff;}.cls-2{fill:#ebebeb;}.cls-3{fill:#455a64;}.cls-4{fill:#37474f;}.cls-5{fill:#263238;}.cls-6{fill:none;}.cls-7{fill:#c7c7c7;}.cls-8{fill:#a6a6a6;}.cls-9{fill:#ffc727;}.cls-10{fill:#eb9481;}.cls-11{opacity:0.1;}.cls-12{fill:#ff9cbd;}</style></defs><title>Ativo 3</title><g id="Camada_2" data-name="Camada 2"><g id="Device"><rect class="cls-1" x="211.82" y="290" width="5.78" height="6.62"/><rect class="cls-1" x="221.84" y="290" width="5.78" height="6.62"/><rect class="cls-1" x="231.86" y="290" width="5.78" height="6.62"/><rect class="cls-1" x="211.82" y="299.96" width="5.78" height="6.62"/><rect class="cls-1" x="221.84" y="299.96" width="5.78" height="6.62"/><rect class="cls-1" x="231.86" y="299.96" width="5.78" height="6.62"/><rect class="cls-1" x="211.82" y="309.92" width="5.78" height="6.62"/><rect class="cls-1" x="221.84" y="309.92" width="5.78" height="6.62"/><rect class="cls-1" x="231.86" y="309.92" width="5.78" height="6.62"/><rect class="cls-1" x="211.82" y="319.88" width="5.78" height="6.62"/><rect class="cls-1" x="221.84" y="319.88" width="5.78" height="6.62"/><rect class="cls-1" x="231.86" y="319.88" width="5.78" height="6.62"/><rect class="cls-1" x="211.82" y="330.08" width="5.78" height="6.62"/><rect class="cls-1" x="221.84" y="330.08" width="5.78" height="6.62"/><rect class="cls-1" x="231.86" y="330.08" width="5.78" height="6.62"/><rect class="cls-1" x="211.82" y="340.29" width="5.78" height="6.62"/><rect class="cls-1" x="221.84" y="340.29" width="5.78" height="6.62"/><rect class="cls-1" x="231.86" y="340.29" width="5.78" height="6.62"/><rect class="cls-1" x="211.82" y="350.49" width="5.78" height="6.62"/><rect class="cls-1" x="221.84" y="350.49" width="5.78" height="6.62"/><rect class="cls-1" x="231.86" y="350.49" width="5.78" height="6.62"/><rect class="cls-1" x="211.82" y="360.7" width="5.78" height="6.62"/><rect class="cls-1" x="221.84" y="360.7" width="5.78" height="6.62"/><rect class="cls-1" x="231.86" y="360.7" width="5.78" height="6.62"/><rect class="cls-1" x="55.38" y="361.42" width="33.28" height="4.96"/><rect class="cls-1" x="172.67" y="278.36" width="10.28" height="4.79"/><rect class="cls-1" x="172.67" y="287.66" width="10.28" height="4.79"/><rect class="cls-1" x="172.67" y="296.95" width="10.28" height="4.79"/><rect class="cls-1" x="172.67" y="306.25" width="10.28" height="4.79"/><rect class="cls-1" x="172.67" y="315.55" width="10.28" height="4.79"/><rect class="cls-1" x="172.67" y="324.84" width="10.28" height="4.79"/><rect class="cls-1" x="172.67" y="334.14" width="10.28" height="4.79"/><rect class="cls-1" x="172.67" y="343.44" width="10.28" height="4.79"/><rect class="cls-1" x="186.65" y="278.36" width="10.28" height="4.79"/><rect class="cls-1" x="186.65" y="287.66" width="10.28" height="4.79"/><rect class="cls-1" x="186.65" y="296.95" width="10.28" height="4.79"/><rect class="cls-1" x="186.65" y="306.25" width="10.28" height="4.79"/><rect class="cls-1" x="186.65" y="315.55" width="10.28" height="4.79"/><rect class="cls-1" x="186.65" y="324.84" width="10.28" height="4.79"/><rect class="cls-1" x="186.65" y="334.14" width="10.28" height="4.79"/><rect class="cls-1" x="186.65" y="343.44" width="10.28" height="4.79"/><rect class="cls-1" x="105.37" y="184.34" width="10.71" height="7.56"/><rect class="cls-1" x="121.33" y="184.34" width="10.71" height="7.56"/><rect class="cls-1" x="105.37" y="195.44" width="10.71" height="7.56"/><rect class="cls-1" x="121.33" y="195.44" width="10.71" height="7.56"/><rect class="cls-1" x="105.37" y="206.54" width="10.71" height="7.56"/><rect class="cls-1" x="121.33" y="206.54" width="10.71" height="7.56"/><rect class="cls-1" x="105.37" y="217.64" width="10.71" height="7.56"/><rect class="cls-1" x="121.33" y="217.64" width="10.71" height="7.56"/><rect class="cls-1" x="105.37" y="228.74" width="10.71" height="7.56"/><rect class="cls-1" x="121.33" y="228.74" width="10.71" height="7.56"/><rect class="cls-1" x="105.37" y="239.84" width="10.71" height="7.56"/><rect class="cls-1" x="121.33" y="239.84" width="10.71" height="7.56"/><rect class="cls-1" x="105.37" y="250.94" width="10.71" height="7.56"/><rect class="cls-1" x="121.33" y="250.94" width="10.71" height="7.56"/><rect class="cls-1" x="105.37" y="262.04" width="10.71" height="7.56"/><rect class="cls-1" x="121.33" y="262.04" width="10.71" height="7.56"/><rect class="cls-1" x="141.12" y="266.07" width="10.71" height="7.56"/><rect class="cls-1" x="141.12" y="277.17" width="10.71" height="7.56"/><rect class="cls-1" x="141.12" y="288.27" width="10.71" height="7.56"/><rect class="cls-1" x="141.12" y="299.37" width="10.71" height="7.56"/><rect class="cls-1" x="141.12" y="310.47" width="10.71" height="7.56"/><rect class="cls-1" x="141.12" y="321.57" width="10.71" height="7.56"/><rect class="cls-1" x="105.37" y="273.01" width="10.71" height="7.56"/><rect class="cls-1" x="121.33" y="273.01" width="10.71" height="7.56"/><rect class="cls-1" x="141.12" y="332.54" width="10.71" height="7.56"/><rect class="cls-1" x="105.37" y="283.98" width="10.71" height="7.56"/><rect class="cls-1" x="121.33" y="283.98" width="10.71" height="7.56"/><rect class="cls-1" x="141.12" y="343.5" width="10.71" height="7.56"/><rect class="cls-1" x="105.37" y="294.95" width="10.71" height="7.56"/><rect class="cls-1" x="121.33" y="294.95" width="10.71" height="7.56"/><rect class="cls-1" x="141.12" y="354.47" width="10.71" height="7.56"/><rect class="cls-1" x="105.37" y="305.91" width="10.71" height="7.56"/><rect class="cls-1" x="121.33" y="305.91" width="10.71" height="7.56"/><rect class="cls-1" x="105.37" y="316.88" width="10.71" height="7.56"/><rect class="cls-1" x="121.33" y="316.88" width="10.71" height="7.56"/><rect class="cls-1" x="242.75" y="254.66" width="5.78" height="6.62"/><rect class="cls-1" x="252.77" y="254.66" width="5.78" height="6.62"/><rect class="cls-1" x="242.75" y="264.61" width="5.78" height="6.62"/><rect class="cls-1" x="252.77" y="264.61" width="5.78" height="6.62"/><rect class="cls-1" x="242.75" y="274.57" width="5.78" height="6.62"/><rect class="cls-1" x="252.77" y="274.57" width="5.78" height="6.62"/><rect class="cls-1" x="242.75" y="284.53" width="5.78" height="6.62"/><rect class="cls-1" x="252.77" y="284.53" width="5.78" height="6.62"/><rect class="cls-1" x="242.75" y="294.73" width="5.78" height="6.62"/><rect class="cls-1" x="252.77" y="294.73" width="5.78" height="6.62"/><rect class="cls-1" x="242.75" y="304.94" width="5.78" height="6.62"/><rect class="cls-1" x="252.77" y="304.94" width="5.78" height="6.62"/><rect class="cls-1" x="242.75" y="315.14" width="5.78" height="6.62"/><rect class="cls-1" x="252.77" y="315.14" width="5.78" height="6.62"/><rect class="cls-1" x="242.75" y="325.35" width="5.78" height="6.62"/><rect class="cls-1" x="252.77" y="325.35" width="5.78" height="6.62"/><rect class="cls-1" x="242.75" y="335.66" width="5.78" height="6.62"/><rect class="cls-1" x="252.77" y="335.66" width="5.78" height="6.62"/><rect class="cls-1" x="242.75" y="345.98" width="5.78" height="6.62"/><rect class="cls-1" x="252.77" y="345.98" width="5.78" height="6.62"/><rect class="cls-1" x="242.75" y="356.29" width="5.78" height="6.62"/><rect class="cls-1" x="252.77" y="356.29" width="5.78" height="6.62"/><rect class="cls-1" x="264.18" y="254.66" width="5.78" height="6.62"/><rect class="cls-1" x="274.2" y="254.66" width="5.78" height="6.62"/><rect class="cls-1" x="264.18" y="244.44" width="5.78" height="6.62"/><rect class="cls-1" x="274.2" y="244.44" width="5.78" height="6.62"/><rect class="cls-1" x="264.18" y="234.23" width="5.78" height="6.62"/><rect class="cls-1" x="274.2" y="234.23" width="5.78" height="6.62"/><rect class="cls-1" x="264.18" y="264.61" width="5.78" height="6.62"/><rect class="cls-1" x="274.2" y="264.61" width="5.78" height="6.62"/><rect class="cls-1" x="264.18" y="274.57" width="5.78" height="6.62"/><rect class="cls-1" x="274.2" y="274.57" width="5.78" height="6.62"/><rect class="cls-1" x="264.18" y="284.53" width="5.78" height="6.62"/><rect class="cls-1" x="274.2" y="284.53" width="5.78" height="6.62"/><rect class="cls-1" x="264.18" y="294.73" width="5.78" height="6.62"/><rect class="cls-1" x="274.2" y="294.73" width="5.78" height="6.62"/><rect class="cls-1" x="264.18" y="304.94" width="5.78" height="6.62"/><rect class="cls-1" x="274.2" y="304.94" width="5.78" height="6.62"/><rect class="cls-1" x="264.18" y="315.14" width="5.78" height="6.62"/><rect class="cls-1" x="274.2" y="315.14" width="5.78" height="6.62"/><rect class="cls-1" x="264.18" y="325.35" width="5.78" height="6.62"/><rect class="cls-1" x="274.2" y="325.35" width="5.78" height="6.62"/><rect class="cls-1" x="264.18" y="335.66" width="5.78" height="6.62"/><rect class="cls-1" x="274.2" y="335.66" width="5.78" height="6.62"/><rect class="cls-1" x="264.18" y="345.98" width="5.78" height="6.62"/><rect class="cls-1" x="274.2" y="345.98" width="5.78" height="6.62"/><rect class="cls-1" x="264.18" y="356.29" width="5.78" height="6.62"/><rect class="cls-1" x="274.2" y="356.29" width="5.78" height="6.62"/><path class="cls-2" d="M70.75,125.81,0,125.7s3.52-4.57,7.4-5.14c0,0,7.58-22.44,20.21-22.59C39.35,97.84,44,111.81,44,111.81s5.45-6.25,10.65-3.38S62.8,119.5,62.8,119.5,68.64,122.66,70.75,125.81Z"/><path class="cls-2" d="M324,145.81l89.47.13s0-5.72-12.31-6.85c0,0-11.22-25-28.4-21.68-10.71,2.08-16.2,16.76-16.2,16.76s-8.07-11.57-14.54-9.34-10.33,14.52-10.33,14.52S325,142.57,324,145.81Z"/><path class="cls-2" d="M309.21,210.59l60.84.09s-5.73-5.35-8.28-5.35-10-18-19.49-17.21-14.59,14.1-14.59,14.1S316.13,198.58,309.21,210.59Z"/><path class="cls-2" d="M233.84,74.88l52,.08s-2.59-3.37-5.44-3.8c0,0-5.52-16.52-14.8-16.65-8.64-.13-12.11,10.13-12.11,10.13s-4-4.61-7.82-2.51-6,8.13-6,8.13S235.4,72.56,233.84,74.88Z"/><path class="cls-2" d="M34.52,202.79l52,.08s-2.58-3.37-5.43-3.8c0,0-5.53-16.52-14.81-16.65-8.63-.12-12.11,10.13-12.11,10.13s-4-4.61-7.82-2.51-6,8.13-6,8.13S36.08,200.47,34.52,202.79Z"/><ellipse class="cls-2" cx="204.41" cy="465.45" rx="194.74" ry="18.53"/><path class="cls-3" d="M321.67,374.36s-.84-3.93-2.52-4.53-2.71,1.15-2.71,1.15-.39-3.75-2.78-4.87-4.17,1.18-4.17,1.18-1.83-4.77-5.09-4.77-4.92,7-4.92,7-1.93-2.08-3.9-.9-2,5.77-2,5.77Z"/><path class="cls-4" d="M117.11,374.36H87.56s1-4.17,2.93-4.46a2.88,2.88,0,0,1,2.87,1.64s-.09-5.81,3.57-6.8,6.73,4.14,6.73,4.14,2.3-2.93,5.42-2.74,3.92,5,3.92,5S115.85,369.48,117.11,374.36Z"/><path class="cls-3" d="M129.31,374.36H113.76s0-2.32,1.56-2.93a2.09,2.09,0,0,1,2.44.58s.62-4.25,3.47-4.25,4.22,3.67,4.22,3.67a2.17,2.17,0,0,1,2.22-.9C129.25,370.73,129.31,374.36,129.31,374.36Z"/><path class="cls-5" d="M57.64,374.36a13.46,13.46,0,0,1,0,7.27,13.46,13.46,0,0,1,0-7.27Z"/><path class="cls-5" d="M90.25,374.36a12,12,0,0,1,.5,3.63,11.68,11.68,0,0,1-.5,3.64,12,12,0,0,1-.49-3.64A12.26,12.26,0,0,1,90.25,374.36Z"/><path class="cls-5" d="M122.87,374.36a13.46,13.46,0,0,1,0,7.27,13.46,13.46,0,0,1,0-7.27Z"/><path class="cls-5" d="M155.48,374.36A12,12,0,0,1,156,378a11.68,11.68,0,0,1-.5,3.64A12,12,0,0,1,155,378,12.26,12.26,0,0,1,155.48,374.36Z"/><path class="cls-5" d="M188.1,374.36a13.46,13.46,0,0,1,0,7.27,13.46,13.46,0,0,1,0-7.27Z"/><path class="cls-5" d="M220.71,374.36a12,12,0,0,1,.5,3.63,11.68,11.68,0,0,1-.5,3.64,12,12,0,0,1-.49-3.64A12.26,12.26,0,0,1,220.71,374.36Z"/><path class="cls-5" d="M253.33,374.36a13.46,13.46,0,0,1,0,7.27,13.46,13.46,0,0,1,0-7.27Z"/><path class="cls-5" d="M285.94,374.36a12,12,0,0,1,.5,3.63,11.68,11.68,0,0,1-.5,3.64,12,12,0,0,1-.49-3.64A12.26,12.26,0,0,1,285.94,374.36Z"/><path class="cls-5" d="M318.56,374.36a13.46,13.46,0,0,1,0,7.27,13.46,13.46,0,0,1,0-7.27Z"/><line class="cls-6" x1="316.3" y1="142.59" x2="316.87" y2="142.59"/><rect class="cls-5" x="81.88" y="94.13" width="245.05" height="366.46" rx="10.21"/><rect class="cls-3" x="202.42" y="82.55" width="3.81" height="53.36" rx="1.25" transform="translate(313.56 -95.09) rotate(90)"/><path class="cls-3" d="M204.33,455.14a6.9,6.9,0,1,1,6.9-6.9A6.89,6.89,0,0,1,204.33,455.14Z"/><rect class="cls-2" x="92.35" y="120" width="224.23" height="315.42"/><rect class="cls-7" x="195.75" y="120.01" width="87.02" height="5.49"/><path class="cls-8" d="M184.83,166.61v53.84H123.71v14.72H92.36v3.74h31.35v55.64L135,320.28H96.07V435.43h7.48V409.9h31.2v-3.73h-31.2V327.76h34.68L147,347.89a26.63,26.63,0,0,0,8.46,51h0l18.29,29.89-6.67,6.67h10.58l.11-.11.07.11h8.77l-22.78-37.19a26.71,26.71,0,0,0,20.42-25.91,26.31,26.31,0,0,0-1.74-9.46L234.8,338h51.67v63.16l-34.23,34.24h5.29l28.94-28.95v28.95H294V338h22.64v-7.48H258l-43.81-47.62H316.59v-3.74H210.73l-47.15-51.26h76.25l25.76-27.32,51,51V241l-45.86-45.86,23.93-25.38V120h-7.48v46.82L236.6,220.45H217.15v-37h7.73v-3.74H213.41v40.77h-21.1V120h-7.48v39.12H92.36v7.48ZM157.66,353.16a19.17,19.17,0,1,1-19.17,19.17A19.19,19.19,0,0,1,157.66,353.16ZM131.19,293v-65h22.22l94.4,102.62h-14.7L179,356.31a26.65,26.65,0,0,0-21.29-10.63,28.22,28.22,0,0,0-3.33.21Z"/><rect class="cls-7" x="137.6" y="233.6" width="10.87" height="10.87"/><polygon class="cls-7" points="250.6 275.3 250.6 254.3 242.96 254.3 242.96 245.52 229.51 245.52 229.51 275.3 250.6 275.3"/><polygon class="cls-7" points="195.75 128.93 195.75 141.15 201.91 141.15 201.91 154.01 213.3 154.01 213.3 128.93 195.75 128.93"/><rect class="cls-7" x="269.39" y="128.92" width="13.38" height="18.32"/><polygon class="cls-7" points="220.1 217.27 220.1 201.66 249.35 201.66 233.55 217.47 220.1 217.27"/><rect class="cls-7" x="195.75" y="202.77" width="14.7" height="14.7"/><rect class="cls-7" x="92.42" y="206.8" width="11.75" height="24.44"/><rect class="cls-7" x="107.34" y="219.99" width="13.28" height="11.25"/><rect class="cls-7" x="163.61" y="169.54" width="17.71" height="16.28"/><polygon class="cls-7" points="181.32 189.02 181.32 217.47 159.66 217.47 145.85 203.66 145.85 189.02 181.32 189.02"/><polygon class="cls-7" points="141.94 206.8 152.82 217.67 123.79 217.67 123.79 206.8 141.94 206.8"/><polygon class="cls-7" points="135.1 331.13 107.34 331.13 107.34 344.23 140.39 344.23 135.1 331.13"/><rect class="cls-7" x="107.34" y="350.66" width="11.92" height="18.03"/><path class="cls-7" d="M135.31,401v-6.29A40.45,40.45,0,0,1,125.45,373H107.33v28Z"/><path class="cls-7" d="M200.33,340.37,189,315.79H175.09l-23.66,11,6.18,13.51h0a32,32,0,0,1,22.48,9.19Z"/><polygon class="cls-7" points="246.08 309.75 261.1 326.08 290.61 326.08 290.61 309.75 246.08 309.75"/><rect class="cls-7" x="294.52" y="309.75" width="18.66" height="16.33"/><polygon class="cls-7" points="132.16 426.2 132.16 435.43 159.5 435.43 167.1 427.4 151.58 402.05 143.23 409.06 143.23 426.2 132.16 426.2"/><path class="cls-7" d="M219.81,398.59l-22.46-23.41-8.61,6.73a32.5,32.5,0,0,1-15.93,19.18l18.79,30.68Z"/><polygon class="cls-7" points="195.35 364.85 234.79 345.35 254.47 345.35 254.47 379.65 223.8 394.79 195.35 364.85"/><polygon class="cls-7" points="282.29 417.18 282.29 434.13 265.35 434.13 282.29 417.18"/><polygon class="cls-9" points="137.6 249.01 137.6 292.12 149.63 321.54 171.58 310.67 222.76 310.67 165.36 249.01 137.6 249.01"/><polygon class="cls-7" points="262.44 187.36 220.1 187.36 220.1 197.97 252.44 197.97 262.44 187.36"/><rect class="cls-7" x="92.42" y="243.24" width="28.2" height="31.06"/><rect class="cls-7" x="107.34" y="279.3" width="13.28" height="13.28"/><polygon class="cls-7" points="120.61 296.61 99.93 296.61 99.93 316.74 129.3 316.74 120.61 296.61"/><rect class="cls-7" x="92.42" y="279.3" width="11.75" height="4.01"/><rect class="cls-7" x="92.42" y="285.94" width="11.75" height="6.64"/><rect class="cls-7" x="259.92" y="345.35" width="21.63" height="22.43"/><rect class="cls-7" x="259.92" y="371.28" width="21.63" height="7.87"/><polygon class="cls-7" points="196.81 435.43 246.46 435.43 255.2 426.69 224.14 402.05 196.81 435.43"/><polygon class="cls-9" points="257.92 422.98 270.73 410.68 255.19 397.16 255.19 384.99 227.8 398.94 257.92 422.98"/><polygon class="cls-7" points="281.55 399.22 273.82 406.47 259.92 394.79 259.92 382.62 281.55 382.62 281.55 399.22"/><rect class="cls-7" x="107.34" y="414.18" width="19.27" height="21.25"/><rect class="cls-7" x="132.16" y="415.94" width="6.6" height="6.6"/><rect class="cls-7" x="299.54" y="345.45" width="17.05" height="27.69"/><polygon class="cls-7" points="299.54 379.25 299.54 398.45 316.59 408.86 316.59 379.25 299.54 379.25"/><polygon class="cls-7" points="299.44 404.96 299.44 424.3 316.59 424.3 316.59 414.61 299.44 404.96"/><rect class="cls-7" x="299.44" y="427.4" width="7.39" height="8.03"/><rect class="cls-7" x="310.56" y="427.4" width="6.03" height="8.03"/><rect class="cls-7" x="300.27" y="120.01" width="16.32" height="32.24"/><polygon class="cls-7" points="138.31 129.76 138.31 154.64 180.18 154.64 180.18 120.01 148.92 120.01 138.31 129.76"/><rect class="cls-7" x="110.1" y="141.28" width="24.66" height="13.35"/><rect class="cls-7" x="110.1" y="130.38" width="24.66" height="7.46"/><polygon class="cls-7" points="101.84 130.79 106.96 130.79 106.96 154.63 95.56 154.63 95.56 137.42 101.84 130.79"/><polygon class="cls-7" points="95.56 120.01 95.56 127.38 137.06 127.38 144.92 120.01 95.56 120.01"/><polygon class="cls-7" points="225.18 287.45 242.96 306.13 259.92 306.13 259.92 287.45 225.18 287.45"/><rect class="cls-7" x="263.45" y="297.54" width="20.17" height="8.59"/><rect class="cls-7" x="263.45" y="287.45" width="9.08" height="7.8"/><rect class="cls-7" x="274.79" y="287.45" width="8.83" height="7.8"/><rect class="cls-7" x="286.07" y="287.45" width="12.74" height="18.67"/><polygon class="cls-7" points="313.01 306.13 301.97 306.13 301.97 293.36 307.26 287.45 313.01 287.45 313.01 306.13"/><polygon class="cls-7" points="194.27 315.79 222.76 315.79 222.76 329.42 204.54 337.68 194.27 315.79"/><circle class="cls-9" cx="157.66" cy="372.43" r="12.79" transform="translate(-30.54 14.46) rotate(-4.79)"/><polygon class="cls-7" points="113.3 169.54 92.42 169.54 92.42 204.42 104.17 204.42 113.3 192.5 113.3 169.54"/><polygon class="cls-7" points="120.61 196.64 113.3 196.64 107.34 204.42 107.34 216.72 120.61 216.72 120.61 196.64"/><rect class="cls-7" x="116.96" y="169.54" width="11.62" height="9.83"/><polygon class="cls-7" points="141.63 203.25 141.63 169.55 131.19 169.55 131.19 196.64 123.8 196.64 123.8 203.25 141.63 203.25"/><rect class="cls-7" x="145.85" y="169.54" width="14.78" height="15.38"/><rect class="cls-7" x="116.94" y="181.25" width="11.63" height="12.43"/><polygon class="cls-7" points="279.33 222.16 279.33 275.3 315.02 275.3 315.02 257.24 279.33 222.16"/><rect class="cls-7" x="253.78" y="254.3" width="21.97" height="21"/><polygon class="cls-7" points="173.58 231.68 196.49 256.61 225.25 256.61 225.25 231.68 173.58 231.68"/><polygon class="cls-7" points="199.76 259.49 214.3 275.3 225.18 275.3 225.18 259.49 199.76 259.49"/><rect class="cls-7" x="229.51" y="231.68" width="13.45" height="10.42"/><polygon class="cls-9" points="275.75 241.66 275.75 218.24 265.12 206.8 246.59 226.67 246.59 249.39 268.56 249.39 268.56 241.66 275.75 241.66"/><polygon class="cls-7" points="294.69 175.13 275.86 195.68 297.23 216.55 309.02 203.83 294.69 175.13"/><polygon class="cls-7" points="299.65 219.22 316.59 236.06 316.59 206.94 311.03 206.94 299.65 219.22"/><polygon class="cls-7" points="297.47 171.66 306.79 191.61 316.59 191.61 316.59 155.4 300.27 155.4 300.27 168.66 297.47 171.66"/><rect class="cls-7" x="311.25" y="194.05" width="5.34" height="10.05"/><polygon class="cls-7" points="282.77 150.66 249.35 150.66 249.35 183.98 266.14 183.98 282.77 165.71 282.77 150.66"/><rect class="cls-9" x="229.12" y="162.86" width="16.33" height="21.11"/><polygon class="cls-7" points="266.14 147.25 266.14 128.92 229.12 128.92 229.12 160.21 245.45 160.21 245.45 147.25 266.14 147.25"/><rect class="cls-7" x="215.28" y="128.92" width="11.73" height="17.88"/><rect class="cls-7" x="195.75" y="156.29" width="31.26" height="15.37"/><rect class="cls-7" x="215.28" y="149.03" width="11.73" height="4.99"/><polygon class="cls-7" points="210.45 199.83 201.91 199.83 195.75 193.99 195.75 177 210.45 177 210.45 199.83"/><path class="cls-1" d="M237.64,161.35c-5-5.79-9.77-12.14-9.08-19.14.45-4.55,3.58-9.06,9.08-9.06s8.62,4.51,9.07,9.06C247.41,149.21,242.68,155.56,237.64,161.35Z"/><path class="cls-5" d="M237.64,161.35a62.92,62.92,0,0,1-5.59-7,22.75,22.75,0,0,1-3.54-8.26,14.7,14.7,0,0,1-.07-4.54,11.84,11.84,0,0,1,1.54-4.28,9.36,9.36,0,0,1,3.24-3.2,9,9,0,0,1,4.42-1.14,8.88,8.88,0,0,1,4.41,1.15,9.22,9.22,0,0,1,3.25,3.2,11.71,11.71,0,0,1,1.54,4.28,14.64,14.64,0,0,1-.08,4.53,22.73,22.73,0,0,1-3.53,8.26A62.24,62.24,0,0,1,237.64,161.35Zm0,0a63.14,63.14,0,0,0,5.38-7.16,22.38,22.38,0,0,0,3.36-8.19,14.82,14.82,0,0,0,0-4.41,11.32,11.32,0,0,0-1.5-4.1,8.87,8.87,0,0,0-3.09-3,8.7,8.7,0,0,0-8.36,0,8.87,8.87,0,0,0-3.1,3,11.44,11.44,0,0,0-1.5,4.11,15.16,15.16,0,0,0,0,4.41,22.55,22.55,0,0,0,3.36,8.19A63.23,63.23,0,0,0,237.64,161.35Z"/><path class="cls-9" d="M241.06,147h-7.83l-1.92-7h11l.4-1.6H244v.45h-.89Zm-7.48-.46h7.12l1.51-6h-10.3Z"/><polygon class="cls-9" points="234.33 148.34 233.91 148.17 234.61 146.5 239.94 146.5 240.52 148.18 240.09 148.33 239.62 146.96 234.91 146.96 234.33 148.34"/><rect class="cls-9" x="232.1" y="141.59" width="10" height="0.45"/><rect class="cls-9" x="232.52" y="143.3" width="9.04" height="0.45" transform="translate(-0.69 1.15) rotate(-0.28)"/><rect class="cls-9" x="233" y="145.04" width="8.19" height="0.45"/><rect class="cls-9" x="236.97" y="140.27" width="0.45" height="6.47"/><rect class="cls-9" x="235.47" y="140.26" width="0.45" height="6.49" transform="translate(-10.72 19.3) rotate(-4.58)"/><rect class="cls-9" x="233.85" y="140.21" width="0.45" height="6.58" transform="translate(-22.09 44.7) rotate(-10.42)"/><rect class="cls-9" x="235.43" y="143.28" width="6.49" height="0.45" transform="translate(76.52 369.93) rotate(-85.41)"/><rect class="cls-9" x="237.01" y="143.28" width="6.58" height="0.45" transform="translate(55.74 353.92) rotate(-79.59)"/><path class="cls-9" d="M234.12,149.23a1,1,0,1,1,1-1A1,1,0,0,1,234.12,149.23Zm0-1.5a.53.53,0,0,0,0,1.05.53.53,0,1,0,0-1.05Z"/><path class="cls-9" d="M240.28,149.23a1,1,0,1,1,1-1A1,1,0,0,1,240.28,149.23Zm0-1.5a.53.53,0,0,0,0,1.05.53.53,0,1,0,0-1.05Z"/><path class="cls-1" d="M268.34,218.16c-5-5.79-9.76-12.13-9.07-19.14.45-4.54,3.58-9.06,9.07-9.06s8.63,4.52,9.08,9.06C278.12,206,273.39,212.37,268.34,218.16Z"/><path class="cls-5" d="M268.34,218.16a62.24,62.24,0,0,1-5.59-7,22.73,22.73,0,0,1-3.53-8.26,14.64,14.64,0,0,1-.08-4.53,11.71,11.71,0,0,1,1.54-4.28,9.39,9.39,0,0,1,3.25-3.2,9,9,0,0,1,8.83,0,9.28,9.28,0,0,1,3.24,3.2,11.53,11.53,0,0,1,1.54,4.28,14.34,14.34,0,0,1-.07,4.53,22.58,22.58,0,0,1-3.54,8.26A61.14,61.14,0,0,1,268.34,218.16Zm0,0a61.49,61.49,0,0,0,5.39-7.16,22.48,22.48,0,0,0,3.36-8.19,14.75,14.75,0,0,0,0-4.4,11.3,11.3,0,0,0-1.5-4.11,8.9,8.9,0,0,0-3.1-3,8.77,8.77,0,0,0-8.36,0,8.87,8.87,0,0,0-3.09,3,11.32,11.32,0,0,0-1.5,4.1,14.82,14.82,0,0,0,0,4.41A22.48,22.48,0,0,0,263,211,62.26,62.26,0,0,0,268.34,218.16Z"/><path class="cls-9" d="M272.46,195.84v9.79h-1.89v-4.17h-4.44v4.17h-1.9v-9.79h1.9v4h4.44v-4Z"/><path class="cls-1" d="M165.77,272.3c-5.05-5.79-9.77-12.14-9.08-19.14.45-4.54,3.58-9.06,9.08-9.06s8.62,4.52,9.07,9.06C175.54,260.16,170.81,266.51,165.77,272.3Z"/><path class="cls-5" d="M165.77,272.3a61.14,61.14,0,0,1-5.59-7,22.75,22.75,0,0,1-3.54-8.26,14.64,14.64,0,0,1-.07-4.53,11.53,11.53,0,0,1,1.54-4.28,9.28,9.28,0,0,1,3.24-3.2,9,9,0,0,1,8.83,0,9.31,9.31,0,0,1,3.25,3.2,11.71,11.71,0,0,1,1.54,4.28,14.64,14.64,0,0,1-.08,4.53,22.73,22.73,0,0,1-3.53,8.26A62.24,62.24,0,0,1,165.77,272.3Zm0,0a63.14,63.14,0,0,0,5.38-7.16,22.31,22.31,0,0,0,3.36-8.19,14.82,14.82,0,0,0,0-4.41,11.32,11.32,0,0,0-1.5-4.1,8.87,8.87,0,0,0-3.09-3,8.57,8.57,0,0,0-4.18-1.06,8.44,8.44,0,0,0-4.18,1.06,8.9,8.9,0,0,0-3.1,3,11.32,11.32,0,0,0-1.5,4.1,14.82,14.82,0,0,0,0,4.41,22.55,22.55,0,0,0,3.36,8.19A63.23,63.23,0,0,0,165.77,272.3Z"/><path class="cls-9" d="M167,251.62l1.92,1.4s.21-1,.65-.9.69.82.7,1.88l1.22.89a.27.27,0,0,1,.11.19l.1.93a.27.27,0,0,1-.37.28l-4.4-1.67c-.09,2-.26,3.72-.32,4.37a.4.4,0,0,0,.19.4l1.22.83a.46.46,0,0,1,.2.35.46.46,0,0,1-.05.21.44.44,0,0,1-.39.24l-3.95,0a.44.44,0,0,1-.43-.42h0a.43.43,0,0,1,.2-.39l1.25-.77a.44.44,0,0,0,.2-.42c-.08-.66-.28-2.43-.37-4.38h0l-4.38,1.65a.27.27,0,0,1-.36-.28l.08-1a.26.26,0,0,1,.11-.2l1.31-.9s-.07-1.41.47-1.75.88.83.88.83l1.89-1.31c.07-2,.32-3.89,1.17-4.09C166.78,247.38,167,249.18,167,251.62Z"/><path class="cls-1" d="M255.2,405.6c-5-5.79-9.77-12.14-9.08-19.15.45-4.54,3.58-9.06,9.08-9.06s8.62,4.52,9.07,9.06C265,393.46,260.24,399.81,255.2,405.6Z"/><path class="cls-5" d="M255.2,405.6a62.92,62.92,0,0,1-5.59-7,22.83,22.83,0,0,1-3.54-8.26,14.71,14.71,0,0,1-.07-4.54,11.59,11.59,0,0,1,1.54-4.28,9.36,9.36,0,0,1,3.24-3.2,9.12,9.12,0,0,1,8.83,0,9.34,9.34,0,0,1,3.25,3.21,11.73,11.73,0,0,1,1.54,4.27,14.7,14.7,0,0,1-.08,4.54,22.73,22.73,0,0,1-3.53,8.26A64.08,64.08,0,0,1,255.2,405.6Zm0,0a63.14,63.14,0,0,0,5.38-7.16,22.38,22.38,0,0,0,3.36-8.19,14.82,14.82,0,0,0,0-4.41,11.44,11.44,0,0,0-1.5-4.11,8.84,8.84,0,0,0-3.09-3,8.7,8.7,0,0,0-8.36,0,8.87,8.87,0,0,0-3.1,3,11.44,11.44,0,0,0-1.5,4.11,15.09,15.09,0,0,0,0,4.4,22.53,22.53,0,0,0,3.36,8.2A63.23,63.23,0,0,0,255.2,405.6Z"/><polygon class="cls-9" points="251.56 384.4 258.83 384.4 259.72 392.45 250.67 392.45 251.56 384.4"/><path class="cls-9" d="M252.93,384.74a4.49,4.49,0,0,1,.67-3.07,2,2,0,0,1,1.52-.65,2,2,0,0,1,1.54.65,4.56,4.56,0,0,1,.83,3.05l-.88-.06a3.74,3.74,0,0,0-.6-2.39,1.23,1.23,0,0,0-1.74,0,3.56,3.56,0,0,0-.46,2.37Z"/><path class="cls-1" d="M160.63,368.4c-5-5.79-9.76-12.14-9.07-19.14.45-4.54,3.58-9.06,9.07-9.06s8.63,4.52,9.08,9.06C170.41,356.26,165.68,362.61,160.63,368.4Z"/><path class="cls-5" d="M160.63,368.4a62.24,62.24,0,0,1-5.59-7,22.73,22.73,0,0,1-3.53-8.26,14.7,14.7,0,0,1-.08-4.54A11.73,11.73,0,0,1,153,344.3a9.31,9.31,0,0,1,3.25-3.2,9,9,0,0,1,8.83,0,9.2,9.2,0,0,1,3.24,3.2,11.53,11.53,0,0,1,1.54,4.28,14.34,14.34,0,0,1-.07,4.53,22.58,22.58,0,0,1-3.54,8.26A61.14,61.14,0,0,1,160.63,368.4Zm0,0a63.23,63.23,0,0,0,5.39-7.16,22.48,22.48,0,0,0,3.36-8.19,14.82,14.82,0,0,0,0-4.41,11.32,11.32,0,0,0-1.5-4.1,8.9,8.9,0,0,0-3.1-3,8.77,8.77,0,0,0-8.36,0,8.84,8.84,0,0,0-3.09,3,11.44,11.44,0,0,0-1.5,4.11,14.82,14.82,0,0,0,0,4.41,22.55,22.55,0,0,0,3.36,8.19A63.14,63.14,0,0,0,160.63,368.4Z"/><path class="cls-9" d="M165.77,349.19a4.92,4.92,0,0,1-3.23,4.84l-.06,0a6.44,6.44,0,0,1-3.69,0l-.06,0a4.92,4.92,0,0,1-3.23-4.84,5.14,5.14,0,1,1,10.27,0Z"/><path class="cls-9" d="M162.48,354.06a5.65,5.65,0,0,1-3.69,0,6.44,6.44,0,0,0,3.69,0Z"/><path class="cls-5" d="M160.43,347.45v11.63a.21.21,0,0,0,.41,0V347.45a.21.21,0,0,0-.41,0Z"/><path class="cls-5" d="M159,351.43l1.31,2.39.19.34c.12.24.48,0,.35-.2l-1.3-2.39-.19-.34a.21.21,0,0,0-.36.2Z"/><path class="cls-5" d="M159.46,348.58l.81,1.48.12.21a.2.2,0,0,0,.35-.2l-.81-1.48-.11-.22c-.13-.23-.48,0-.36.21Z"/><path class="cls-5" d="M162,349.26l-1.3,2.39-.19.34c-.13.23.23.44.35.21l1.31-2.39.18-.34c.13-.23-.22-.44-.35-.21Z"/><path class="cls-10" d="M106,416.8s-2.61,36.25-2.61,36.28c0,7.1.05,13.32.4,16.54a.11.11,0,0,0,0,.05,5,5,0,0,0,.51,2.19l0,.05c2.1,1.44,58.83,3.38,60.83,2.79s.46-6.35-1.68-8.19S140,454.22,140,454.22L142.22,418Z"/><path class="cls-1" d="M103.38,445.45v7.63c0,7.1.05,13.32.4,16.54a.11.11,0,0,0,0,.05,9.5,9.5,0,0,0,.51,2.19l0,.05c2.1,1.44,58.83,3.38,60.83,2.79s.46-6.35-1.68-8.19S140,454.22,140,454.22l.1-7.73Z"/><path class="cls-9" d="M165.19,474.7c-2,.6-58.74-1.34-60.85-2.79-.81-.54-1-8.82-1-18.83v-.32l36.62.85,0,.62s21.38,10.45,23.54,12.29S167.19,474.11,165.19,474.7Z"/><path class="cls-5" d="M164.62,472.48c-9.56-.57-48.15-1.93-57.63-1.76-.08,0-.08,0,0,.06,9.45.76,48.05,1.81,57.62,1.85C164.82,472.63,164.82,472.49,164.62,472.48Z"/><path class="cls-5" d="M143,454.44c-3.74-.83-8.36-.41-11.33,2.17-.11.1,0,.27.16.23A53.13,53.13,0,0,1,143,454.92.24.24,0,0,0,143,454.44Z"/><path class="cls-5" d="M145.69,456.17c-3.74-.83-8.36-.41-11.33,2.17-.11.1,0,.27.16.23a53.13,53.13,0,0,1,11.14-1.92A.24.24,0,0,0,145.69,456.17Z"/><path class="cls-5" d="M148.35,457.9c-3.74-.83-8.36-.41-11.33,2.17-.11.1,0,.27.16.23a53.13,53.13,0,0,1,11.14-1.92A.24.24,0,0,0,148.35,457.9Z"/><path class="cls-4" d="M101.19,454.64l39.71-.79s4.85-71.46,3.94-95.29c-1-25.87-12.09-102.87-12.09-102.87H99.21S107.78,333,108,358.88C108.13,382.88,101.19,454.64,101.19,454.64Z"/><path class="cls-5" d="M126.16,255.69,106,325.39c-2.38-33-6.8-69.7-6.8-69.7Z"/><path class="cls-5" d="M105.58,259.48l2.13,23,2,23c1.26,15.33,2.46,30.67,3.37,46,.23,3.84.36,7.7.31,11.56s-.24,7.7-.44,11.54q-.58,11.53-1.48,23.05t-1.86,23l-2.14,23,1.71-23q.87-11.5,1.62-23c.49-7.68,1-15.35,1.36-23,.18-3.84.32-7.69.39-11.52s-.11-7.67-.34-11.51c-.84-15.35-2.05-30.7-3.17-46Z"/><path class="cls-5" d="M139.24,447.22c-6.2-.05-4.42-.12-10.62-.11-3,0-23,.08-25.8.58-.06,0-.06.12,0,.13,2.84.43,22.78,0,25.81-.05,6.2-.13,4.42-.16,10.62-.37C139.36,447.4,139.36,447.22,139.24,447.22Z"/><path class="cls-10" d="M41.44,397.35s-19.16,31.13-19.17,31.16c-3.11,6.38-5.73,12-6.8,15.08a.08.08,0,0,0,0,.05,4.85,4.85,0,0,0-.49,2.2l0,.06c1.27,2.21,51.55,28.56,53.61,28.89s3.16-5.52,2-8.1-15.88-21.28-15.88-21.28l18.83-31.28Z"/><path class="cls-1" d="M15,445.84a.13.13,0,0,0,0,.06c1.28,2.21,51.56,28.56,53.62,28.89s3.16-5.52,2-8.1S54.74,445.4,54.74,445.4l3.36-5.58c-8.22-4.38-23.16-12.07-32.43-16.84l-3.4,5.53c-3.11,6.38-5.73,12-6.8,15.08a.08.08,0,0,0,0,.05A4.85,4.85,0,0,0,15,445.84Z"/><path class="cls-9" d="M68.59,474.79c-2.07-.33-52.34-26.67-53.62-28.89-.49-.84,2.92-8.39,7.3-17.39l.14-.28L55,444.86l-.3.55s14.73,18.69,15.88,21.28S70.65,475.13,68.59,474.79Z"/><path class="cls-5" d="M69,472.55C60.68,467.9,26.5,449.93,17.87,446c-.07,0-.09,0,0,0C26,450.81,60.36,468.5,69,472.68,69.15,472.77,69.22,472.64,69,472.55Z"/><path class="cls-5" d="M57.41,446.93c-3-2.37-7.36-4-11.15-2.95-.15,0-.09.25,0,.27a53.15,53.15,0,0,1,10.88,3.1A.24.24,0,0,0,57.41,446.93Z"/><path class="cls-5" d="M59.06,449.65c-3-2.37-7.36-4-11.15-3-.15,0-.09.25,0,.27a52.88,52.88,0,0,1,10.87,3.1A.24.24,0,0,0,59.06,449.65Z"/><path class="cls-5" d="M60.7,452.36c-3-2.37-7.35-4-11.15-3-.14,0-.08.25,0,.27a53.42,53.42,0,0,1,10.88,3.1A.24.24,0,0,0,60.7,452.36Z"/><path class="cls-4" d="M129.32,255.66v0c-.15.69-2.49,11.57-4.93,20.92-1.76,6.83-3.58,12.83-4.63,13.45s-6.94,3.25-8.87,4.05c0,0-12.95,64.66-19.79,84.71-6.31,18.5-32.42,67.95-32.42,67.95L20.79,427.63s29.58-50.19,32.7-59.19c4.82-14,22.88-82.13,22.88-82.13s-.13-21.34,7-30.65Z"/><path class="cls-5" d="M58.12,439.38c-5.42-3-3.82-2.23-9.27-5.19-2.66-1.45-20.19-11-22.91-11.88a.07.07,0,0,0-.06.11c2.28,1.75,20,10.95,22.66,12.35,5.51,2.86,4,2,9.49,4.77C58.13,439.6,58.22,439.44,58.12,439.38Z"/><path class="cls-5" d="M86.09,280.38c1-.27,2.15-.35,3.21-.52.85-.14,1.7-.29,2.55-.47a11,11,0,0,0,4.5-1.9A10.69,10.69,0,0,0,99.27,273c.42-1,.85-2,1.29-2.95.22-.47.43-.95.65-1.42a16.39,16.39,0,0,0,.8-1.7c0-.09.17,0,.13,0a10.79,10.79,0,0,0-.36,1.23c-.14.48-.28,1-.43,1.43-.26.85-.52,1.7-.8,2.54a19.66,19.66,0,0,1-1.8,4.46c-1.56,2.49-4.36,3.5-7.16,3.85-.8.1-1.6.16-2.41.2a17.38,17.38,0,0,1-3.06,0A.14.14,0,0,1,86.09,280.38Z"/><path class="cls-5" d="M122.82,288.53A75.29,75.29,0,0,0,111,294.06a.13.13,0,0,0,.11.24c4-1.71,8.08-3.36,12-5.29A.26.26,0,0,0,122.82,288.53Z"/><path class="cls-5" d="M124,261.14c0-.14-.25-.17-.25,0,0,4.75-.27,8.92-.67,13.36-.19,2.06-1.84,13.44-5.41,12.61-.6-.13-.91-.72-1-1.62a14.45,14.45,0,0,1,.47-3.5c.4-2.38.72-4.77.92-7.18a65.92,65.92,0,0,0-.14-13.47.12.12,0,0,0-.23,0,124.21,124.21,0,0,1-1.09,18.59c-.45,3-1.94,7.42,1.16,7.87s5.19-7,5.58-9A68.41,68.41,0,0,0,124,261.14Z"/><path class="cls-5" d="M117.78,287.4a19.86,19.86,0,0,0-.8,2.36,5.4,5.4,0,0,0-.34,1.94.14.14,0,0,0,.25.05,6.61,6.61,0,0,0,.83-1.88c.27-.73.56-1.46.81-2.2A.4.4,0,0,0,117.78,287.4Z"/><path class="cls-5" d="M31,421.35c5.39-10.15,11-20.21,16.53-30.26,2.75-5,5.62-9.85,8.24-14.87a90.11,90.11,0,0,0,6-15.51q5-16.26,9.47-32.68c3-10.95,5.77-21.95,8.41-33,.65-2.76,1.37-5.52,1.91-8.3a25.59,25.59,0,0,0,0-8.51,27.59,27.59,0,0,1-.06-7.91,52.51,52.51,0,0,1,1.85-7.74c.42-1.33.87-2.66,1.33-4,0-.14.28-.08.24.07-1.64,5.35-3.31,10.75-3,16.41.17,2.72.89,5.39.85,8.13a39.12,39.12,0,0,1-1.38,8q-3.86,16.67-8.3,33.17T63.75,357.3a128.24,128.24,0,0,1-5.39,15.75c-2.28,5.07-5.18,9.86-7.9,14.71-5.63,10-11.3,20-17.1,29.9l-2.22,3.76A.07.07,0,1,1,31,421.35Z"/><path class="cls-10" d="M110.45,197.76c6.17,8.6,39.13,25,48.91,24.64,13.79-.56,31.76-8,38.31-11.66,2.86-1.6-3.87-24.28-7.15-23-7,2.67-28.23,11.49-30.84,11.72S136,196.07,125,192.84C110.26,188.52,107.32,193.42,110.45,197.76Z"/><path class="cls-10" d="M194.42,183.59c3.94-.61,8.39-1.62,12.47-.77s6.47,6.89,6.18,8.44-3.66,10.91-7.75,10.14-.23-7.72-.22-8.6.05-2-.74-2.06-15.51,3.8-15.51,3.8Z"/><path class="cls-10" d="M194.58,184.21c.23,0,12-2.22,16.1-1.37s6.46,6.89,6.17,8.44-3.66,10.91-7.75,10.14-.23-7.72-.22-8.6.05-2-.73-2.06-15.52,3.8-15.52,3.8Z"/><path class="cls-5" d="M207.81,200.64a4.88,4.88,0,0,1-.23-2.55,8.8,8.8,0,0,1,.64-2.58,14.6,14.6,0,0,0,.92-2.16,4.64,4.64,0,0,0-.16-2.28c-.21-.63-.85-.55-1.4-.46a18.41,18.41,0,0,0-2.41.59c-.86.24-1.71.5-2.56.75a21.84,21.84,0,0,0-2.63.86c-.06,0,0,.13,0,.12a21.84,21.84,0,0,0,2.26-.54c.84-.22,1.69-.43,2.54-.63s1.58-.42,2.38-.6a2.47,2.47,0,0,1,1.14-.12c.3.13.31.93.33,1.19a3.92,3.92,0,0,1-.56,2.19,11.79,11.79,0,0,0-.84,2.16,6.12,6.12,0,0,0-.24,2.17,8.85,8.85,0,0,0,.65,1.94C207.7,200.79,207.85,200.72,207.81,200.64Z"/><path class="cls-10" d="M179.57,192.51s13.29-8.21,16-9.82c5.52-3.23,27-7.62,29.85-7.39s2.77,6.12-11.9,9.49c-7.72,1.78-9.77,5.63-10.06,7.92s1.08,6.93,4.91,7.54,7.35-4.48,11-4.44.1,6-3.07,9.27a23.74,23.74,0,0,1-11.76,6.07c-3.53.62-14.56,3.09-14.56,3.09Z"/><path class="cls-5" d="M213.65,198.46c-1.65.84-3.55,2-5.45,1.69s-3-1.8-3.6-3.56a7.36,7.36,0,0,1,0-5.46,9,9,0,0,1,3.42-3.78,21.92,21.92,0,0,1,5.81-2.47c.09,0,0-.16,0-.14-1.91.46-7.78,1.66-9.78,6.28a7.5,7.5,0,0,0,0,5.57c.56,1.68,1.51,3.37,3.33,3.87,2.22.61,4.5-.86,6.38-1.92C213.83,198.49,213.73,198.42,213.65,198.46Z"/><path class="cls-9" d="M192.35,216.51c-.06-.58-7.8-28.27-7.8-28.27S163.07,198,160,198.59s-32.51-5.46-42.36-7.91c-10.52-2.63-14.16,5.11-.07,14.29s32,17.78,40.28,18.25C165.84,223.68,192.35,216.51,192.35,216.51Z"/><path class="cls-1" d="M167.1,203.43h-1a1.77,1.77,0,0,1-1.77-1.77,1.43,1.43,0,0,0-1.42-1.42h-1.1v-.35h1.1a1.78,1.78,0,0,1,1.77,1.77,1.42,1.42,0,0,0,1.42,1.42h1Zm24.64,10.72a1.73,1.73,0,0,0-1-.28h-1.1v.35h1.1a1.43,1.43,0,0,1,1.11.53C191.85,214.56,191.79,214.36,191.74,214.15ZM128.16,211l-.22.21,1,.54Zm42.3,9.53-.74-.74a1.43,1.43,0,0,1,0-2,1.77,1.77,0,0,0,0-2.5l-.78-.78-.24.24.78.78a1.43,1.43,0,0,1,0,2,1.77,1.77,0,0,0,0,2.5l.74.74ZM114.4,192.7a1.43,1.43,0,0,1,0-2,1.49,1.49,0,0,0,.34-.49l-.38,0a1.05,1.05,0,0,1-.2.27,1.77,1.77,0,0,0,0,2.5l.74.74.24-.25ZM138,204.57a1.41,1.41,0,0,1,2,0,1.79,1.79,0,0,0,2.5,0l.78-.78-.24-.25-.78.78a1.42,1.42,0,0,1-2,0,1.77,1.77,0,0,0-2.5,0l-.73.74.24.25Zm39.65,2.77a1.44,1.44,0,0,1,2,0,1.71,1.71,0,0,0,1.25.52,1.75,1.75,0,0,0,1.25-.52l.78-.78-.25-.24-.78.78a1.43,1.43,0,0,1-2,0,1.77,1.77,0,0,0-2.5,0l-.74.74.25.24Zm-26.48,5.41a1.43,1.43,0,0,1,1.42-1.43,1.76,1.76,0,0,0,1.77-1.76v-1.05h-.34v1.05a1.43,1.43,0,0,1-1.43,1.42,1.76,1.76,0,0,0-1.76,1.77v1.1h.34ZM179,197a1.43,1.43,0,0,1,1.42-1.42,1.77,1.77,0,0,0,1.77-1.77v-1h-.34v1a1.43,1.43,0,0,1-1.43,1.42,1.78,1.78,0,0,0-1.77,1.77v1.1H179Zm-54,2.67a1.41,1.41,0,0,1,1.42-1.42,1.78,1.78,0,0,0,1.77-1.77v-1.05h-.35v1.05a1.43,1.43,0,0,1-1.42,1.42,1.77,1.77,0,0,0-1.77,1.77v1.1H125Z"/><path class="cls-5" d="M185.07,215.57c-3.08-10.06-4.79-21.1-5.23-23,0-.09.13-.11.14,0,.33,1.89,3.66,14.3,5.24,23C185.24,215.65,185.1,215.67,185.07,215.57Z"/><path class="cls-11" d="M148.9,221.08c-9.09-3.19-21.21-9.5-31.36-16.11s-11.07-12.31-7.08-14.18Z"/><path class="cls-9" d="M76.7,260.58c.14.16,57.63,1.15,58.17.55.75-.84-7.56-57-17-69.81-2.37-3.19-10.35-3.94-14.18-1.1C84.74,204.29,76.22,260,76.7,260.58Z"/><path class="cls-1" d="M130.4,231.75a1.75,1.75,0,0,1-.61-1.33,1.43,1.43,0,0,0-1.43-1.42h-1.1v-.35h1.1a1.78,1.78,0,0,1,1.63,1.08,1.67,1.67,0,0,1,.14.67v0a1.4,1.4,0,0,0,.12.58ZM90.09,214a1.42,1.42,0,0,1-1.32-.91c-.06.14-.12.28-.17.42a1.76,1.76,0,0,0,1.49.84h1V214Zm27.4-4.78h-1a1.43,1.43,0,0,1-1.42-1.43,1.76,1.76,0,0,0-1.77-1.76h-1.1v.34h1.1a1.42,1.42,0,0,1,1.42,1.42,1.77,1.77,0,0,0,1.77,1.77h1ZM104.2,237h-1a1.43,1.43,0,0,1-1.43-1.42,1.76,1.76,0,0,0-1.76-1.77h-1.1v.34H100a1.43,1.43,0,0,1,1.42,1.43,1.77,1.77,0,0,0,1.77,1.77h1Zm16.55,23.46h-1a1.42,1.42,0,0,1-1.42-1.42,1.77,1.77,0,0,0-1.77-1.77h-1.1v.35h1.1a1.42,1.42,0,0,1,1.42,1.42,1.77,1.77,0,0,0,1.77,1.77h1ZM84.8,258.78h-1a1.43,1.43,0,0,1-1.42-1.43,1.76,1.76,0,0,0-1.77-1.76h-1.1v.34h1.1A1.43,1.43,0,0,1,82,257.35a1.77,1.77,0,0,0,1.77,1.77h1Zm34.6-16.51-.74-.74a1.43,1.43,0,0,1,0-2,1.76,1.76,0,0,0,0-2.5l-.77-.78-.25.25.78.77a1.42,1.42,0,0,1,0,2,1.77,1.77,0,0,0,0,2.5l.74.73Zm-5-49.57a1.43,1.43,0,0,1,0-2,1.71,1.71,0,0,0,.52-1.25.66.66,0,0,0,0-.14l-.37-.14a1.42,1.42,0,0,1-.38,1.29,1.77,1.77,0,0,0,0,2.5l.74.74.24-.25ZM90.62,231.15l-.74-.74a1.41,1.41,0,0,1,0-2,1.76,1.76,0,0,0,0-2.5l-.78-.78-.25.25.78.77a1.42,1.42,0,0,1,0,2,1.77,1.77,0,0,0,0,2.5l.74.73Zm35.08,17.1a1.43,1.43,0,0,1,2,0,1.79,1.79,0,0,0,1.25.52,1.75,1.75,0,0,0,1.25-.52l.78-.78-.24-.24L130,248a1.43,1.43,0,0,1-2,0,1.77,1.77,0,0,0-2.5,0l-.74.74.24.24Zm-36.6-3.31a1.41,1.41,0,0,1,2,0,1.79,1.79,0,0,0,2.5,0l.78-.78-.24-.25-.78.78a1.42,1.42,0,0,1-2,0,1.77,1.77,0,0,0-2.5,0l-.73.74.24.24ZM100,219.59a1.41,1.41,0,0,1,2,0,1.78,1.78,0,0,0,2.5,0l.78-.78-.24-.25-.78.78a1.41,1.41,0,0,1-2,0,1.77,1.77,0,0,0-2.5,0l-.74.74.24.24Zm-4.31,40.25a1.47,1.47,0,0,1,2,0,1.76,1.76,0,0,0,2.5,0l.78-.78-.24-.24-.78.78a1.44,1.44,0,0,1-2,0,1.75,1.75,0,0,0-1.25-.52,1.79,1.79,0,0,0-1.25.52l-.73.74.24.24Zm9.54-8.68a1.43,1.43,0,0,1,1.42-1.42,1.77,1.77,0,0,0,1.77-1.77v-1H108v1a1.42,1.42,0,0,1-1.42,1.42,1.78,1.78,0,0,0-1.77,1.77v1.1h.35ZM113.4,226a1.42,1.42,0,0,1,1.42-1.42,1.77,1.77,0,0,0,1.77-1.77v-1h-.35v1a1.42,1.42,0,0,1-1.42,1.42,1.77,1.77,0,0,0-1.77,1.77v1.1h.35Zm-12.71-21.61a1.42,1.42,0,0,1,1.42-1.42,1.77,1.77,0,0,0,1.77-1.77v-1h-.34v1a1.43,1.43,0,0,1-1.43,1.42,1.76,1.76,0,0,0-1.76,1.77v1.1h.34Z"/><polygon class="cls-3" points="119.05 252.46 149.83 256.56 161.45 213.78 130.67 209.68 119.05 252.46"/><polygon class="cls-5" points="120.56 252.66 151.34 256.76 162.96 213.98 132.18 209.88 120.56 252.66"/><path class="cls-1" d="M146.06,232a3.36,3.36,0,0,1-3.66,2.56,2.72,2.72,0,0,1-2.33-3.35,3.36,3.36,0,0,1,3.65-2.56A2.72,2.72,0,0,1,146.06,232Z"/><path class="cls-10" d="M95.55,197.28C77.83,215.63,63.08,254,71.49,257.67c7.7,3.36,32.19.52,42.27-1.79,3-.68-2.8-23.63-6-22.9-3.82.87-13.6,2.2-14,2.16-.85-.06,8.38-25.59,11.33-35.4C109.24,186.08,102.2,190.39,95.55,197.28Z"/><path class="cls-10" d="M103.94,235.52s7-5.52,11.74-8.92c2.65-1.9,7.47-4.75,10.06-5.25,3.86-.75,20.49-1.44,20.74,2.59.23,3.65-14.13,2.42-14.13,2.42s14.6,0,14.07,4.4-16.58.9-16.58.9,15,.29,13.74,4.78c-1,3.4-15.68,1-15.68,1s12.9.34,12.06,3.87c-.93,3.91-14.65,2.56-14.65,2.56-3.64,8.62-8.63,11.59-12.87,12.66C111.45,256.79,103.94,235.52,103.94,235.52Z"/><path class="cls-5" d="M128,226.07c10.75-.85,16.29,2,16.12,2a63.71,63.71,0,0,0-11.69-1.59c-1.71-.08-2.73-.24-4.44-.32C127.94,226.14,128,226.08,128,226.07Z"/><path class="cls-5" d="M126.88,232.24a37,37,0,0,1,13,.69c.16,0,.1.11-.07.09-2.18-.16-10.74-.66-12.92-.73C126.84,232.29,126.84,232.25,126.88,232.24Z"/><path class="cls-5" d="M125.56,237.49a27.23,27.23,0,0,1,10,.83c.16,0,.06.13-.11.11-3.33-.34-5.94-.63-9.92-.83C125.5,237.6,125.49,237.49,125.56,237.49Z"/><path class="cls-9" d="M94.71,234.41c-1.2-1,8.59-25.06,11.3-36s-2.36-10.4-10.48-1.62c-8.69,9.4-23.18,30.22-26.62,51.77-1.08,6.73-2.49,11.53,13.1,11.39a178.48,178.48,0,0,0,27.07-2.14l-3.19-24.67S95.05,234.71,94.71,234.41Z"/><path class="cls-1" d="M91.13,214.35h-1a1.78,1.78,0,0,1-1.77-1.77,1.42,1.42,0,0,0-1.42-1.42H85.8v-.35h1.1a1.77,1.77,0,0,1,1.77,1.77A1.43,1.43,0,0,0,90.09,214h1ZM104.2,237h-1a1.43,1.43,0,0,1-1.43-1.42,1.76,1.76,0,0,0-1.76-1.77h-1.1v.34H100a1.43,1.43,0,0,1,1.42,1.43,1.77,1.77,0,0,0,1.77,1.77h1ZM84.8,258.78h-1a1.43,1.43,0,0,1-1.42-1.43,1.76,1.76,0,0,0-1.77-1.76h-1.1v.34h1.1A1.43,1.43,0,0,1,82,257.35a1.77,1.77,0,0,0,1.77,1.77h1Zm5.82-27.63-.74-.74a1.41,1.41,0,0,1,0-2,1.76,1.76,0,0,0,0-2.5l-.78-.78-.25.25.78.77a1.42,1.42,0,0,1,0,2,1.77,1.77,0,0,0,0,2.5l.74.73Zm-18.85,19-.74-.74a1.43,1.43,0,0,1,0-2,1.76,1.76,0,0,0,0-2.5l-.78-.78-.24.24.78.78a1.44,1.44,0,0,1,0,2,1.77,1.77,0,0,0,0,2.5l.74.73Zm17.33-5.18a1.41,1.41,0,0,1,2,0,1.79,1.79,0,0,0,2.5,0l.78-.78-.24-.25-.78.78a1.42,1.42,0,0,1-2,0,1.77,1.77,0,0,0-2.5,0l-.73.74.24.24Zm-9.93-23-.78.78a1.33,1.33,0,0,1-.84.4l-.18.36a1.73,1.73,0,0,0,1.27-.51l.78-.78Zm16.59,37.37c.54,0,1-.08,1.56-.12a1.63,1.63,0,0,0-.66-.14A1.66,1.66,0,0,0,95.76,259.34Zm4.94-.52-.09.09.16,0Zm7.19-10.22a1.41,1.41,0,0,1-1.27.79,1.77,1.77,0,0,0-1.77,1.77v1.1h.34v-1.1a1.43,1.43,0,0,1,1.43-1.42,1.72,1.72,0,0,0,1.34-.63h0Zm-7.2-44.24a1.42,1.42,0,0,1,1.42-1.42,1.77,1.77,0,0,0,1.77-1.77v-1h-.34v1a1.43,1.43,0,0,1-1.43,1.42,1.76,1.76,0,0,0-1.76,1.77v1.1h.34Zm-24.07,34a1.43,1.43,0,0,1,1.43-1.42,1.77,1.77,0,0,0,1.76-1.77v-1h-.34v1a1.43,1.43,0,0,1-1.42,1.42,1.77,1.77,0,0,0-1.77,1.77v1.1h.34Z"/><path class="cls-5" d="M103.58,257.55a210,210,0,0,1-2.66-22.15c0-.09.13-.09.13,0,.13,1.81,2,13.81,2.68,22.16C103.74,257.64,103.6,257.65,103.58,257.55Z"/><path class="cls-5" d="M82.84,236.23a20.94,20.94,0,0,1,2.94-.58l2.75-.47,1.19-.2h-.11L88,234.73c-.53-.09-1-.21-1.59-.26a.07.07,0,1,1,0-.13c.52.07,1.06.07,1.59.11l1.66.13c.48,0,1,.11,1.44.17q1.34-.21,2.67-.39c.4-1.75,1-3.48,1.58-5.18s1.16-3.55,1.79-5.32,1.26-3.45,1.94-5.16c.35-.86,2.19-6.11,2.79-7.47,0-.09.14,0,.12.05-.36,1.39-2.23,6.78-2.51,7.65-.2.64-.41,1.28-.61,1.91l.08-.09,1.07-1.42a35.76,35.76,0,0,0,2.08-3c.05-.08.18,0,.13.09-.6,1.07-1.17,2.15-1.8,3.19-.32.52-.65,1-1,1.54a8,8,0,0,1-1.1,1.41h0c-.16.52-.33,1-.5,1.57-.56,1.74-1.14,3.49-1.7,5.24s-1,3.25-1.54,4.83c1.82-.23,3.64-.43,5.46-.64l2.79-.3c1-.11,2-.1,3-.26.09,0,.12.12,0,.13-1,.1-2,.39-3,.56l-2.76.46c-1.94.31-3.88.64-5.83.92s-3.85.48-5.78.69l-2.91.3a19,19,0,0,1-2.82.22C82.79,236.33,82.79,236.25,82.84,236.23Z"/><path class="cls-5" d="M76.84,259.7a291.29,291.29,0,0,0,32.05-1.9.07.07,0,1,1,0,.13A143.9,143.9,0,0,1,76.83,260,.17.17,0,0,1,76.84,259.7Z"/><path class="cls-10" d="M116.4,199.43c-2.42.89-8.53-3.55-10.17-7.62-.11-.27,2.21-10.62,2.46-12.71,0-.43,12.78,4.75,12.78,4.75a33.47,33.47,0,0,0-2.23,7.9,5.08,5.08,0,0,0,0,.87s0,.09,0,.14C119.31,194.43,119.09,198.45,116.4,199.43Z"/><path class="cls-5" d="M109.53,179.26c.12,3.24,1.09,12.39,8.35,13.42a8.17,8.17,0,0,0,1.36.08.71.71,0,0,1,0-.14,5.1,5.1,0,0,1,0-.87,34,34,0,0,1,2.21-7.91S112.38,180.15,109.53,179.26Z"/><path class="cls-10" d="M107,165.36c-1.2,4.8,2,18.33,5.51,21.21,5.11,4.16,13.11,4.18,16.56-1.87,3.35-5.87-1.13-23.43-5-26C118.33,154.9,108.81,158.27,107,165.36Z"/><path class="cls-5" d="M121,173.44s-.06.06-.06.1c.24.89.36,2-.39,2.45,0,0,0,.06,0,0C121.57,175.67,121.4,174.25,121,173.44Z"/><path class="cls-5" d="M120,172.68c-1.47.22-.92,3.16.45,3S121.25,172.49,120,172.68Z"/><path class="cls-5" d="M126.05,172.43s.07,0,.08.07c.14.92.46,1.94,1.34,2.09,0,0,0,0,0,0C126.44,174.69,126,173.33,126.05,172.43Z"/><path class="cls-5" d="M126.68,171.33c1.45-.38,2.11,2.53.77,2.89S125.47,171.65,126.68,171.33Z"/><path class="cls-5" d="M118.54,172c.38-.18.7-.4,1.06-.61a2,2,0,0,0,1-.84.63.63,0,0,0-.24-.73,1.57,1.57,0,0,0-1.59.13,2.3,2.3,0,0,0-1.12,1.22A.68.68,0,0,0,118.54,172Z"/><path class="cls-5" d="M127.38,169c-.42,0-.81-.05-1.23-.08a2,2,0,0,1-1.23-.33.62.62,0,0,1-.11-.76,1.57,1.57,0,0,1,1.48-.58,2.27,2.27,0,0,1,1.55.61A.67.67,0,0,1,127.38,169Z"/><path class="cls-5" d="M121.48,181.89a1.45,1.45,0,0,0,.87.39,2.55,2.55,0,0,0,.94-.41s.06,0,0,0a1.25,1.25,0,0,1-1.06.71,1,1,0,0,1-.87-.68C121.38,181.89,121.45,181.86,121.48,181.89Z"/><path class="cls-5" d="M121.93,179a3.12,3.12,0,0,0,2.33,1,3.57,3.57,0,0,0,1.12-.16.65.65,0,0,0,.21-.06l.2-.07a.23.23,0,0,0,.14-.24h0a.24.24,0,0,0,0-.09h0v-.08c-.12-.71-.38-1.76-.38-1.76.28.08,1.69.42,1.6.06a46.62,46.62,0,0,0-3-9.16.08.08,0,0,0-.16,0c.61,2.91,1.72,5.7,2.38,8.61a5.83,5.83,0,0,0-1.55-.17c-.1.05.55,2,.58,2.35v0a4.38,4.38,0,0,1-3.4-.4C121.92,178.84,121.86,178.92,121.93,179Z"/><path class="cls-5" d="M124.9,179.54a3.68,3.68,0,0,1-1.26,1.41,1.67,1.67,0,0,1-1,.26c-.76-.06-.91-.72-.88-1.32a4.15,4.15,0,0,1,.16-.94A4.85,4.85,0,0,0,124.9,179.54Z"/><path class="cls-12" d="M123.64,181a1.67,1.67,0,0,1-1,.26c-.76-.06-.91-.72-.88-1.32A1.72,1.72,0,0,1,123.64,181Z"/><path class="cls-5" d="M108.61,177.76s-5.23-7.74-5-12.38c.1-2.1,2.87-3.65,2.87-3.65a4.72,4.72,0,0,1,1.26-4.81c2.35-2.45,8.35-2.22,8.35-2.22s3.59-5.8,9.18-3.85,2.33,8.34,2.33,8.34,2.16,2.75-2.64,5.23-14.56.76-14.56.76a34,34,0,0,1,.35,10.13A3.09,3.09,0,0,1,108.61,177.76Z"/><path class="cls-5" d="M117,154.72a9.7,9.7,0,0,0-3.89-.51,10.41,10.41,0,0,0-3.45.71,5.79,5.79,0,0,0-3.84,4.53,4,4,0,0,0,.92,3s.08,0,0,0c-1.35-1.51-.8-4,.44-5.36a8.66,8.66,0,0,1,5.68-2.42,16.76,16.76,0,0,1,4.06.22A.06.06,0,0,0,117,154.72Z"/><path class="cls-5" d="M129.32,153.3a4.72,4.72,0,0,0-3.4-2.83,8,8,0,0,0-5.18.44,10.13,10.13,0,0,0-4.09,3.36s0,.07.06,0a8.85,8.85,0,0,1,8.31-3.57,4.84,4.84,0,0,1,3.63,2.22,4.79,4.79,0,0,1,.08,4.07,9,9,0,0,1-3.34,3.71s0,.07,0,0a9.21,9.21,0,0,0,3.36-3.17A5.26,5.26,0,0,0,129.32,153.3Z"/><path class="cls-5" d="M126.15,164.62a16.66,16.66,0,0,1-6.84,1.54,33.78,33.78,0,0,1-7.3-.64c-1.4-.26-2.79-.58-4.18-.92,0,0-.06.05,0,.07a37.65,37.65,0,0,0,7.53,1.92,18.77,18.77,0,0,0,7.16-.42,16,16,0,0,0,3.66-1.51S126.18,164.6,126.15,164.62Z"/><path class="cls-10" d="M110.51,176.33s-3.4-4.19-5.32-3,.85,7.47,3.26,8.18a2.39,2.39,0,0,0,3.11-1.51Z"/><path class="cls-5" d="M106,175.15a0,0,0,0,0,0,.06,6,6,0,0,1,3.39,3.56,1.32,1.32,0,0,0-2-.22s0,.1,0,.08a1.48,1.48,0,0,1,1.66.4,7.75,7.75,0,0,1,.87,1.25c.08.15.34.05.27-.12v0C110.14,178,108.3,175.2,106,175.15Z"/></g><g id="Character"><path class="cls-2" d="M158.4,78l-75.27-.12s3.75-5.14,7.88-5.78c0,0,8.06-25.25,21.49-25.4C125,46.5,130,62.21,130,62.21s5.8-7,11.32-3.81,8.64,12.46,8.64,12.46S156.15,74.41,158.4,78Z"/><path class="cls-2" d="M427.78,100.44l95.19.16s0-6.43-13.11-7.71c0,0-11.93-28.12-30.21-24.38-11.39,2.33-17.23,18.85-17.23,18.85s-8.59-13-15.47-10.51-11,16.34-11,16.34S428.86,96.81,427.78,100.44Z"/><path class="cls-2" d="M412.1,173.31l64.72.1s-6.1-6-8.81-6S457.4,147.19,447.27,148s-15.51,15.86-15.51,15.86S419.45,159.8,412.1,173.31Z"/><path class="cls-2" d="M312.83,22.91l55.35.09s-2.75-3.79-5.78-4.27c0,0-5.87-18.58-15.75-18.73-9.19-.14-12.89,11.4-12.89,11.4s-4.24-5.18-8.31-2.82-6.38,9.13-6.38,9.13S314.49,20.31,312.83,22.91Z"/><path class="cls-2" d="M342.29,68.54l55.35.09s-2.75-3.79-5.78-4.27c0,0-5.87-18.58-15.75-18.73-9.19-.14-12.89,11.4-12.89,11.4s-4.24-5.19-8.31-2.83-6.38,9.14-6.38,9.14S344,65.94,342.29,68.54Z"/><path class="cls-2" d="M228.43,31.31l-75.27-.12S156.9,26,161,25.4c0,0,8.06-25.24,21.5-25.4C195-.15,200,15.56,200,15.56s5.8-7,11.32-3.8S220,24.21,220,24.21,226.18,27.76,228.43,31.31Z"/></g></g></svg>