<svg xmlns="http://www.w3.org/2000/svg" viewBox="0 0 413.42 439.13"><defs><style>.cls-1{fill:#ebebeb;}.cls-2{fill:none;}.cls-3{fill:#263238;}.cls-4{fill:#455a64;}.cls-5{fill:#c7c7c7;}.cls-6{fill:#a6a6a6;}.cls-7{fill:#3b3bb8;}.cls-8{fill:#fff;}.cls-9{fill:#ffc727;}.cls-10{fill:#eb9481;}.cls-11{fill:#37474f;}.cls-12{opacity:0.1;}.cls-13{fill:#ff9cbd;}</style></defs><title>Ativo 1</title><g id="Camada_2" data-name="Camada 2"><g id="Character"><path class="cls-1" d="M70.75,69.31,0,69.2s3.52-4.58,7.4-5.14c0,0,7.58-22.45,20.21-22.59C39.35,41.34,44,55.31,44,55.31s5.45-6.25,10.65-3.38S62.8,63,62.8,63,68.64,66.16,70.75,69.31Z"/><path class="cls-1" d="M324,89.3l89.47.14s0-5.72-12.31-6.85c0,0-11.22-25-28.4-21.68C362,63,356.51,77.67,356.51,77.67S348.44,66.1,342,68.32s-10.33,14.53-10.33,14.53S325,86.07,324,89.3Z"/><path class="cls-1" d="M309.21,154.09l60.84.09s-5.73-5.35-8.28-5.36-10-17.95-19.49-17.2-14.59,14.1-14.59,14.1S316.13,142.07,309.21,154.09Z"/><path class="cls-1" d="M215.91,20.37l52,.08s-2.58-3.37-5.43-3.8c0,0-5.52-16.52-14.81-16.65-8.63-.12-12.11,10.14-12.11,10.14s-4-4.61-7.81-2.51-6,8.12-6,8.12S217.47,18.06,215.91,20.37Z"/><path class="cls-1" d="M34.52,146.29l52,.08S84,143,81.12,142.57c0,0-5.53-16.52-14.81-16.65-8.63-.13-12.11,10.13-12.11,10.13s-4-4.61-7.82-2.51-6,8.12-6,8.12S36.08,144,34.52,146.29Z"/><ellipse class="cls-1" cx="206.71" cy="420.6" rx="194.74" ry="18.53"/><line class="cls-2" x1="318.61" y1="97.74" x2="319.18" y2="97.74"/><rect class="cls-3" x="84.19" y="49.27" width="245.05" height="366.46" rx="10.21"/><rect class="cls-4" x="204.73" y="37.7" width="3.81" height="53.36" rx="1.25" transform="translate(271.02 -142.25) rotate(90)"/><path class="cls-4" d="M206.63,410.29a6.9,6.9,0,1,1,6.9-6.9A6.9,6.9,0,0,1,206.63,410.29Z"/><rect class="cls-1" x="94.66" y="75.15" width="224.23" height="315.42"/><rect class="cls-5" x="198.06" y="75.15" width="87.02" height="5.49"/><path class="cls-6" d="M187.13,121.75v53.84H126v14.72H94.66v3.74H126v55.64l11.26,25.73H98.37V390.57h7.48V365h31.2v-3.73h-31.2V282.9h34.68L149.34,303a26.63,26.63,0,0,0,8.46,51h0l18.29,29.89-6.67,6.67H180l.11-.11.07.11H189l-22.78-37.19a26.71,26.71,0,0,0,20.42-25.91,26.31,26.31,0,0,0-1.74-9.46l52.23-24.84h51.67v63.16l-34.23,34.24h5.29l28.94-28.95v28.95h7.48v-97.4h22.64v-7.48H260.28l-43.81-47.62H318.89v-3.74H213l-47.15-51.26h76.25l25.76-27.32,51,51V196.18L273,150.32,297,124.94V75.15h-7.48V122L238.9,175.59H219.45v-37h7.73v-3.74H215.71v40.77h-21.1V75.15h-7.48v39.12H94.66v7.48ZM160,308.3a19.17,19.17,0,1,1-19.17,19.17A19.19,19.19,0,0,1,160,308.3Zm-26.47-60.19v-65h22.22l94.4,102.62h-14.7l-54.16,25.76A26.65,26.65,0,0,0,160,300.82a28.22,28.22,0,0,0-3.33.21Z"/><rect class="cls-5" x="139.9" y="188.75" width="10.87" height="10.87"/><polygon class="cls-5" points="252.9 230.45 252.9 209.45 245.26 209.45 245.26 200.67 231.81 200.67 231.81 230.45 252.9 230.45"/><polygon class="cls-5" points="198.06 84.07 198.06 96.3 204.21 96.3 204.21 109.16 215.6 109.16 215.6 84.07 198.06 84.07"/><rect class="cls-5" x="271.69" y="84.07" width="13.38" height="18.32"/><polygon class="cls-5" points="222.4 172.42 222.4 156.81 251.66 156.81 235.86 172.61 222.4 172.42"/><rect class="cls-5" x="198.06" y="157.92" width="14.7" height="14.7"/><rect class="cls-5" x="94.72" y="161.95" width="11.75" height="24.44"/><rect class="cls-5" x="109.64" y="175.14" width="13.28" height="11.25"/><rect class="cls-5" x="165.91" y="124.69" width="17.71" height="16.28"/><polygon class="cls-5" points="183.62 144.17 183.62 172.61 161.97 172.61 148.16 158.81 148.16 144.17 183.62 144.17"/><polygon class="cls-5" points="144.25 161.95 155.13 172.82 126.09 172.82 126.09 161.95 144.25 161.95"/><polygon class="cls-5" points="137.41 286.28 109.64 286.28 109.64 299.38 142.69 299.38 137.41 286.28"/><rect class="cls-5" x="109.64" y="305.81" width="11.92" height="18.03"/><path class="cls-5" d="M137.62,356.16v-6.29a40.39,40.39,0,0,1-9.87-21.69H109.64v28Z"/><path class="cls-5" d="M202.64,295.52l-11.38-24.58H177.4l-23.67,11,6.18,13.51H160a32,32,0,0,1,22.49,9.19Z"/><polygon class="cls-5" points="248.38 264.9 263.4 281.23 292.91 281.23 292.91 264.9 248.38 264.9"/><rect class="cls-5" x="296.82" y="264.9" width="18.66" height="16.33"/><polygon class="cls-5" points="134.46 381.35 134.46 390.57 161.8 390.57 169.4 382.55 153.88 357.19 145.53 364.2 145.53 381.35 134.46 381.35"/><path class="cls-5" d="M222.11,353.73l-22.45-23.4-8.61,6.73a32.57,32.57,0,0,1-15.93,19.18l18.78,30.68Z"/><polygon class="cls-5" points="197.66 320 237.1 300.5 256.77 300.5 256.77 334.8 226.1 349.94 197.66 320"/><polygon class="cls-5" points="284.6 372.33 284.6 389.27 267.65 389.27 284.6 372.33"/><polygon class="cls-7" points="139.9 204.16 139.9 247.27 151.93 276.69 173.88 265.81 225.07 265.81 167.66 204.16 139.9 204.16"/><polygon class="cls-5" points="264.75 142.5 222.4 142.5 222.4 153.12 254.74 153.12 264.75 142.5"/><rect class="cls-5" x="94.72" y="198.39" width="28.2" height="31.06"/><rect class="cls-5" x="109.64" y="234.45" width="13.28" height="13.28"/><polygon class="cls-5" points="122.92 251.76 102.23 251.76 102.23 271.89 131.61 271.89 122.92 251.76"/><rect class="cls-5" x="94.72" y="234.45" width="11.75" height="4.01"/><rect class="cls-5" x="94.72" y="241.09" width="11.75" height="6.64"/><rect class="cls-5" x="262.22" y="300.5" width="21.63" height="22.43"/><rect class="cls-5" x="262.22" y="326.43" width="21.63" height="7.87"/><polygon class="cls-5" points="199.11 390.57 248.76 390.57 257.5 381.83 226.44 357.19 199.11 390.57"/><polygon class="cls-7" points="260.23 378.13 273.04 365.83 257.5 352.31 257.5 340.14 230.11 354.09 260.23 378.13"/><polygon class="cls-5" points="283.85 354.37 276.12 361.62 262.22 349.94 262.22 337.77 283.85 337.77 283.85 354.37"/><rect class="cls-5" x="109.64" y="369.32" width="19.27" height="21.25"/><rect class="cls-5" x="134.46" y="371.09" width="6.6" height="6.6"/><rect class="cls-5" x="301.84" y="300.59" width="17.05" height="27.69"/><polygon class="cls-5" points="301.84 334.39 301.84 353.6 318.89 364 318.89 334.39 301.84 334.39"/><polygon class="cls-5" points="301.74 360.11 301.74 379.44 318.89 379.44 318.89 369.75 301.74 360.11"/><rect class="cls-5" x="301.74" y="382.54" width="7.39" height="8.03"/><rect class="cls-5" x="312.86" y="382.54" width="6.03" height="8.03"/><rect class="cls-5" x="302.57" y="75.15" width="16.32" height="32.24"/><polygon class="cls-5" points="140.61 84.91 140.61 109.78 182.48 109.78 182.48 75.16 151.22 75.16 140.61 84.91"/><rect class="cls-5" x="112.4" y="96.43" width="24.66" height="13.35"/><rect class="cls-5" x="112.4" y="85.52" width="24.66" height="7.46"/><polygon class="cls-5" points="104.15 85.94 109.26 85.94 109.26 109.78 97.86 109.78 97.86 92.57 104.15 85.94"/><polygon class="cls-5" points="97.86 75.16 97.86 82.53 139.36 82.53 147.22 75.16 97.86 75.16"/><polygon class="cls-5" points="227.48 242.6 245.26 261.28 262.22 261.28 262.22 242.6 227.48 242.6"/><rect class="cls-5" x="265.75" y="252.69" width="20.17" height="8.59"/><rect class="cls-5" x="265.75" y="242.6" width="9.08" height="7.8"/><rect class="cls-5" x="277.09" y="242.6" width="8.83" height="7.8"/><rect class="cls-5" x="288.37" y="242.6" width="12.74" height="18.67"/><polygon class="cls-5" points="315.31 261.28 304.28 261.28 304.28 248.51 309.56 242.6 315.31 242.6 315.31 261.28"/><polygon class="cls-5" points="196.57 270.94 225.07 270.94 225.07 284.57 206.85 292.83 196.57 270.94"/><circle class="cls-7" cx="159.96" cy="327.58" r="12.79" transform="translate(-26.79 14.5) rotate(-4.79)"/><polygon class="cls-5" points="115.61 124.69 94.72 124.69 94.72 159.57 106.47 159.57 115.61 147.65 115.61 124.69"/><polygon class="cls-5" points="122.92 151.78 115.61 151.78 109.64 159.57 109.64 171.87 122.92 171.87 122.92 151.78"/><rect class="cls-5" x="119.26" y="124.69" width="11.62" height="9.83"/><polygon class="cls-5" points="143.94 158.4 143.94 124.7 133.49 124.7 133.49 151.79 126.1 151.79 126.1 158.4 143.94 158.4"/><rect class="cls-5" x="148.16" y="124.69" width="14.78" height="15.38"/><rect class="cls-5" x="119.25" y="136.4" width="11.63" height="12.43"/><polygon class="cls-5" points="281.63 177.31 281.63 230.45 317.33 230.45 317.33 212.39 281.63 177.31"/><rect class="cls-5" x="256.08" y="209.45" width="21.97" height="21"/><polygon class="cls-5" points="175.88 186.82 198.8 211.76 227.56 211.76 227.56 186.82 175.88 186.82"/><polygon class="cls-5" points="202.06 214.64 216.6 230.45 227.48 230.45 227.48 214.64 202.06 214.64"/><rect class="cls-5" x="231.81" y="186.83" width="13.45" height="10.42"/><polygon class="cls-7" points="278.05 196.81 278.05 173.39 267.42 161.95 248.9 181.81 248.9 204.53 270.86 204.53 270.86 196.81 278.05 196.81"/><polygon class="cls-5" points="296.99 130.28 278.16 150.83 299.53 171.7 311.33 158.97 296.99 130.28"/><polygon class="cls-5" points="301.95 174.37 318.89 191.21 318.89 162.09 313.33 162.09 301.95 174.37"/><polygon class="cls-5" points="299.77 126.81 309.09 146.75 318.89 146.75 318.89 110.55 302.57 110.55 302.57 123.81 299.77 126.81"/><rect class="cls-5" x="313.55" y="149.19" width="5.34" height="10.05"/><polygon class="cls-5" points="285.07 105.81 251.66 105.81 251.66 139.13 268.44 139.13 285.07 120.86 285.07 105.81"/><rect class="cls-7" x="231.42" y="118.01" width="16.33" height="21.11"/><polygon class="cls-5" points="268.44 102.4 268.44 84.07 231.43 84.07 231.43 115.36 247.75 115.36 247.75 102.4 268.44 102.4"/><rect class="cls-5" x="217.58" y="84.07" width="11.73" height="17.88"/><rect class="cls-5" x="198.06" y="111.44" width="31.26" height="15.37"/><rect class="cls-5" x="217.58" y="104.17" width="11.73" height="4.99"/><polygon class="cls-5" points="212.76 154.98 204.21 154.98 198.06 149.14 198.06 132.15 212.76 132.15 212.76 154.98"/><path class="cls-8" d="M239.94,116.5c-5-5.79-9.77-12.14-9.07-19.15.45-4.54,3.58-9.06,9.07-9.06s8.63,4.52,9.08,9.06C249.72,104.36,245,110.71,239.94,116.5Z"/><path class="cls-3" d="M239.94,116.5a64.08,64.08,0,0,1-5.59-7,22.81,22.81,0,0,1-3.53-8.26,14.71,14.71,0,0,1-.08-4.54,11.78,11.78,0,0,1,1.54-4.28,9.31,9.31,0,0,1,3.25-3.2,9,9,0,0,1,8.83,0,9.36,9.36,0,0,1,3.24,3.2,11.84,11.84,0,0,1,1.54,4.28,14.7,14.7,0,0,1-.07,4.54,22.58,22.58,0,0,1-3.54,8.26A62.92,62.92,0,0,1,239.94,116.5Zm0,0a63.23,63.23,0,0,0,5.39-7.16,22.55,22.55,0,0,0,3.36-8.19,15.16,15.16,0,0,0,0-4.41,11.24,11.24,0,0,0-1.49-4.11,9,9,0,0,0-3.1-3,8.7,8.7,0,0,0-8.36,0,8.84,8.84,0,0,0-3.09,3,11.19,11.19,0,0,0-1.5,4.11,14.75,14.75,0,0,0,0,4.4,22.24,22.24,0,0,0,3.36,8.19A61.23,61.23,0,0,0,239.94,116.5Z"/><path class="cls-9" d="M243.36,102.11h-7.82l-1.92-7h11l.4-1.6h1.25V94h-.89Zm-7.48-.45H243l1.5-6h-10.3Z"/><polygon class="cls-9" points="236.64 103.49 236.22 103.31 236.92 101.65 242.25 101.65 242.82 103.33 242.39 103.48 241.92 102.11 237.22 102.11 236.64 103.49"/><rect class="cls-9" x="234.41" y="96.74" width="10" height="0.45"/><rect class="cls-9" x="234.83" y="98.45" width="9.04" height="0.45" transform="translate(-0.47 1.16) rotate(-0.28)"/><rect class="cls-9" x="235.3" y="100.19" width="8.19" height="0.45"/><rect class="cls-9" x="239.28" y="95.42" width="0.45" height="6.47"/><rect class="cls-9" x="237.77" y="95.41" width="0.45" height="6.49" transform="translate(-7.12 19.34) rotate(-4.58)"/><rect class="cls-9" x="236.16" y="95.36" width="0.45" height="6.58" transform="translate(-13.94 44.38) rotate(-10.42)"/><rect class="cls-9" x="237.74" y="98.43" width="6.49" height="0.45" transform="translate(123.35 330.96) rotate(-85.41)"/><rect class="cls-9" x="239.31" y="98.43" width="6.58" height="0.45" transform="translate(101.74 319.44) rotate(-79.59)"/><path class="cls-9" d="M236.43,104.38a1,1,0,1,1,1-1A1,1,0,0,1,236.43,104.38Zm0-1.5a.52.52,0,0,0-.53.52.53.53,0,0,0,.53.53.52.52,0,0,0,.52-.53A.52.52,0,0,0,236.43,102.88Z"/><path class="cls-9" d="M242.59,104.38a1,1,0,1,1,1-1A1,1,0,0,1,242.59,104.38Zm0-1.5a.52.52,0,0,0-.53.52.53.53,0,0,0,.53.53.52.52,0,0,0,.52-.53A.52.52,0,0,0,242.59,102.88Z"/><path class="cls-8" d="M270.65,173.31c-5-5.79-9.77-12.13-9.08-19.14.45-4.54,3.58-9.06,9.08-9.06s8.62,4.52,9.07,9.06C280.42,161.18,275.69,167.52,270.65,173.31Z"/><path class="cls-3" d="M270.65,173.31a61.14,61.14,0,0,1-5.59-7,22.56,22.56,0,0,1-3.53-8.26,14.34,14.34,0,0,1-.08-4.53,11.71,11.71,0,0,1,1.54-4.28,9.36,9.36,0,0,1,3.24-3.2,9.07,9.07,0,0,1,8.84,0,9.36,9.36,0,0,1,3.24,3.2,11.71,11.71,0,0,1,1.54,4.28,14.64,14.64,0,0,1-.08,4.53,22.56,22.56,0,0,1-3.53,8.26A62.24,62.24,0,0,1,270.65,173.31Zm0,0a62,62,0,0,0,5.38-7.16,22.31,22.31,0,0,0,3.36-8.19,14.82,14.82,0,0,0,0-4.41,11.14,11.14,0,0,0-1.5-4.1,8.87,8.87,0,0,0-3.09-3,8.77,8.77,0,0,0-8.36,0,9,9,0,0,0-3.1,3,11.32,11.32,0,0,0-1.5,4.1,15.16,15.16,0,0,0,0,4.41,22.66,22.66,0,0,0,3.36,8.19A62.35,62.35,0,0,0,270.65,173.31Z"/><path class="cls-9" d="M274.76,151v9.79h-1.88v-4.17h-4.44v4.17h-1.91V151h1.91v4h4.44v-4Z"/><path class="cls-8" d="M168.07,227.45c-5-5.79-9.77-12.14-9.07-19.14.45-4.55,3.57-9.06,9.07-9.06s8.62,4.51,9.08,9.06C177.85,215.31,173.12,221.66,168.07,227.45Z"/><path class="cls-3" d="M168.07,227.45a62.24,62.24,0,0,1-5.59-7,22.73,22.73,0,0,1-3.53-8.26,14.4,14.4,0,0,1-.08-4.54,11.73,11.73,0,0,1,1.54-4.27,9.22,9.22,0,0,1,3.25-3.2,9,9,0,0,1,8.83,0,9.28,9.28,0,0,1,3.24,3.2,11.71,11.71,0,0,1,1.54,4.28,14.64,14.64,0,0,1-.07,4.53,22.58,22.58,0,0,1-3.54,8.26A61.14,61.14,0,0,1,168.07,227.45Zm0,0a63.23,63.23,0,0,0,5.39-7.16,22.48,22.48,0,0,0,3.36-8.19,15.16,15.16,0,0,0,0-4.41,11.14,11.14,0,0,0-1.5-4.1,8.87,8.87,0,0,0-3.09-3,8.57,8.57,0,0,0-4.18-1.06,8.46,8.46,0,0,0-4.18,1.06,8.84,8.84,0,0,0-3.09,3,11.25,11.25,0,0,0-1.5,4.11,14.82,14.82,0,0,0,0,4.41,22.38,22.38,0,0,0,3.36,8.19A62,62,0,0,0,168.07,227.45Z"/><path class="cls-9" d="M169.28,206.77l1.91,1.4s.21-1,.66-.9.69.82.69,1.88l1.23.89a.31.31,0,0,1,.11.19l.09.93a.27.27,0,0,1-.37.28l-4.39-1.67c-.1,1.95-.27,3.72-.33,4.37a.43.43,0,0,0,.19.4l1.23.83a.41.41,0,0,1,.19.35.38.38,0,0,1-.05.21.44.44,0,0,1-.39.24l-3.94,0a.44.44,0,0,1-.44-.42h0a.42.42,0,0,1,.21-.39l1.24-.77a.43.43,0,0,0,.21-.42c-.08-.67-.28-2.43-.37-4.38h-.05l-4.37,1.65a.28.28,0,0,1-.37-.28l.08-1a.27.27,0,0,1,.12-.2l1.3-.9s-.07-1.41.47-1.75.88.82.88.82l1.9-1.3c.06-2,.31-3.89,1.16-4.09C169.09,202.53,169.25,204.33,169.28,206.77Z"/><path class="cls-8" d="M257.5,360.75c-5-5.79-9.77-12.14-9.07-19.15.45-4.54,3.58-9.06,9.07-9.06s8.63,4.52,9.08,9.06C267.28,348.61,262.55,355,257.5,360.75Z"/><path class="cls-3" d="M257.5,360.75a64.08,64.08,0,0,1-5.59-7,22.88,22.88,0,0,1-3.53-8.26,14.71,14.71,0,0,1-.08-4.54,11.78,11.78,0,0,1,1.54-4.28,9.31,9.31,0,0,1,3.25-3.2,9,9,0,0,1,8.83,0,9.36,9.36,0,0,1,3.24,3.2,11.84,11.84,0,0,1,1.54,4.28,14.7,14.7,0,0,1-.07,4.54,22.58,22.58,0,0,1-3.54,8.26A62.92,62.92,0,0,1,257.5,360.75Zm0,0a62.46,62.46,0,0,0,5.39-7.17,22.44,22.44,0,0,0,3.36-8.18,15.16,15.16,0,0,0,0-4.41,11.08,11.08,0,0,0-1.5-4.11,8.84,8.84,0,0,0-3.09-3,8.7,8.7,0,0,0-8.36,0,8.84,8.84,0,0,0-3.09,3,11.19,11.19,0,0,0-1.5,4.11,14.75,14.75,0,0,0,0,4.4,22.24,22.24,0,0,0,3.36,8.19A61.23,61.23,0,0,0,257.5,360.75Z"/><polygon class="cls-9" points="253.87 339.55 261.14 339.55 262.02 347.6 252.98 347.6 253.87 339.55"/><path class="cls-9" d="M255.23,339.89a4.51,4.51,0,0,1,.68-3.07,1.94,1.94,0,0,1,1.52-.65,2.05,2.05,0,0,1,1.54.64,4.72,4.72,0,0,1,.83,3.06l-.89-.06a3.68,3.68,0,0,0-.6-2.39,1.22,1.22,0,0,0-1.73,0,3.57,3.57,0,0,0-.47,2.37Z"/><path class="cls-8" d="M162.94,323.55c-5.05-5.79-9.77-12.14-9.08-19.14.45-4.55,3.58-9.06,9.08-9.06s8.62,4.51,9.07,9.06C172.71,311.41,168,317.76,162.94,323.55Z"/><path class="cls-3" d="M162.94,323.55a64.08,64.08,0,0,1-5.59-7,22.56,22.56,0,0,1-3.53-8.26,14.4,14.4,0,0,1-.08-4.54,11.84,11.84,0,0,1,1.54-4.28,9.36,9.36,0,0,1,3.24-3.2,9,9,0,0,1,4.42-1.14,8.92,8.92,0,0,1,4.42,1.15,9.28,9.28,0,0,1,3.24,3.2,11.71,11.71,0,0,1,1.54,4.28,14.34,14.34,0,0,1-.08,4.53,22.56,22.56,0,0,1-3.53,8.26A62.24,62.24,0,0,1,162.94,323.55Zm0,0a62,62,0,0,0,5.38-7.16,22.38,22.38,0,0,0,3.36-8.19,14.82,14.82,0,0,0,0-4.41,11.14,11.14,0,0,0-1.5-4.1,8.87,8.87,0,0,0-3.09-3,8.77,8.77,0,0,0-8.36,0,8.84,8.84,0,0,0-3.09,3,11.25,11.25,0,0,0-1.5,4.11,15.16,15.16,0,0,0,0,4.41,22.73,22.73,0,0,0,3.36,8.19A63.23,63.23,0,0,0,162.94,323.55Z"/><path class="cls-9" d="M168.07,304.34a4.92,4.92,0,0,1-3.22,4.84l-.07,0a6.4,6.4,0,0,1-3.68,0l-.07,0a4.92,4.92,0,0,1-3.22-4.84,5.13,5.13,0,1,1,10.26,0Z"/><path class="cls-9" d="M164.78,309.21a5.62,5.62,0,0,1-3.68,0,6.4,6.4,0,0,0,3.68,0Z"/><path class="cls-3" d="M162.74,302.6v11.63a.2.2,0,0,0,.4,0V302.6a.2.2,0,1,0-.4,0Z"/><path class="cls-3" d="M161.27,306.58l1.3,2.39.19.34a.2.2,0,0,0,.35-.2l-1.3-2.39-.19-.34c-.12-.23-.48,0-.35.2Z"/><path class="cls-3" d="M161.77,303.73l.81,1.48.11.21c.13.23.48,0,.36-.21l-.81-1.48-.12-.21c-.12-.23-.48,0-.35.21Z"/><path class="cls-3" d="M164.26,304.41,163,306.8l-.19.34c-.12.23.23.44.36.21l1.3-2.39.19-.34c.13-.23-.23-.44-.35-.21Z"/><path class="cls-10" d="M108.3,371.94s-2.62,36.26-2.62,36.28c0,7.1.06,13.33.41,16.55a.11.11,0,0,0,0,.05,4.84,4.84,0,0,0,.51,2.19s0,0,0,.05c2.11,1.44,58.84,3.38,60.84,2.78s.45-6.34-1.69-8.18-23.54-12.29-23.54-12.29l2.26-36.24Z"/><path class="cls-8" d="M105.68,400.6v7.62c0,7.1.06,13.33.41,16.55a.11.11,0,0,0,0,.05,9.5,9.5,0,0,0,.51,2.19s0,0,0,.05c2.11,1.44,58.84,3.38,60.84,2.78s.45-6.34-1.69-8.18-23.54-12.29-23.54-12.29l.11-7.73Z"/><path class="cls-9" d="M167.49,429.85c-2,.6-58.73-1.35-60.84-2.79-.81-.54-1-8.82-1-18.84,0-.1,0-.2,0-.31l36.61.84,0,.63s21.38,10.45,23.53,12.29S169.5,429.25,167.49,429.85Z"/><path class="cls-3" d="M166.92,427.62c-9.55-.56-48.14-1.92-57.63-1.75-.07,0-.08.05,0,.06,9.46.76,48.06,1.81,57.63,1.85C167.12,427.78,167.13,427.64,166.92,427.62Z"/><path class="cls-3" d="M145.34,409.59c-3.74-.83-8.36-.41-11.33,2.17-.12.1,0,.26.15.23a52.58,52.58,0,0,1,11.15-1.92A.24.24,0,0,0,145.34,409.59Z"/><path class="cls-3" d="M148,411.32c-3.74-.83-8.36-.41-11.33,2.17-.12.1,0,.26.15.23A52.58,52.58,0,0,1,148,411.8.24.24,0,0,0,148,411.32Z"/><path class="cls-3" d="M150.66,413.05c-3.74-.83-8.36-.41-11.33,2.17-.12.1,0,.26.15.23a52.58,52.58,0,0,1,11.15-1.92A.24.24,0,0,0,150.66,413.05Z"/><path class="cls-11" d="M103.5,409.79l39.71-.79s4.84-71.46,3.94-95.29c-1-25.87-12.1-102.87-12.1-102.87H101.51s8.58,77.3,8.76,103.18C110.44,338,103.5,409.79,103.5,409.79Z"/><path class="cls-3" d="M128.46,210.84l-20.14,69.7c-2.39-33-6.81-69.7-6.81-69.7Z"/><path class="cls-3" d="M107.88,214.63l2.13,23,2,23c1.27,15.33,2.46,30.67,3.38,46,.22,3.85.36,7.71.3,11.57s-.24,7.7-.43,11.54q-.6,11.53-1.48,23t-1.86,23l-2.15,23,1.72-23q.86-11.51,1.62-23c.48-7.68,1-15.35,1.36-23,.18-3.84.32-7.68.39-11.52s-.11-7.66-.34-11.5c-.84-15.35-2-30.7-3.17-46Z"/><path class="cls-3" d="M141.55,402.37c-6.2-.05-4.42-.12-10.62-.11-3,0-23,.08-25.8.58-.07,0-.06.12,0,.13,2.84.43,22.77,0,25.81-.05,6.19-.13,4.41-.16,10.61-.37A.09.09,0,0,0,141.55,402.37Z"/><path class="cls-10" d="M43.74,352.5,24.57,383.66c-3.11,6.38-5.72,12-6.8,15.08a.08.08,0,0,0,0,.05,5.16,5.16,0,0,0-.49,2.2l0,.06c1.27,2.21,51.55,28.56,53.61,28.89s3.17-5.52,2-8.1S57,400.55,57,400.55l18.83-31.27Z"/><path class="cls-8" d="M17.27,401a.13.13,0,0,0,0,.06c1.27,2.21,51.55,28.56,53.62,28.89s3.15-5.52,2-8.1S57,400.55,57,400.55L60.4,395C52.18,390.59,37.25,382.9,28,378.13c-2,3.28-3.39,5.52-3.39,5.53-3.12,6.38-5.73,12-6.81,15.08a.08.08,0,0,0,0,.05A4.78,4.78,0,0,0,17.27,401Z"/><path class="cls-9" d="M70.9,429.94c-2.07-.33-52.35-26.68-53.62-28.89-.5-.84,2.91-8.39,7.3-17.39a2.44,2.44,0,0,1,.14-.28L57.34,400l-.3.55s14.73,18.69,15.88,21.28S73,430.28,70.9,429.94Z"/><path class="cls-3" d="M71.35,427.69C63,423,28.8,405.08,20.18,401.12c-.07,0-.1,0,0,.05,8.19,4.79,42.52,22.48,51.13,26.66C71.46,427.92,71.52,427.79,71.35,427.69Z"/><path class="cls-3" d="M59.72,402.08c-3-2.37-7.36-4-11.15-2.95-.15,0-.09.25,0,.27a52.79,52.79,0,0,1,10.88,3.1A.25.25,0,0,0,59.72,402.08Z"/><path class="cls-3" d="M61.36,404.8c-3-2.37-7.35-4-11.15-3-.14,0-.08.25,0,.27a53,53,0,0,1,10.88,3.1A.24.24,0,0,0,61.36,404.8Z"/><path class="cls-3" d="M63,407.51c-3-2.37-7.36-4-11.15-3-.15,0-.09.25,0,.27a53.51,53.51,0,0,1,10.87,3.1A.24.24,0,0,0,63,407.51Z"/><path class="cls-11" d="M131.62,210.81v0c-.14.69-2.49,11.57-4.92,20.92-1.77,6.82-3.59,12.82-4.63,13.45s-6.94,3.25-8.87,4c0,0-13,64.66-19.79,84.71C87.09,352.47,61,401.92,61,401.92L23.1,382.78s29.58-50.19,32.69-59.2c4.82-14,22.89-82.12,22.89-82.12s-.14-21.34,7-30.65Z"/><path class="cls-3" d="M60.42,394.53c-5.41-3-3.82-2.23-9.26-5.19-2.67-1.45-20.19-11-22.91-11.88a.07.07,0,0,0-.06.11c2.28,1.74,20,10.95,22.66,12.35,5.5,2.86,3.95,2,9.49,4.77C60.44,394.75,60.52,394.59,60.42,394.53Z"/><path class="cls-3" d="M88.4,235.53c1-.27,2.15-.35,3.2-.52.86-.14,1.71-.29,2.55-.47a11.27,11.27,0,0,0,4.51-1.9,10.67,10.67,0,0,0,2.91-4.53c.43-1,.86-2,1.3-3,.21-.48.43-.95.65-1.42a17.73,17.73,0,0,0,.8-1.71c0-.08.16,0,.13,0a10.79,10.79,0,0,0-.36,1.23c-.15.48-.28,1-.43,1.43-.26.85-.52,1.7-.8,2.54a20.32,20.32,0,0,1-1.8,4.46c-1.57,2.49-4.36,3.5-7.16,3.85-.8.1-1.61.16-2.42.2a17.26,17.26,0,0,1-3,0C88.28,235.79,88.23,235.57,88.4,235.53Z"/><path class="cls-3" d="M125.12,243.68a74.82,74.82,0,0,0-11.87,5.53.13.13,0,0,0,.11.24c4-1.71,8.08-3.36,12-5.29A.26.26,0,0,0,125.12,243.68Z"/><path class="cls-3" d="M126.33,216.29c0-.14-.26-.17-.25,0,0,4.74-.27,8.92-.67,13.36-.19,2.06-1.85,13.44-5.42,12.61-.6-.14-.9-.72-1-1.63a14.45,14.45,0,0,1,.48-3.49c.39-2.38.71-4.77.92-7.18a65.21,65.21,0,0,0-.15-13.47.12.12,0,0,0-.23,0,122.9,122.9,0,0,1-1.09,18.59c-.44,3-1.94,7.42,1.16,7.87s5.2-7,5.58-9A68,68,0,0,0,126.33,216.29Z"/><path class="cls-3" d="M120.08,242.55a19.27,19.27,0,0,0-.8,2.36,5.39,5.39,0,0,0-.33,1.94c0,.13.18.14.25.05A7.29,7.29,0,0,0,120,245c.27-.72.55-1.45.81-2.19A.4.4,0,0,0,120.08,242.55Z"/><path class="cls-3" d="M33.32,376.5c5.39-10.16,11-20.21,16.53-30.26,2.75-5,5.62-9.85,8.25-14.88a90.47,90.47,0,0,0,6-15.5q5-16.28,9.48-32.69t8.4-33c.66-2.76,1.38-5.52,1.91-8.31a25.53,25.53,0,0,0,0-8.5,27,27,0,0,1-.06-7.92,51.44,51.44,0,0,1,1.85-7.73c.42-1.33.87-2.66,1.33-4,.05-.14.28-.08.23.07-1.63,5.35-3.3,10.75-3,16.41.17,2.72.89,5.39.84,8.13a39.22,39.22,0,0,1-1.37,8q-3.87,16.66-8.3,33.17t-9.38,32.88a129.94,129.94,0,0,1-5.39,15.75c-2.29,5.07-5.18,9.86-7.9,14.71q-8.44,15-17.11,29.9c-.73,1.26-1.48,2.51-2.22,3.76C33.4,376.65,33.28,376.58,33.32,376.5Z"/><path class="cls-10" d="M112.75,152.91c6.18,8.6,39.14,25,48.91,24.64,13.79-.56,31.76-8,38.32-11.66,2.85-1.6-3.88-24.28-7.15-23-7,2.67-28.24,11.49-30.85,11.72s-23.64-3.37-34.65-6.59C112.57,143.67,109.63,148.56,112.75,152.91Z"/><path class="cls-10" d="M196.73,138.74c3.93-.61,8.39-1.62,12.47-.77s6.46,6.89,6.17,8.44-3.65,10.91-7.75,10.14-.23-7.72-.22-8.6.06-2-.73-2.06-15.52,3.8-15.52,3.8Z"/><path class="cls-10" d="M196.88,139.36c.24,0,12-2.22,16.1-1.37s6.47,6.89,6.17,8.44-3.65,10.91-7.75,10.14-.22-7.72-.22-8.6.06-2-.73-2.06-15.52,3.8-15.52,3.8Z"/><path class="cls-3" d="M210.11,155.79a5,5,0,0,1-.22-2.55,8.21,8.21,0,0,1,.64-2.58,14.6,14.6,0,0,0,.92-2.16,4.53,4.53,0,0,0-.17-2.28c-.2-.63-.84-.55-1.39-.46a18.17,18.17,0,0,0-2.42.59l-2.56.75a21.69,21.69,0,0,0-2.62.86c-.06,0,0,.13,0,.12a21.66,21.66,0,0,0,2.25-.54l2.55-.63c.79-.19,1.58-.42,2.37-.6a2.49,2.49,0,0,1,1.14-.12c.3.13.31.93.34,1.19a3.94,3.94,0,0,1-.56,2.19,11.15,11.15,0,0,0-.85,2.16,6.11,6.11,0,0,0-.23,2.17,8.83,8.83,0,0,0,.64,1.94C210,155.93,210.16,155.87,210.11,155.79Z"/><path class="cls-10" d="M181.87,147.66s13.3-8.21,16-9.82c5.51-3.23,27-7.62,29.84-7.39s2.77,6.12-11.89,9.49c-7.73,1.78-9.77,5.63-10.06,7.92s1.08,6.93,4.91,7.54,7.35-4.48,11-4.44.1,6-3.08,9.27a23.74,23.74,0,0,1-11.76,6.07c-3.53.62-14.56,3.09-14.56,3.09Z"/><path class="cls-3" d="M216,153.61c-1.64.84-3.54,2-5.44,1.69s-3-1.8-3.61-3.56a7.36,7.36,0,0,1,0-5.46,9,9,0,0,1,3.41-3.78,22.06,22.06,0,0,1,5.81-2.47c.09,0,0-.16-.05-.14-1.9.46-7.78,1.66-9.78,6.28a7.55,7.55,0,0,0,.06,5.57c.55,1.67,1.51,3.37,3.33,3.87,2.22.6,4.5-.86,6.37-1.92C216.14,153.64,216,153.57,216,153.61Z"/><path class="cls-9" d="M194.66,171.66c-.07-.58-7.81-28.27-7.81-28.27s-21.48,9.7-24.57,10.35-32.52-5.46-42.36-7.92c-10.53-2.62-14.17,5.11-.07,14.3s32,17.78,40.28,18.25C168.15,178.83,194.66,171.66,194.66,171.66Z"/><path class="cls-8" d="M169.41,158.58h-1a1.76,1.76,0,0,1-1.76-1.77,1.43,1.43,0,0,0-1.43-1.42h-1.1V155h1.1a1.77,1.77,0,0,1,1.77,1.77,1.43,1.43,0,0,0,1.42,1.42h1ZM194,169.3a1.73,1.73,0,0,0-.95-.28H192v.35h1.1a1.43,1.43,0,0,1,1.11.53C194.15,169.71,194.09,169.51,194,169.3Zm-63.58-3.11-.22.21,1,.54Zm42.31,9.53L172,175a1.41,1.41,0,0,1,0-2,1.77,1.77,0,0,0,0-2.5l-.78-.78-.25.24.78.78a1.41,1.41,0,0,1,0,2,1.77,1.77,0,0,0,0,2.5l.74.74ZM116.7,147.85a1.43,1.43,0,0,1,0-2,1.49,1.49,0,0,0,.34-.49l-.38,0a1.05,1.05,0,0,1-.2.27,1.77,1.77,0,0,0,0,2.5l.74.74.24-.25Zm23.63,11.87a1.42,1.42,0,0,1,2,0,1.75,1.75,0,0,0,1.25.51,1.78,1.78,0,0,0,1.25-.51l.77-.78-.24-.25-.78.78a1.41,1.41,0,0,1-2,0,1.77,1.77,0,0,0-2.5,0l-.74.74.25.24ZM180,162.49a1.43,1.43,0,0,1,2,0,1.76,1.76,0,0,0,2.5,0l.78-.78-.24-.24-.78.78a1.43,1.43,0,0,1-2,0,1.77,1.77,0,0,0-2.5,0L179,163l.24.24Zm-26.48,5.4a1.42,1.42,0,0,1,1.42-1.42,1.77,1.77,0,0,0,1.77-1.77v-1h-.35v1a1.43,1.43,0,0,1-1.42,1.43,1.76,1.76,0,0,0-1.77,1.76V169h.35Zm27.82-15.79a1.43,1.43,0,0,1,1.43-1.42,1.78,1.78,0,0,0,1.77-1.77v-1h-.35v1a1.43,1.43,0,0,1-1.42,1.42A1.77,1.77,0,0,0,181,152.1v1.1h.34Zm-54,2.67a1.43,1.43,0,0,1,1.42-1.43,1.76,1.76,0,0,0,1.77-1.76v-1.05h-.34v1.05a1.43,1.43,0,0,1-1.43,1.42,1.77,1.77,0,0,0-1.77,1.77v1.1h.35Z"/><path class="cls-3" d="M187.37,170.72c-3.08-10.06-4.79-21.1-5.22-23,0-.09.12-.11.14,0,.33,1.89,3.65,14.3,5.24,23C187.55,170.8,187.4,170.82,187.37,170.72Z"/><path class="cls-12" d="M151.21,176.23c-9.09-3.19-21.21-9.5-31.36-16.11s-11.07-12.31-7.08-14.18Z"/><path class="cls-9" d="M79,215.73c.13.16,57.62,1.15,58.16.55.76-.84-7.56-57-17-69.81-2.36-3.19-10.35-3.94-14.17-1.1C87.05,159.44,78.53,215.18,79,215.73Z"/><path class="cls-8" d="M132.7,186.9a1.75,1.75,0,0,1-.61-1.33,1.43,1.43,0,0,0-1.43-1.42h-1.1v-.35h1.1a1.78,1.78,0,0,1,1.63,1.08,1.67,1.67,0,0,1,.14.67v0a1.4,1.4,0,0,0,.12.58ZM92.39,169.15a1.42,1.42,0,0,1-1.32-.91c-.06.14-.12.28-.17.42a1.76,1.76,0,0,0,1.49.84h1v-.35Zm27.4-4.79h-1a1.41,1.41,0,0,1-1.42-1.42,1.78,1.78,0,0,0-1.77-1.77h-1.11v.35h1.11a1.43,1.43,0,0,1,1.42,1.42,1.77,1.77,0,0,0,1.77,1.77h1Zm-13.28,27.8h-1.05a1.43,1.43,0,0,1-1.42-1.42,1.77,1.77,0,0,0-1.77-1.77h-1.1v.34h1.1a1.42,1.42,0,0,1,1.42,1.43,1.77,1.77,0,0,0,1.77,1.76h1.05Zm16.54,23.46h-1a1.43,1.43,0,0,1-1.43-1.42,1.77,1.77,0,0,0-1.76-1.77h-1.11v.35h1.11a1.43,1.43,0,0,1,1.42,1.42A1.77,1.77,0,0,0,122,216h1Zm-35.94-1.7h-1a1.42,1.42,0,0,1-1.43-1.42,1.77,1.77,0,0,0-1.76-1.77H81.77v.35h1.11a1.43,1.43,0,0,1,1.42,1.42,1.77,1.77,0,0,0,1.77,1.77h1Zm34.6-16.5-.74-.74a1.41,1.41,0,0,1,0-2,1.76,1.76,0,0,0,0-2.5l-.78-.78-.24.24.78.78a1.44,1.44,0,0,1,0,2,1.77,1.77,0,0,0,0,2.5l.73.73Zm-5-49.57a1.43,1.43,0,0,1,0-2,1.71,1.71,0,0,0,.52-1.25.66.66,0,0,0,0-.14l-.37-.14a1.42,1.42,0,0,1-.38,1.29,1.77,1.77,0,0,0,0,2.5l.74.74.24-.25ZM92.92,186.3l-.74-.74a1.43,1.43,0,0,1,0-2,1.76,1.76,0,0,0,0-2.5l-.78-.78-.24.24.78.78a1.44,1.44,0,0,1,0,2,1.77,1.77,0,0,0,0,2.5l.74.73ZM128,203.4a1.43,1.43,0,0,1,2,0,1.76,1.76,0,0,0,2.5,0l.78-.78-.25-.24-.77.78a1.44,1.44,0,0,1-2,0,1.77,1.77,0,0,0-2.5,0l-.73.73.24.25ZM91.4,200.09a1.41,1.41,0,0,1,2,0,1.78,1.78,0,0,0,1.25.51,1.75,1.75,0,0,0,1.25-.51l.78-.78-.24-.25-.78.78a1.41,1.41,0,0,1-2,0,1.77,1.77,0,0,0-2.5,0l-.74.74.24.24Zm10.86-25.35a1.42,1.42,0,0,1,2,0,1.78,1.78,0,0,0,2.5,0l.78-.78-.25-.25-.78.78a1.42,1.42,0,0,1-2,0,1.77,1.77,0,0,0-2.5,0l-.74.74.25.24ZM98,215a1.46,1.46,0,0,1,2,0,1.71,1.71,0,0,0,1.25.52,1.75,1.75,0,0,0,1.25-.52l.77-.78L103,214l-.78.78a1.43,1.43,0,0,1-2,0,1.76,1.76,0,0,0-2.5,0l-.74.74.24.24Zm9.54-8.68a1.43,1.43,0,0,1,1.43-1.42,1.77,1.77,0,0,0,1.76-1.77v-1h-.34v1a1.43,1.43,0,0,1-1.42,1.42,1.77,1.77,0,0,0-1.77,1.77v1.1h.34Zm8.21-25.19a1.43,1.43,0,0,1,1.42-1.42,1.77,1.77,0,0,0,1.77-1.77v-1h-.34v1a1.42,1.42,0,0,1-1.43,1.42,1.77,1.77,0,0,0-1.76,1.77v1.1h.34ZM103,159.51a1.41,1.41,0,0,1,1.42-1.42,1.78,1.78,0,0,0,1.77-1.77v-1h-.35v1a1.43,1.43,0,0,1-1.42,1.42,1.77,1.77,0,0,0-1.77,1.77v1.1H103Z"/><polygon class="cls-4" points="121.36 207.61 152.13 211.71 163.75 168.93 132.98 164.83 121.36 207.61"/><polygon class="cls-3" points="122.87 207.81 153.65 211.91 165.26 169.13 134.49 165.03 122.87 207.81"/><path class="cls-8" d="M148.36,187.1a3.35,3.35,0,0,1-3.65,2.56,2.71,2.71,0,0,1-2.33-3.35,3.35,3.35,0,0,1,3.65-2.56A2.72,2.72,0,0,1,148.36,187.1Z"/><path class="cls-10" d="M97.85,152.43c-17.72,18.35-32.47,56.71-24,60.39,7.69,3.36,32.18.52,42.26-1.79,3-.68-2.79-23.63-6-22.9-3.83.87-13.61,2.19-14,2.16-.84-.06,8.39-25.59,11.34-35.4C111.55,141.23,104.51,145.53,97.85,152.43Z"/><path class="cls-10" d="M106.25,190.67s7-5.52,11.73-8.92c2.65-1.9,7.48-4.75,10.06-5.25,3.86-.76,20.49-1.44,20.75,2.59.23,3.64-14.14,2.42-14.14,2.42s14.61,0,14.08,4.4-16.58.9-16.58.9,15,.29,13.73,4.78c-1,3.4-15.67,1-15.67,1s12.89.34,12,3.87c-.92,3.91-14.64,2.55-14.64,2.55-3.65,8.63-8.63,11.6-12.88,12.67C113.75,211.93,106.25,190.67,106.25,190.67Z"/><path class="cls-3" d="M130.29,181.22c10.76-.85,16.29,2,16.13,2a62.1,62.1,0,0,0-11.69-1.59c-1.71-.09-2.73-.24-4.44-.32A0,0,0,0,1,130.29,181.22Z"/><path class="cls-3" d="M129.18,187.39a36.68,36.68,0,0,1,13,.69c.16,0,.11.11-.06.09-2.18-.16-10.75-.67-12.92-.73C129.14,187.44,129.15,187.39,129.18,187.39Z"/><path class="cls-3" d="M127.86,192.64a27.21,27.21,0,0,1,10,.83c.16,0,.07.12-.1.11-3.33-.34-5.94-.63-9.93-.83C127.81,192.75,127.79,192.64,127.86,192.64Z"/><path class="cls-9" d="M97,189.56c-1.2-1,8.59-25.06,11.3-36s-2.36-10.4-10.47-1.62c-8.69,9.39-23.19,30.21-26.63,51.77-1.07,6.73-2.49,11.53,13.1,11.39A178.48,178.48,0,0,0,111.38,213l-3.19-24.67S97.36,189.86,97,189.56Z"/><path class="cls-8" d="M93.44,169.5h-1a1.77,1.77,0,0,1-1.77-1.77,1.43,1.43,0,0,0-1.42-1.43H88.1V166h1.11A1.76,1.76,0,0,1,91,167.73a1.43,1.43,0,0,0,1.43,1.42h1Zm13.07,22.66h-1.05a1.43,1.43,0,0,1-1.42-1.42,1.77,1.77,0,0,0-1.77-1.77h-1.1v.34h1.1a1.42,1.42,0,0,1,1.42,1.43,1.77,1.77,0,0,0,1.77,1.76h1.05Zm-19.4,21.76h-1a1.42,1.42,0,0,1-1.43-1.42,1.77,1.77,0,0,0-1.76-1.77H81.77v.35h1.11a1.43,1.43,0,0,1,1.42,1.42,1.77,1.77,0,0,0,1.77,1.77h1Zm5.81-27.62-.74-.74a1.43,1.43,0,0,1,0-2,1.76,1.76,0,0,0,0-2.5l-.78-.78-.24.24.78.78a1.44,1.44,0,0,1,0,2,1.77,1.77,0,0,0,0,2.5l.74.73Zm-18.84,19-.74-.74a1.41,1.41,0,0,1,0-2,1.76,1.76,0,0,0,0-2.5l-.78-.78-.25.24.78.78a1.42,1.42,0,0,1,0,2,1.77,1.77,0,0,0,0,2.5l.74.73Zm17.32-5.18a1.41,1.41,0,0,1,2,0,1.78,1.78,0,0,0,1.25.51,1.75,1.75,0,0,0,1.25-.51l.78-.78-.24-.25-.78.78a1.41,1.41,0,0,1-2,0,1.77,1.77,0,0,0-2.5,0l-.74.74.24.24Zm-9.93-23-.78.78a1.33,1.33,0,0,1-.84.4l-.18.36a1.73,1.73,0,0,0,1.27-.51l.78-.78Zm16.59,37.37c.54,0,1-.08,1.56-.12a1.63,1.63,0,0,0-.66-.14A1.66,1.66,0,0,0,98.06,214.49ZM103,214l-.09.09.16,0Zm7.19-10.22a1.41,1.41,0,0,1-1.27.79,1.77,1.77,0,0,0-1.77,1.77v1.1h.34v-1.1a1.43,1.43,0,0,1,1.43-1.42,1.72,1.72,0,0,0,1.34-.63h0ZM103,159.51a1.41,1.41,0,0,1,1.42-1.42,1.78,1.78,0,0,0,1.77-1.77v-1h-.35v1a1.43,1.43,0,0,1-1.42,1.42,1.77,1.77,0,0,0-1.77,1.77v1.1H103Zm-24.07,34a1.42,1.42,0,0,1,1.42-1.42,1.77,1.77,0,0,0,1.77-1.77v-1.05h-.35v1.05a1.43,1.43,0,0,1-1.42,1.42,1.77,1.77,0,0,0-1.77,1.77v1.1h.35Z"/><path class="cls-3" d="M105.88,212.7a210,210,0,0,1-2.66-22.15c0-.09.13-.09.14,0,.12,1.81,2,13.81,2.67,22.16C106,212.79,105.9,212.8,105.88,212.7Z"/><path class="cls-3" d="M85.14,191.38a21.07,21.07,0,0,1,3-.58l2.75-.47,1.19-.2h-.11l-1.59-.24c-.53-.09-1.06-.21-1.59-.26-.09,0-.08-.14,0-.13.53.07,1.06.07,1.6.11l1.65.13c.48,0,1,.11,1.45.17.88-.15,1.77-.28,2.66-.4.4-1.74,1-3.47,1.58-5.17s1.17-3.56,1.79-5.32,1.27-3.46,2-5.16c.34-.86,2.18-6.11,2.78-7.48,0-.08.15,0,.12.06-.35,1.39-2.23,6.78-2.5,7.65L101.2,176l.08-.09,1.08-1.42c.72-1,1.44-1.93,2.07-3,0-.08.19,0,.14.09-.6,1.07-1.17,2.15-1.81,3.19-.31.52-.64,1-1,1.54a8.52,8.52,0,0,1-1.11,1.41h0c-.17.52-.33,1.05-.5,1.57q-.86,2.61-1.7,5.24c-.52,1.6-1,3.25-1.55,4.83,1.82-.23,3.64-.43,5.47-.64l2.79-.3c1-.11,2-.1,3-.26.09,0,.11.12,0,.13-1,.1-2,.39-3,.56l-2.75.46c-2,.31-3.89.64-5.84.92s-3.85.48-5.78.69l-2.9.3a20.62,20.62,0,0,1-2.83.22C85.1,191.48,85.09,191.4,85.14,191.38Z"/><path class="cls-3" d="M79.15,214.85a291.25,291.25,0,0,0,32-1.9c.1,0,.12.11,0,.13a143.9,143.9,0,0,1-32.07,2.1A.17.17,0,0,1,79.15,214.85Z"/><path class="cls-10" d="M118.7,154.58c-2.42.89-8.53-3.55-10.16-7.62-.12-.28,2.21-10.62,2.46-12.71,0-.44,12.77,4.75,12.77,4.75a33.68,33.68,0,0,0-2.22,7.9,5.08,5.08,0,0,0,0,.87v.14C121.61,149.58,121.4,153.6,118.7,154.58Z"/><path class="cls-3" d="M111.84,134.41c.11,3.24,1.09,12.39,8.34,13.42a8.17,8.17,0,0,0,1.36.08.61.61,0,0,0,0-.14,6.39,6.39,0,0,1,0-.87,33.83,33.83,0,0,1,2.22-7.91S114.69,135.3,111.84,134.41Z"/><path class="cls-10" d="M109.34,120.51c-1.2,4.8,2,18.33,5.51,21.21,5.1,4.16,13.1,4.18,16.55-1.88,3.35-5.86-1.12-23.42-5-26C120.64,110.05,111.11,113.42,109.34,120.51Z"/><path class="cls-3" d="M123.34,128.59s-.06.06,0,.09c.23.9.35,2-.4,2.45,0,0,0,.06,0,.05C123.88,130.82,123.71,129.4,123.34,128.59Z"/><path class="cls-3" d="M122.32,127.83c-1.48.22-.93,3.16.44,3S123.56,127.64,122.32,127.83Z"/><path class="cls-3" d="M128.35,127.58s.08,0,.09.07c.14.92.45,1.94,1.33,2.09,0,0,0,0,0,0C128.74,129.84,128.34,128.47,128.35,127.58Z"/><path class="cls-3" d="M129,126.48c1.44-.39,2.1,2.53.77,2.89S127.77,126.8,129,126.48Z"/><path class="cls-3" d="M120.84,127.19c.38-.18.71-.4,1.07-.61s.75-.39,1-.84a.62.62,0,0,0-.24-.73,1.56,1.56,0,0,0-1.58.13,2.32,2.32,0,0,0-1.13,1.22A.68.68,0,0,0,120.84,127.19Z"/><path class="cls-3" d="M129.68,124.15a9.87,9.87,0,0,1-1.22-.09,1.93,1.93,0,0,1-1.24-.32.65.65,0,0,1-.1-.77,1.57,1.57,0,0,1,1.48-.57,2.31,2.31,0,0,1,1.54.6A.68.68,0,0,1,129.68,124.15Z"/><path class="cls-3" d="M123.79,137c.26.17.53.42.86.39a2.49,2.49,0,0,0,.94-.42s.06,0,0,0a1.26,1.26,0,0,1-1.06.72,1,1,0,0,1-.87-.68C123.68,137,123.75,137,123.79,137Z"/><path class="cls-3" d="M124.23,134.13a3.16,3.16,0,0,0,2.33,1,3.63,3.63,0,0,0,1.13-.16l.21-.06.19-.07a.22.22,0,0,0,.15-.24h0l0-.09h0l0-.08c-.11-.71-.38-1.76-.38-1.76.28.08,1.7.42,1.61.06a47.29,47.29,0,0,0-3-9.16.08.08,0,0,0-.16,0c.6,2.91,1.72,5.7,2.37,8.61a5.79,5.79,0,0,0-1.55-.17c-.09.05.56,2,.58,2.35a0,0,0,0,1,0,0,4.38,4.38,0,0,1-3.4-.4C124.23,134,124.17,134.07,124.23,134.13Z"/><path class="cls-3" d="M127.21,134.69A3.78,3.78,0,0,1,126,136.1a1.61,1.61,0,0,1-1,.25c-.76,0-.9-.71-.87-1.31a4.15,4.15,0,0,1,.16-.94A4.85,4.85,0,0,0,127.21,134.69Z"/><path class="cls-13" d="M126,136.1a1.61,1.61,0,0,1-1,.25c-.76,0-.9-.71-.87-1.31A1.74,1.74,0,0,1,126,136.1Z"/><path class="cls-3" d="M110.92,132.91s-5.24-7.74-5-12.38c.1-2.1,2.88-3.65,2.88-3.65a4.7,4.7,0,0,1,1.25-4.81c2.35-2.45,8.35-2.23,8.35-2.23s3.6-5.79,9.19-3.84,2.33,8.34,2.33,8.34,2.15,2.75-2.65,5.23-14.56.76-14.56.76a34.18,34.18,0,0,1,.36,10.13A3.12,3.12,0,0,1,110.92,132.91Z"/><path class="cls-3" d="M119.33,109.87a9.65,9.65,0,0,0-3.89-.51,10.4,10.4,0,0,0-3.44.71,5.76,5.76,0,0,0-3.84,4.53,4,4,0,0,0,.91,3s.08,0,.05,0c-1.34-1.51-.8-4,.44-5.36a8.74,8.74,0,0,1,5.68-2.43,17.25,17.25,0,0,1,4.06.23A.06.06,0,0,0,119.33,109.87Z"/><path class="cls-3" d="M131.62,108.45a4.7,4.7,0,0,0-3.4-2.83,8,8,0,0,0-5.18.44,10,10,0,0,0-4.08,3.36s0,.07.05,0a8.89,8.89,0,0,1,8.32-3.58,4.87,4.87,0,0,1,3.63,2.23,4.79,4.79,0,0,1,.08,4.07,9.08,9.08,0,0,1-3.35,3.71s0,.07,0,0a9.29,9.29,0,0,0,3.36-3.17A5.26,5.26,0,0,0,131.62,108.45Z"/><path class="cls-3" d="M128.45,119.77a16.57,16.57,0,0,1-6.83,1.53,33.1,33.1,0,0,1-7.3-.63c-1.41-.26-2.8-.58-4.18-.92,0,0-.06,0,0,.06a36.94,36.94,0,0,0,7.54,1.93,18.59,18.59,0,0,0,7.16-.43,15.75,15.75,0,0,0,3.66-1.5S128.48,119.75,128.45,119.77Z"/><path class="cls-10" d="M112.81,131.48s-3.39-4.19-5.32-2.95.85,7.47,3.27,8.18a2.39,2.39,0,0,0,3.11-1.51Z"/><path class="cls-3" d="M108.33,130.3a0,0,0,0,0,0,.06,6.06,6.06,0,0,1,3.4,3.56,1.32,1.32,0,0,0-2-.22s0,.09,0,.08a1.47,1.47,0,0,1,1.65.4,7.17,7.17,0,0,1,.87,1.25c.09.15.35,0,.28-.12l0,0C112.45,133.17,110.6,130.35,108.33,130.3Z"/></g></g></svg>