<svg width="2311" height="994" viewBox="0 0 2311 994" fill="none" xmlns="http://www.w3.org/2000/svg">
<circle cx="2007.5" cy="303.5" r="302.5" stroke="#3B3BB8" stroke-width="2" stroke-linecap="round" stroke-dasharray="10 10"/>
<path d="M635.102 675.013C635.718 678.033 636.137 681.274 636.346 684.752L635.348 684.812C635.45 686.508 635.502 688.262 635.502 690.077C635.502 691.756 635.49 693.431 635.467 695.1L636.467 695.113C636.421 698.461 636.329 701.787 636.191 705.092L635.192 705.05C635.053 708.399 634.867 711.726 634.635 715.03L635.632 715.1C635.398 718.436 635.117 721.749 634.79 725.038L633.795 724.94C633.464 728.272 633.085 731.581 632.659 734.865L633.651 734.993C633.22 738.317 632.742 741.616 632.217 744.89L631.23 744.732C630.702 748.023 630.126 751.289 629.504 754.528L630.486 754.717C629.852 758.015 629.17 761.287 628.441 764.531L627.465 764.311C626.733 767.566 625.953 770.793 625.126 773.992L626.094 774.242C625.256 777.483 624.37 780.695 623.436 783.877L622.476 783.595C621.536 786.802 620.546 789.979 619.51 793.125L620.46 793.438C619.413 796.614 618.319 799.759 617.177 802.873L616.238 802.528C615.09 805.66 613.893 808.759 612.65 811.827L613.577 812.202C612.319 815.306 611.013 818.376 609.659 821.413L608.746 821.006C607.39 824.048 605.987 827.057 604.538 830.03L605.437 830.469C603.972 833.474 602.46 836.445 600.901 839.38L600.018 838.911C598.455 841.856 596.844 844.764 595.189 847.636L596.055 848.136C594.386 851.03 592.672 853.887 590.911 856.706L590.063 856.177C588.301 859 586.493 861.786 584.64 864.533L585.469 865.092C583.6 867.863 581.687 870.596 579.729 873.288L578.92 872.7C576.964 875.391 574.963 878.042 572.919 880.653L573.707 881.269C571.65 883.897 569.55 886.484 567.407 889.03L566.642 888.386C564.499 890.932 562.314 893.436 560.088 895.899L560.829 896.57C558.592 899.044 556.312 901.477 553.992 903.867L553.275 903.17C550.96 905.555 548.604 907.896 546.209 910.195L546.902 910.916C544.495 913.225 542.049 915.491 539.564 917.713L538.898 916.967C536.421 919.181 533.906 921.351 531.353 923.477L531.992 924.245C529.431 926.378 526.832 928.465 524.196 930.508L523.583 929.717C520.958 931.751 518.297 933.74 515.6 935.683L516.184 936.494C513.482 938.441 510.744 940.343 507.972 942.197L507.416 941.366C504.657 943.212 501.864 945.012 499.038 946.764L499.565 947.614C496.734 949.37 493.87 951.079 490.974 952.741L490.476 951.874C487.6 953.524 484.691 955.128 481.753 956.684L482.221 957.568C479.279 959.125 476.307 960.635 473.305 962.097L472.867 961.198C469.883 962.652 466.87 964.057 463.828 965.415L464.236 966.328C461.199 967.683 458.135 968.991 455.043 970.249L454.666 969.323C451.596 970.573 448.499 971.775 445.376 972.929L445.722 973.867C442.599 975.02 439.451 976.125 436.278 977.181L435.962 976.233C432.819 977.279 429.651 978.277 426.46 979.226L426.745 980.184C423.559 981.132 420.35 982.031 417.119 982.881L416.864 981.914C413.656 982.757 410.426 983.553 407.175 984.299L407.399 985.273C404.161 986.017 400.902 986.711 397.623 987.357L397.43 986.376C394.181 987.016 390.912 987.607 387.624 988.15L387.787 989.136C384.505 989.678 381.203 990.171 377.885 990.615L377.752 989.624C374.471 990.063 371.173 990.453 367.859 990.796L367.961 991.79C364.658 992.131 361.339 992.424 358.004 992.668L357.931 991.671C354.622 991.913 351.298 992.107 347.96 992.252L348.003 993.251C344.69 993.395 341.363 993.492 338.022 993.54L338.008 992.54C336.342 992.564 334.674 992.577 333.002 992.577C331.271 992.577 329.563 992.573 327.877 992.565L327.873 993.565C324.497 993.549 321.211 993.517 318.012 993.469L318.027 992.469C314.734 992.419 311.533 992.353 308.421 992.269L308.394 993.269C304.969 993.177 301.652 993.064 298.438 992.93L298.48 991.931C295.172 991.793 291.974 991.632 288.883 991.449L288.824 992.448C285.402 992.245 282.11 992.015 278.942 991.758L279.023 990.761C275.649 990.486 272.417 990.18 269.321 989.842L269.212 990.836C265.879 990.472 262.701 990.071 259.671 989.633L259.814 988.643C256.372 988.145 253.123 987.599 250.055 987.004L249.865 987.986C246.466 987.327 243.285 986.608 240.305 985.828L240.558 984.861C237.227 983.989 234.155 983.042 231.318 982.019L230.979 982.96C227.699 981.778 224.723 980.494 222.016 979.105L222.473 978.216C219.437 976.658 216.753 974.972 214.366 973.156L213.761 973.951C211.065 971.9 208.733 969.68 206.694 967.287L207.455 966.639C205.376 964.198 203.605 961.571 202.067 958.748L201.189 959.226C199.665 956.431 198.368 953.453 197.224 950.291L198.165 949.951C197.105 947.02 196.176 943.92 195.319 940.645L194.352 940.898C193.561 937.874 192.833 934.71 192.122 931.404L193.099 931.193C192.441 928.133 191.796 924.948 191.128 921.632L190.148 921.83C190.106 921.625 190.065 921.419 190.023 921.212C189.439 918.316 188.836 915.326 188.19 912.24L189.169 912.035C188.52 908.935 187.827 905.738 187.064 902.441L186.09 902.666C185.375 899.573 184.599 896.394 183.743 893.127L184.71 892.874C183.904 889.8 183.027 886.649 182.06 883.419L181.102 883.706C180.198 880.685 179.217 877.596 178.144 874.437L179.09 874.116C178.067 871.104 176.96 868.029 175.758 864.891L174.825 865.248C173.68 862.261 172.45 859.216 171.122 856.113L172.041 855.72C170.79 852.794 169.452 849.818 168.02 846.789L167.116 847.217C165.763 844.355 164.325 841.447 162.795 838.492L163.683 838.032C162.192 835.154 160.614 832.231 158.942 829.263L158.071 829.754C156.531 827.02 154.911 824.248 153.205 821.438L154.06 820.919C152.386 818.161 150.63 815.366 148.787 812.534L147.949 813.079C146.222 810.426 144.419 807.74 142.535 805.022L143.357 804.452C141.52 801.802 139.607 799.12 137.614 796.408L136.808 797C134.931 794.445 132.983 791.863 130.96 789.253L131.75 788.64C129.762 786.075 127.702 783.483 125.567 780.864L124.792 781.496C122.8 779.052 120.742 776.584 118.616 774.093L119.377 773.444C117.247 770.947 115.049 768.426 112.78 765.881L112.034 766.546C109.949 764.208 107.804 761.849 105.598 759.469L106.331 758.789C104.131 756.417 101.87 754.024 99.5462 751.611L98.8259 752.305C96.5926 749.986 94.3009 747.648 91.9492 745.292L92.6571 744.585C90.4144 742.338 88.1174 740.073 85.7645 737.792L85.0683 738.51C82.7193 736.232 80.3143 733.937 77.852 731.624L78.5366 730.895C76.2172 728.717 73.8471 726.524 71.425 724.315L70.7512 725.054C68.393 722.903 65.9854 720.738 63.5273 718.558L64.1908 717.81C61.7293 715.627 59.2173 713.43 56.6536 711.217L56.0003 711.975C53.5959 709.9 51.1459 707.812 48.6494 705.711L49.2933 704.946C46.8502 702.89 44.3626 700.822 41.8298 698.741L41.195 699.514C38.6652 697.436 36.0901 695.345 33.4687 693.241L34.0946 692.461C32.7825 691.408 31.4588 690.352 30.1234 689.293C28.7887 688.235 27.5041 687.144 26.2688 686.022L25.5965 686.762C23.0929 684.489 20.7877 682.087 18.6746 679.566L19.4411 678.923C17.331 676.405 15.415 673.765 13.6866 671.009L12.8394 671.54C11.0701 668.719 9.49487 665.779 8.10682 662.727L9.0171 662.313C7.67839 659.37 6.51526 656.319 5.52182 653.168L4.56808 653.468C3.57431 650.316 2.74901 647.065 2.08606 643.724L3.06694 643.529C2.44213 640.38 1.96257 637.146 1.6234 633.834L0.628602 633.936C0.29317 630.66 0.0940709 627.31 0.0263088 623.892L1.02611 623.872C0.962133 620.644 1.01609 617.353 1.18396 614.002L0.185215 613.952C0.348906 610.685 0.62012 607.364 0.994945 603.993L1.98882 604.103C2.35158 600.84 2.81206 597.529 3.36683 594.173L2.38022 594.01C2.9087 590.813 3.52213 587.577 4.21745 584.305L5.1956 584.513C5.88791 581.255 6.66193 577.961 7.51468 574.633L6.54598 574.385C7.34922 571.25 8.22185 568.087 9.16134 564.897L10.1206 565.18C11.0484 562.03 12.0418 558.854 13.0983 555.654L12.1487 555.341C13.1941 552.175 14.3009 548.987 15.4669 545.779L16.4067 546.121C17.5144 543.073 18.6757 540.007 19.8886 536.925L18.9581 536.559C20.1741 533.468 21.4417 530.362 22.7589 527.242L23.6801 527.631C24.968 524.581 26.3033 521.517 27.6844 518.442L26.7722 518.033C28.1145 515.044 29.4998 512.044 30.9262 509.036L31.8298 509.465C33.2533 506.463 34.7181 503.452 36.2223 500.435L35.3274 499.989C36.8091 497.016 38.329 494.037 39.8854 491.053L40.772 491.515C42.291 488.603 43.8448 485.686 45.4319 482.766L44.5533 482.288C46.143 479.363 47.766 476.435 49.4208 473.506L50.2914 473.998C51.9277 471.102 53.595 468.204 55.2919 465.307L54.429 464.801C56.097 461.953 57.7936 459.105 59.5172 456.259L60.3725 456.777C62.0936 453.936 63.8418 451.096 65.6156 448.259L64.7677 447.729C66.5389 444.896 68.3355 442.067 70.1562 439.243L70.9967 439.785C72.7885 437.006 74.6037 434.231 76.4409 431.462L75.6077 430.909C77.4473 428.137 79.3089 425.371 81.1912 422.612L82.0172 423.176C83.8971 420.421 85.7976 417.674 87.7173 414.935L86.8985 414.361C88.8085 411.637 90.7375 408.921 92.6842 406.216L93.4959 406.8C95.4393 404.1 97.4004 401.41 99.3778 398.731L98.5733 398.137C100.553 395.455 102.549 392.785 104.561 390.128L105.358 390.732C107.372 388.071 109.401 385.424 111.444 382.791L110.654 382.178C112.702 379.539 114.763 376.914 116.838 374.305L117.62 374.928C119.692 372.322 121.776 369.733 123.871 367.161L123.096 366.53C125.207 363.938 127.329 361.364 129.462 358.81L130.229 359.451C132.377 356.878 134.535 354.324 136.701 351.792L135.941 351.142C138.11 348.606 140.288 346.092 142.473 343.6L143.225 344.259C145.42 341.754 147.623 339.273 149.832 336.815L149.088 336.147C151.345 333.636 153.608 331.151 155.875 328.693L156.61 329.371C158.874 326.916 161.143 324.488 163.415 322.088L162.689 321.401C164.975 318.986 167.264 316.601 169.554 314.246L170.271 314.943C172.637 312.51 175.005 310.11 177.373 307.744L176.666 307.037C179.037 304.667 181.408 302.333 183.777 300.034L184.473 300.752C186.855 298.441 189.235 296.167 191.611 293.932L190.926 293.203C193.417 290.86 195.903 288.559 198.384 286.303L199.057 287.042C201.534 284.79 204.005 282.581 206.467 280.42L205.808 279.668C208.324 277.459 210.832 275.299 213.33 273.189L213.975 273.953C216.59 271.744 219.193 269.591 221.782 267.497L221.153 266.719C223.748 264.62 226.329 262.58 228.893 260.6L229.505 261.392C232.206 259.306 234.889 257.289 237.55 255.343L236.96 254.536C239.711 252.523 242.44 250.587 245.143 248.729L245.71 249.553C248.462 247.662 251.186 245.854 253.88 244.131L253.341 243.289C256.282 241.408 259.187 239.629 262.051 237.956L262.556 238.82C265.408 237.154 268.22 235.595 270.986 234.147L270.522 233.261C273.677 231.609 276.775 230.1 279.809 228.74L280.218 229.652C283.264 228.287 286.242 227.075 289.147 226.021L288.806 225.081C292.171 223.861 295.442 222.851 298.609 222.061L298.851 223.032C302.19 222.199 305.404 221.617 308.481 221.296L308.377 220.301C311.81 219.942 315.086 219.901 318.189 220.194L318.095 221.19C321.507 221.512 324.69 222.248 327.627 223.413L327.996 222.483C331.063 223.699 333.882 225.374 336.43 227.532L335.784 228.295C338.107 230.262 340.206 232.652 342.058 235.491L342.896 234.945C344.646 237.628 346.176 240.693 347.469 244.156L346.532 244.506C347.553 247.242 348.428 250.239 349.145 253.506L350.122 253.292C350.812 256.438 351.357 259.825 351.75 263.459L350.756 263.567C351.079 266.555 351.298 269.717 351.41 273.054L352.409 273.021C352.521 276.382 352.524 279.917 352.415 283.631L351.415 283.602C351.327 286.59 351.166 289.696 350.929 292.923L351.926 292.996C351.691 296.205 351.381 299.53 350.994 302.974L350 302.862C349.624 306.218 349.175 309.687 348.651 313.273L349.64 313.418C349.2 316.427 348.708 319.518 348.162 322.69L347.177 322.521C346.632 325.685 346.034 328.933 345.382 332.264L346.363 332.456C345.709 335.794 345.001 339.215 344.237 342.721L343.259 342.508C342.579 345.629 341.855 348.816 341.085 352.072L342.058 352.302C341.337 355.355 340.576 358.468 339.774 361.64L338.805 361.395C338.005 364.563 337.165 367.792 336.284 371.081L337.25 371.34C336.367 374.634 335.444 377.989 334.48 381.405L333.518 381.134C333.036 382.84 332.544 384.562 332.041 386.299C331.547 388.009 331.06 389.709 330.58 391.399L331.542 391.672C330.585 395.047 329.658 398.379 328.762 401.669L327.798 401.407C326.901 404.7 326.034 407.951 325.198 411.161L326.166 411.413C325.331 414.619 324.526 417.783 323.75 420.906L322.78 420.665C321.975 423.905 321.203 427.101 320.462 430.253L321.436 430.481C320.626 433.924 319.855 437.315 319.12 440.654L318.144 440.439C317.408 443.783 316.71 447.076 316.048 450.317L317.027 450.518C316.367 453.754 315.742 456.94 315.154 460.076L314.171 459.891C313.537 463.271 312.944 466.592 312.393 469.857L313.379 470.024C312.795 473.478 312.257 476.867 311.764 480.194L310.775 480.047C310.281 483.381 309.833 486.652 309.428 489.861L310.42 489.986C310.001 493.314 309.629 496.576 309.304 499.771L308.309 499.67C307.949 503.203 307.646 506.657 307.399 510.034L308.397 510.107C308.15 513.473 307.959 516.762 307.822 519.974L306.823 519.931C306.677 523.355 306.593 526.693 306.568 529.947L307.568 529.954C307.541 533.464 307.583 536.875 307.694 540.19L306.695 540.224C306.806 543.553 306.985 546.787 307.23 549.928L308.227 549.85C308.505 553.411 308.868 556.85 309.313 560.172L308.322 560.305C308.774 563.676 309.31 566.927 309.928 570.064L310.909 569.87C311.59 573.325 312.37 576.638 313.245 579.813L312.28 580.079C313.188 583.371 314.196 586.52 315.303 589.529L316.242 589.184C317.455 592.485 318.786 595.615 320.229 598.582L319.33 599.02C320.832 602.11 322.455 605.027 324.192 607.78L325.037 607.247C326.876 610.161 328.843 612.888 330.93 615.436L330.156 616.07C332.338 618.734 334.65 621.207 337.082 623.5L337.768 622.772C340.217 625.081 342.788 627.204 345.474 629.154L344.886 629.963C347.635 631.959 350.499 633.775 353.47 635.424L353.955 634.55C356.859 636.163 359.868 637.615 362.97 638.919L362.582 639.841C365.679 641.143 368.866 642.298 372.135 643.318L372.433 642.364C375.593 643.35 378.831 644.21 382.14 644.956L381.92 645.931C385.164 646.662 388.472 647.282 391.837 647.802L391.99 646.814C395.281 647.322 398.629 647.735 402.026 648.062L401.93 649.057C405.232 649.375 408.578 649.611 411.962 649.775L412.01 648.776C415.33 648.937 418.687 649.028 422.076 649.058L422.067 650.058C425.409 650.087 428.78 650.057 432.174 649.975L432.15 648.975C435.474 648.895 438.82 648.765 442.183 648.593L442.234 649.591C445.586 649.42 448.953 649.207 452.332 648.96L452.259 647.962C455.583 647.719 458.919 647.442 462.26 647.139L462.35 648.135C465.694 647.832 469.042 647.502 472.389 647.154L472.285 646.159C475.62 645.812 478.955 645.445 482.284 645.067L482.397 646.06C485.741 645.68 489.078 645.288 492.404 644.89L492.286 643.897C495.625 643.499 498.952 643.094 502.263 642.692L502.383 643.685L502.514 643.669C505.828 643.266 509.124 642.866 512.397 642.475L512.279 641.482C515.616 641.083 518.929 640.694 522.213 640.322L522.326 641.315C525.714 640.931 529.07 640.566 532.387 640.227L532.286 639.232C535.658 638.888 538.991 638.571 542.278 638.291L542.363 639.287C545.75 638.998 549.087 638.747 552.366 638.545L552.305 637.547C555.737 637.335 559.108 637.176 562.409 637.081L562.438 638.08C565.836 637.982 569.157 637.952 572.391 638.001L572.406 637.001C575.852 637.053 579.203 637.195 582.448 637.442L582.372 638.439C585.826 638.701 589.154 639.082 592.342 639.599L592.502 638.612C595.935 639.169 599.212 639.882 602.318 640.772L602.042 641.734C605.324 642.675 608.403 643.816 611.26 645.18L611.69 644.278C614.78 645.752 617.623 647.487 620.196 649.513L619.578 650.299C622.132 652.31 624.41 654.614 626.389 657.243L627.188 656.641C629.136 659.229 630.802 662.124 632.164 665.356L631.242 665.745C632.45 668.613 633.417 671.76 634.122 675.213L635.102 675.013Z" stroke="#3B3BB8" stroke-width="2" stroke-dasharray="10 10"/>
</svg>
