<svg width="1608" height="694" viewBox="0 0 1608 694" fill="none" xmlns="http://www.w3.org/2000/svg">
<path d="M625.724 270.666C625.724 273.856 623.204 276.401 620.145 276.401C617.086 276.401 614.566 273.856 614.566 270.666C614.566 267.476 617.086 264.931 620.145 264.931C623.204 264.931 625.724 267.476 625.724 270.666Z" stroke="#3B3BB8" stroke-width="2"/>
<path d="M1557 444.288C1557 447.478 1554.48 450.024 1551.42 450.024C1548.36 450.024 1545.84 447.478 1545.84 444.288C1545.84 441.099 1548.36 438.553 1551.42 438.553C1554.48 438.553 1557 441.099 1557 444.288Z" stroke="#3B3BB8" stroke-width="2"/>
<path d="M46.7832 466.74C46.7832 469.93 44.2635 472.475 41.2044 472.475C38.1453 472.475 35.6255 469.93 35.6255 466.74C35.6255 463.55 38.1453 461.004 41.2044 461.004C44.2635 461.004 46.7832 463.55 46.7832 466.74Z" stroke="#3B3BB8" stroke-width="2"/>
<path d="M761.226 232.499L772.921 220.525" stroke="#3B3BB8" stroke-width="2"/>
<path d="M761.226 220.525L772.921 232.499" stroke="#3B3BB8" stroke-width="2"/>
<path d="M598.946 141.197H613.566" stroke="#3B3BB8" stroke-width="2"/>
<path d="M606.256 133.714V148.681" stroke="#3B3BB8" stroke-width="2"/>
<path d="M283.161 63.3666H297.78" stroke="#3B3BB8" stroke-width="2"/>
<path d="M290.471 55.8829V70.8503" stroke="#3B3BB8" stroke-width="2"/>
<path d="M1240.02 582.738L1248.06 575.254H1231.98L1240.02 582.738Z" stroke="#3B3BB8" stroke-width="2"/>
<path d="M548.509 692L556.549 684.516H540.468L548.509 692Z" stroke="#3B3BB8" stroke-width="2"/>
<path d="M1 239.983L15.6197 228.009L28.0465 248.963L42.6662 228.009" stroke="#3B3BB8" stroke-width="2"/>
<path d="M850.406 683.02L865.025 671.046L877.452 692L892.072 671.046" stroke="#3B3BB8" stroke-width="2"/>
<path d="M1370.87 13.974L1385.49 2L1397.91 22.9544L1412.53 2" stroke="#3B3BB8" stroke-width="2"/>
<path d="M1605.41 84.4999C1606.54 87.8947 1607.32 91.4351 1607.71 95.0836L1607.21 95.1369C1607.4 96.9004 1607.5 98.6895 1607.5 100.5C1607.5 102.311 1607.4 104.1 1607.21 105.863L1607.71 105.916C1607.32 109.565 1606.54 113.105 1605.41 116.5L1604.93 116.342C1603.79 119.757 1602.3 123.023 1600.48 126.102L1600.91 126.356C1599.08 129.468 1596.93 132.389 1594.49 135.082L1594.12 134.747C1591.73 137.391 1589.07 139.813 1586.18 141.974L1586.48 142.375C1583.61 144.521 1580.51 146.413 1577.23 148.013L1577.01 147.564C1573.82 149.116 1570.46 150.392 1566.95 151.357L1567.09 151.839C1563.66 152.785 1560.09 153.436 1556.42 153.761L1556.38 153.263C1554.61 153.42 1552.81 153.5 1551 153.5C1549.19 153.5 1547.39 153.42 1545.62 153.263L1545.58 153.761C1541.91 153.436 1538.34 152.785 1534.91 151.839L1535.05 151.357C1531.54 150.392 1528.18 149.116 1524.99 147.564L1524.77 148.013C1521.49 146.413 1518.39 144.521 1515.52 142.375L1515.82 141.974C1512.93 139.813 1510.27 137.391 1507.88 134.747L1507.51 135.082C1505.07 132.389 1502.92 129.468 1501.09 126.356L1501.52 126.102C1499.7 123.023 1498.21 119.757 1497.07 116.342L1496.59 116.5C1495.46 113.105 1494.68 109.565 1494.29 105.916L1494.79 105.863C1494.6 104.1 1494.5 102.311 1494.5 100.5C1494.5 98.6895 1494.6 96.9004 1494.79 95.1369L1494.29 95.0836C1494.68 91.4351 1495.46 87.8947 1496.59 84.4999L1497.07 84.658C1498.21 81.2435 1499.7 77.977 1501.52 74.8975L1501.09 74.6437C1502.92 71.5323 1505.07 68.6106 1507.51 65.9178L1507.88 66.253C1510.27 63.6088 1512.93 61.187 1515.82 59.0255L1515.52 58.625C1518.39 56.4787 1521.49 54.5872 1524.77 52.9868L1524.99 53.4363C1528.18 51.8843 1531.54 50.6084 1535.05 49.6425L1534.91 49.1605C1538.34 48.2146 1541.91 47.5636 1545.58 47.2388L1545.62 47.7369C1547.39 47.5802 1549.19 47.5 1551 47.5C1552.81 47.5 1554.61 47.5802 1556.38 47.7369L1556.42 47.2388C1560.09 47.5636 1563.66 48.2146 1567.09 49.1605L1566.95 49.6425C1570.46 50.6084 1573.82 51.8843 1577.01 53.4363L1577.23 52.9868C1580.51 54.5872 1583.61 56.4787 1586.48 58.625L1586.18 59.0255C1589.07 61.187 1591.73 63.6088 1594.12 66.253L1594.49 65.9178C1596.93 68.6106 1599.08 71.5323 1600.91 74.6437L1600.48 74.8975C1602.3 77.977 1603.79 81.2435 1604.93 84.658L1605.41 84.4999Z" stroke="#3B3BB8" stroke-dasharray="12 12"/>
</svg>
