<svg width="122" height="22" viewBox="0 0 122 22" fill="none" xmlns="http://www.w3.org/2000/svg">
<path d="M11 1L14.09 7.26L21 8.27L16 13.14L17.18 20.02L11 16.77L4.82 20.02L6 13.14L1 8.27L7.91 7.26L11 1Z" fill="#EAEE1F"/>
<path d="M11 1L14.09 7.26L21 8.27L16 13.14L17.18 20.02L11 16.77L4.82 20.02L6 13.14L1 8.27L7.91 7.26L11 1Z" stroke="#EAEE1F" stroke-width="2" stroke-linecap="round" stroke-linejoin="round" style="mix-blend-mode:darken"/>
<path d="M36 1L39.09 7.26L46 8.27L41 13.14L42.18 20.02L36 16.77L29.82 20.02L31 13.14L26 8.27L32.91 7.26L36 1Z" fill="#EAEE1F"/>
<path d="M36 1L39.09 7.26L46 8.27L41 13.14L42.18 20.02L36 16.77L29.82 20.02L31 13.14L26 8.27L32.91 7.26L36 1Z" stroke="#EAEE1F" stroke-width="2" stroke-linecap="round" stroke-linejoin="round" style="mix-blend-mode:darken"/>
<path d="M61 1L64.09 7.26L71 8.27L66 13.14L67.18 20.02L61 16.77L54.82 20.02L56 13.14L51 8.27L57.91 7.26L61 1Z" fill="#EAEE1F"/>
<path d="M61 1L64.09 7.26L71 8.27L66 13.14L67.18 20.02L61 16.77L54.82 20.02L56 13.14L51 8.27L57.91 7.26L61 1Z" stroke="#EAEE1F" stroke-width="2" stroke-linecap="round" stroke-linejoin="round" style="mix-blend-mode:darken"/>
<path d="M86 1L89.09 7.26L96 8.27L91 13.14L92.18 20.02L86 16.77L79.82 20.02L81 13.14L76 8.27L82.91 7.26L86 1Z" fill="#EAEE1F"/>
<path d="M86 1L89.09 7.26L96 8.27L91 13.14L92.18 20.02L86 16.77L79.82 20.02L81 13.14L76 8.27L82.91 7.26L86 1Z" stroke="#EAEE1F" stroke-width="2" stroke-linecap="round" stroke-linejoin="round" style="mix-blend-mode:darken"/>
<path d="M111 1L114.09 7.26L121 8.27L116 13.14L117.18 20.02L111 16.77L104.82 20.02L106 13.14L101 8.27L107.91 7.26L111 1Z" fill="#EAEE1F"/>
<path d="M111 1L114.09 7.26L121 8.27L116 13.14L117.18 20.02L111 16.77L104.82 20.02L106 13.14L101 8.27L107.91 7.26L111 1Z" stroke="#EAEE1F" stroke-width="2" stroke-linecap="round" stroke-linejoin="round" style="mix-blend-mode:darken"/>
</svg>
