<svg width="312" height="385" viewBox="0 0 312 385" fill="none" xmlns="http://www.w3.org/2000/svg">
<g filter="url(#filter0_d_2_661)">
<rect x="1" y="1" width="310" height="379" rx="13" fill="#3B3BB8" stroke="white" stroke-width="2"/>
<path fill-rule="evenodd" clip-rule="evenodd" d="M12 48.8975V106.506L127.735 169.121C131.135 170.96 132.4 175.208 130.56 178.608L119.616 198.838C117.776 202.238 113.529 203.503 110.128 201.663L12 148.574V167.918L157.129 246.436C160.529 248.275 161.794 252.523 159.955 255.924L151.543 271.472C149.703 274.872 145.455 276.137 142.055 274.298L12 203.935V222.531L19.0331 226.336C22.4333 228.176 23.6985 232.424 21.8588 235.824L12 254.046V306.628L123.588 367H165.889L136.88 351.306C133.48 349.466 132.215 345.218 134.054 341.818L175.986 264.315C177.825 260.915 182.073 259.649 185.473 261.489L216.257 278.144C219.657 279.983 220.922 284.231 219.082 287.631L177.151 365.134C176.761 365.855 176.263 366.48 175.688 367H194.332L234.138 293.424C235.978 290.024 240.225 288.759 243.626 290.598L290.241 315.818C293.641 317.658 294.906 321.906 293.066 325.306L270.509 367H294C297.314 367 300 364.314 300 361V356.723C297.837 354.592 297.242 351.211 298.76 348.407L300 346.114V302.446C299.228 302.327 298.463 302.075 297.737 301.683L251.122 276.463C247.722 274.623 246.457 270.375 248.296 266.975L300 171.409V124.482C299.773 124.388 299.549 124.282 299.328 124.162L235.95 89.8736C232.55 88.034 231.285 83.7862 233.125 80.386L266.434 18.819C268.273 15.4187 272.521 14.1536 275.921 15.9932L300 29.0203V20C300 16.6863 297.314 14 294 14H250.317L218.603 72.6185C216.763 76.0188 212.516 77.2839 209.115 75.4443L187.127 63.5481C183.727 61.7085 182.462 57.4608 184.301 54.0605L205.975 14H166.899L176.898 19.4094C180.298 21.249 181.563 25.4968 179.724 28.897L170.207 46.4876C168.367 49.8878 164.119 51.153 160.719 49.3133L138.731 37.4172C135.331 35.5776 134.065 31.3298 135.905 27.9296L143.441 14H125.249L122.275 19.4972C120.435 22.8974 116.188 24.1626 112.787 22.323L97.4038 14H63.7799L105.174 36.3953C108.574 38.2349 109.84 42.4827 108 45.883L97.0554 66.1121C95.2158 69.5123 90.9681 70.7775 87.5678 68.9379L40.9528 43.718C37.5526 41.8784 36.2874 37.6306 38.1271 34.2304L49.0715 14.0012C49.0717 14.0008 49.072 14.0004 49.0722 14H30.8804L12 48.8975ZM57.0156 367L12 342.645V360.578L23.8695 367H57.0156ZM33.3389 57.7905C29.9387 55.9508 25.6909 57.216 23.8513 60.6162L12.9068 80.8454C11.0672 84.2456 12.3323 88.4934 15.7326 90.333L62.3476 115.553C65.7479 117.392 69.9956 116.127 71.8352 112.727L82.7797 92.4979C84.6193 89.0977 83.3542 84.8499 79.9539 83.0103L33.3389 57.7905ZM45.7681 240.137C42.3679 238.298 38.1201 239.563 36.2805 242.963L17.0629 278.484C15.2232 281.884 16.4884 286.132 19.8887 287.972L110.131 336.795C113.531 338.635 117.779 337.369 119.619 333.969L138.836 298.448C140.676 295.048 139.411 290.8 136.011 288.961L45.7681 240.137ZM131.118 51.4896C127.717 49.6499 123.47 50.9151 121.63 54.3153L85.4658 121.159C83.6262 124.56 84.8913 128.807 88.2915 130.647L134.907 155.867C138.307 157.707 142.555 156.441 144.394 153.041L180.558 86.197C182.398 82.7968 181.133 78.549 177.733 76.7094L131.118 51.4896ZM204.151 90.9238C200.751 89.0841 196.503 90.3493 194.664 93.7495L133.28 207.209C131.44 210.609 132.705 214.857 136.105 216.696L166.889 233.351C170.289 235.191 174.537 233.925 176.376 230.525L237.761 117.066C239.6 113.666 238.335 109.418 234.935 107.578L204.151 90.9238ZM261.42 122.936C258.02 121.096 253.772 122.361 251.933 125.761L190.549 239.221C188.709 242.621 189.974 246.869 193.374 248.708L224.158 265.363C227.558 267.203 231.806 265.937 233.646 262.537L295.03 149.078C296.869 145.678 295.604 141.43 292.204 139.59L261.42 122.936Z" fill="white"/>
<g style="mix-blend-mode:difference">
<path d="M167.5 105V229.5C167.5 231.157 168.843 232.5 170.5 232.5H215.5" stroke="#42FF00" stroke-width="2" stroke-linecap="round" stroke-dasharray="18 18"/>
</g>
<g filter="url(#filter1_d_2_661)">
<circle cx="166.5" cy="91.5" r="13.5" fill="white"/>
<circle cx="166.5" cy="91.5" r="11.5" stroke="#3B3BB8" stroke-width="4"/>
</g>
<path d="M173 90.5455C173 95.6364 166.5 100 166.5 100C166.5 100 160 95.6364 160 90.5455C160 88.8095 160.685 87.1446 161.904 85.9171C163.123 84.6896 164.776 84 166.5 84C168.224 84 169.877 84.6896 171.096 85.9171C172.315 87.1446 173 88.8095 173 90.5455Z" fill="#3B3BB8"/>
<path d="M166.5 93C167.881 93 169 91.8807 169 90.5C169 89.1193 167.881 88 166.5 88C165.119 88 164 89.1193 164 90.5C164 91.8807 165.119 93 166.5 93Z" fill="white"/>
</g>
<defs>
<filter id="filter0_d_2_661" x="0" y="0" width="312" height="385" filterUnits="userSpaceOnUse" color-interpolation-filters="sRGB">
<feFlood flood-opacity="0" result="BackgroundImageFix"/>
<feColorMatrix in="SourceAlpha" type="matrix" values="0 0 0 0 0 0 0 0 0 0 0 0 0 0 0 0 0 0 127 0" result="hardAlpha"/>
<feOffset dy="4"/>
<feComposite in2="hardAlpha" operator="out"/>
<feColorMatrix type="matrix" values="0 0 0 0 0 0 0 0 0 0 0 0 0 0 0 0 0 0 0.25 0"/>
<feBlend mode="normal" in2="BackgroundImageFix" result="effect1_dropShadow_2_661"/>
<feBlend mode="normal" in="SourceGraphic" in2="effect1_dropShadow_2_661" result="shape"/>
</filter>
<filter id="filter1_d_2_661" x="153" y="78" width="27" height="29" filterUnits="userSpaceOnUse" color-interpolation-filters="sRGB">
<feFlood flood-opacity="0" result="BackgroundImageFix"/>
<feColorMatrix in="SourceAlpha" type="matrix" values="0 0 0 0 0 0 0 0 0 0 0 0 0 0 0 0 0 0 127 0" result="hardAlpha"/>
<feOffset dy="2"/>
<feComposite in2="hardAlpha" operator="out"/>
<feColorMatrix type="matrix" values="0 0 0 0 0 0 0 0 0 0 0 0 0 0 0 0 0 0 0.25 0"/>
<feBlend mode="normal" in2="BackgroundImageFix" result="effect1_dropShadow_2_661"/>
<feBlend mode="normal" in="SourceGraphic" in2="effect1_dropShadow_2_661" result="shape"/>
</filter>
</defs>
</svg>
