<svg width="433" height="221" viewBox="0 0 433 221" fill="none" xmlns="http://www.w3.org/2000/svg">
<g filter="url(#filter0_d_2_790)">
<rect x="1" y="1" width="431" height="215" rx="13" fill="#3B3BB8" fill-opacity="0.9" stroke="white" stroke-width="2"/>
<path d="M2 22H431" stroke="white" stroke-width="2" stroke-linecap="square"/>
<path d="M224.605 126.794C224.973 126.056 226.027 126.056 226.395 126.794L227.893 129.798C228.039 130.091 228.32 130.294 228.645 130.341L231.979 130.823C232.802 130.942 233.128 131.956 232.53 132.533L230.132 134.844C229.893 135.075 229.784 135.408 229.841 135.735L230.408 139.01C230.549 139.825 229.695 140.45 228.961 140.067L225.962 138.506C225.672 138.356 225.328 138.356 225.038 138.506L222.039 140.067C221.305 140.45 220.451 139.825 220.592 139.01L221.159 135.735C221.216 135.408 221.107 135.075 220.868 134.844L218.47 132.533C217.872 131.956 218.198 130.942 219.021 130.823L222.355 130.341C222.68 130.294 222.961 130.091 223.107 129.798L224.605 126.794Z" fill="#6E6EE6"/>
<path d="M274.605 126.794C274.973 126.056 276.027 126.056 276.395 126.794L277.893 129.798C278.039 130.091 278.32 130.294 278.645 130.341L281.979 130.823C282.802 130.942 283.128 131.956 282.53 132.533L280.132 134.844C279.893 135.075 279.784 135.408 279.841 135.735L280.408 139.01C280.549 139.825 279.695 140.45 278.961 140.067L275.962 138.506C275.672 138.356 275.328 138.356 275.038 138.506L272.039 140.067C271.305 140.45 270.451 139.825 270.592 139.01L271.159 135.735C271.216 135.408 271.107 135.075 270.868 134.844L268.47 132.533C267.872 131.956 268.198 130.942 269.021 130.823L272.355 130.341C272.68 130.294 272.961 130.091 273.107 129.798L274.605 126.794Z" fill="#6E6EE6"/>
<path d="M299.605 126.794C299.973 126.056 301.027 126.056 301.395 126.794L302.893 129.798C303.039 130.091 303.32 130.294 303.645 130.341L306.979 130.823C307.802 130.942 308.128 131.956 307.53 132.533L305.132 134.844C304.893 135.075 304.784 135.408 304.841 135.735L305.408 139.01C305.549 139.825 304.695 140.45 303.961 140.067L300.962 138.506C300.672 138.356 300.328 138.356 300.038 138.506L297.039 140.067C296.305 140.45 295.451 139.825 295.592 139.01L296.159 135.735C296.216 135.408 296.107 135.075 295.868 134.844L293.47 132.533C292.872 131.956 293.198 130.942 294.021 130.823L297.355 130.341C297.68 130.294 297.961 130.091 298.107 129.798L299.605 126.794Z" fill="#6E6EE6"/>
<path d="M249.605 126.794C249.973 126.056 251.027 126.056 251.395 126.794L252.893 129.798C253.039 130.091 253.32 130.294 253.645 130.341L256.979 130.823C257.802 130.942 258.128 131.956 257.53 132.533L255.132 134.844C254.893 135.075 254.784 135.408 254.841 135.735L255.408 139.01C255.549 139.825 254.695 140.45 253.961 140.067L250.962 138.506C250.672 138.356 250.328 138.356 250.038 138.506L247.039 140.067C246.305 140.45 245.451 139.825 245.592 139.01L246.159 135.735C246.216 135.408 246.107 135.075 245.868 134.844L243.47 132.533C242.872 131.956 243.198 130.942 244.021 130.823L247.355 130.341C247.68 130.294 247.961 130.091 248.107 129.798L249.605 126.794Z" fill="#6E6EE6"/>
<rect x="12" y="29" width="191" height="177" rx="8" fill="black" fill-opacity="0.2"/>
<path d="M217 35H391.5C394.538 35 397 37.4624 397 40.5V40.5C397 43.5376 394.538 46 391.5 46H217V35Z" fill="#6E6EE7"/>
<path d="M217 54H319.5C322.538 54 325 56.4624 325 59.5V59.5C325 62.5376 322.538 65 319.5 65H217V54Z" fill="#6E6EE7"/>
<path d="M217 73H346.5C349.538 73 352 75.4624 352 78.5V78.5C352 81.5376 349.538 84 346.5 84H217V73Z" fill="#6E6EE7"/>
<path d="M217 92H283.5C286.538 92 289 94.4624 289 97.5V97.5C289 100.538 286.538 103 283.5 103H217V92Z" fill="#6E6EE7"/>
<path d="M217 152H283.5C286.538 152 289 154.462 289 157.5V157.5C289 160.538 286.538 163 283.5 163H217V152Z" fill="#6E6EE7"/>
<circle cx="412" cy="12" r="5" fill="white"/>
<circle cx="394" cy="12" r="5" fill="white"/>
<circle cx="377" cy="12" r="5" fill="white"/>
<path d="M217 172H391.5C394.538 172 397 174.462 397 177.5V177.5C397 180.538 394.538 183 391.5 183H217V172Z" fill="#6E6EE7"/>
<path d="M217 191H415.5C418.538 191 421 193.462 421 196.5V196.5C421 199.538 418.538 202 415.5 202H217V191Z" fill="#6E6EE7"/>
</g>
<defs>
<filter id="filter0_d_2_790" x="0" y="0" width="433" height="221" filterUnits="userSpaceOnUse" color-interpolation-filters="sRGB">
<feFlood flood-opacity="0" result="BackgroundImageFix"/>
<feColorMatrix in="SourceAlpha" type="matrix" values="0 0 0 0 0 0 0 0 0 0 0 0 0 0 0 0 0 0 127 0" result="hardAlpha"/>
<feOffset dy="4"/>
<feComposite in2="hardAlpha" operator="out"/>
<feColorMatrix type="matrix" values="0 0 0 0 0 0 0 0 0 0 0 0 0 0 0 0 0 0 0.25 0"/>
<feBlend mode="normal" in2="BackgroundImageFix" result="effect1_dropShadow_2_790"/>
<feBlend mode="normal" in="SourceGraphic" in2="effect1_dropShadow_2_790" result="shape"/>
</filter>
</defs>
</svg>
