<svg width="375" height="369" viewBox="0 0 375 369" fill="none" xmlns="http://www.w3.org/2000/svg">
<g filter="url(#filter0_d_2_809)">
<rect y="0.5" width="375" height="364" rx="40" fill="white"/>
<rect x="164" y="16.5" width="47" height="8" rx="4" fill="#3B3BB8"/>
<rect width="375" height="68" transform="translate(0 48.5)" fill="white"/>
<rect x="24" y="64.5" width="196" height="12" rx="6" fill="#9090CD"/>
<rect x="24" y="88.5" width="146" height="12" rx="6" fill="#9090CD"/>
<rect x="292" y="65.5" width="58" height="34" rx="17" fill="#F3F3FF" stroke="#3B3BB8" stroke-width="2"/>
<circle cx="333" cy="82.5" r="14" fill="#3B3BB8"/>
<rect width="375" height="68" transform="translate(0 116.5)" fill="white"/>
<rect x="24" y="132.5" width="196" height="12" rx="6" fill="#9090CD"/>
<rect x="24" y="156.5" width="146" height="12" rx="6" fill="#9090CD"/>
<rect x="291" y="132.5" width="60" height="36" rx="18" fill="#3B3BB8"/>
<circle cx="309" cy="150.5" r="13" fill="#D6F5FF" stroke="#3B3BB8" stroke-width="2"/>
<rect width="375" height="68" transform="translate(0 184.5)" fill="white"/>
<rect x="24" y="200.5" width="196" height="12" rx="6" fill="#9090CD"/>
<rect x="24" y="224.5" width="146" height="12" rx="6" fill="#9090CD"/>
<rect x="291" y="200.5" width="60" height="36" rx="18" fill="#3B3BB8"/>
<circle cx="309" cy="218.5" r="13" fill="#D6F5FF" stroke="#0072B1" stroke-width="2"/>
<rect x="24" y="276.5" width="327" height="52" rx="12" fill="#3B3BB8"/>
<rect x="152" y="296.5" width="71" height="12" rx="6" fill="white"/>
</g>
<defs>
<filter id="filter0_d_2_809" x="0" y="0.5" width="375" height="368" filterUnits="userSpaceOnUse" color-interpolation-filters="sRGB">
<feFlood flood-opacity="0" result="BackgroundImageFix"/>
<feColorMatrix in="SourceAlpha" type="matrix" values="0 0 0 0 0 0 0 0 0 0 0 0 0 0 0 0 0 0 127 0" result="hardAlpha"/>
<feOffset dy="4"/>
<feComposite in2="hardAlpha" operator="out"/>
<feColorMatrix type="matrix" values="0 0 0 0 0 0 0 0 0 0 0 0 0 0 0 0 0 0 0.25 0"/>
<feBlend mode="normal" in2="BackgroundImageFix" result="effect1_dropShadow_2_809"/>
<feBlend mode="normal" in="SourceGraphic" in2="effect1_dropShadow_2_809" result="shape"/>
</filter>
</defs>
</svg>
