<svg width="1646" height="716" viewBox="0 0 1646 716" fill="none" xmlns="http://www.w3.org/2000/svg">
<g style="mix-blend-mode:overlay">
<path d="M173.605 556.884L173.604 556.86C173.571 556.163 173.536 555.469 173.5 554.778L172.501 554.83C172.43 553.452 172.355 552.088 172.275 550.739L173.274 550.68C173.194 549.329 173.111 547.991 173.023 546.668L172.025 546.734C171.938 545.413 171.847 544.106 171.752 542.814L172.749 542.74C172.654 541.445 172.555 540.164 172.452 538.897L171.455 538.978C171.345 537.625 171.23 536.287 171.112 534.966L172.108 534.876C171.984 533.503 171.856 532.147 171.723 530.807L170.728 530.905C170.596 529.568 170.459 528.248 170.317 526.945L171.311 526.837C171.169 525.53 171.022 524.239 170.871 522.965L169.878 523.083C169.723 521.775 169.563 520.484 169.399 519.21L170.39 519.082C170.212 517.7 170.028 516.338 169.838 514.996L168.848 515.135C168.659 513.797 168.464 512.478 168.265 511.178L169.253 511.026C169.053 509.722 168.847 508.438 168.636 507.172L167.649 507.337C167.431 506.028 167.207 504.739 166.977 503.471L167.961 503.293C167.713 501.923 167.458 500.576 167.197 499.252L166.216 499.446C165.956 498.127 165.69 496.831 165.417 495.558L166.395 495.349C166.121 494.07 165.841 492.814 165.555 491.58L164.581 491.806C164.268 490.46 163.949 489.14 163.622 487.847L164.591 487.602C164.256 486.274 163.912 484.973 163.561 483.698L162.597 483.964C162.248 482.696 161.892 481.456 161.528 480.241L162.486 479.954C162.092 478.636 161.689 477.348 161.277 476.089L160.326 476.4C159.902 475.101 159.468 473.834 159.026 472.599L159.968 472.262C159.522 471.018 159.068 469.805 158.605 468.622L157.674 468.986C157.168 467.694 156.652 466.439 156.126 465.22L157.045 464.824C156.506 463.574 155.956 462.361 155.396 461.183L154.493 461.613C153.917 460.401 153.33 459.229 152.733 458.094L153.618 457.628C152.97 456.398 152.31 455.211 151.638 454.065L150.776 454.571C150.106 453.428 149.424 452.328 148.731 451.269L149.567 450.722C148.799 449.547 148.016 448.422 147.22 447.344L146.415 447.938C145.627 446.87 144.825 445.85 144.011 444.875L144.779 444.234C143.882 443.159 142.969 442.138 142.042 441.168L141.319 441.859C140.396 440.894 139.458 439.98 138.507 439.115L139.18 438.375C138.156 437.445 137.116 436.569 136.061 435.747L135.446 436.535C134.389 435.711 133.317 434.94 132.231 434.22L132.784 433.387C131.646 432.633 130.494 431.933 129.328 431.284L128.842 432.158C127.672 431.506 126.488 430.907 125.291 430.356L125.71 429.447C124.48 428.881 123.238 428.364 121.984 427.893L121.632 428.829C120.387 428.361 119.129 427.939 117.861 427.558L118.148 426.6C116.859 426.212 115.559 425.867 114.251 425.56L114.022 426.533C112.732 426.23 111.432 425.963 110.123 425.73L110.299 424.745C108.982 424.51 107.657 424.308 106.327 424.134L106.197 425.125C104.886 424.954 103.567 424.81 102.242 424.69L102.332 423.694C101.003 423.573 99.6686 423.476 98.3307 423.399L98.2729 424.397C96.9534 424.321 95.6291 424.264 94.3011 424.221L94.3331 423.222C93.0015 423.179 91.6671 423.151 90.3314 423.135L90.3189 424.135C88.9957 424.118 87.6701 424.112 86.343 424.113L86.3422 423.113C85.0131 423.114 83.6833 423.122 82.3544 423.133L82.3625 424.133C81.3806 424.141 80.3986 424.15 79.4168 424.16C79.0726 424.163 78.7285 424.166 78.3845 424.17L78.375 423.17C77.0471 423.182 75.7214 423.194 74.3982 423.2L74.4032 424.2C73.0754 424.207 71.7495 424.209 70.4266 424.202L70.4321 423.202C69.1062 423.194 67.7846 423.178 66.468 423.149L66.4458 424.149C65.1152 424.119 63.7888 424.077 62.4678 424.017L62.5131 423.018C61.1946 422.958 59.8829 422.881 58.5787 422.783L58.5035 423.78C57.1735 423.679 55.8503 423.557 54.535 423.409L54.6473 422.415C53.3397 422.267 52.0413 422.093 50.7533 421.889L50.5967 422.877C49.2834 422.668 47.9794 422.429 46.6861 422.154L46.8943 421.175C45.6138 420.903 44.3452 420.595 43.0896 420.248L42.8229 421.211C41.546 420.858 40.2811 420.464 39.0294 420.025L39.3604 419.081C38.1355 418.652 36.9245 418.179 35.7284 417.657L35.3289 418.574C34.124 418.049 32.9331 417.476 31.7575 416.851L32.2272 415.968C31.0842 415.36 29.9562 414.701 28.8442 413.988L28.3045 414.83C27.2131 414.131 26.1366 413.38 25.0761 412.573L25.6814 411.777C24.6623 411.002 23.6578 410.175 22.6691 409.292L22.0029 410.037C21.0353 409.173 20.0828 408.257 19.1463 407.285L19.8663 406.591C18.9857 405.677 18.1188 404.713 17.2666 403.696L16.5 404.338C15.6647 403.341 14.8437 402.294 14.0377 401.196L14.844 400.604C14.0955 399.584 13.3596 398.517 12.637 397.402L11.7978 397.946C11.0919 396.857 10.3989 395.723 9.71934 394.542L10.586 394.043C10.2505 393.46 9.9182 392.866 9.58915 392.259C9.26708 391.665 8.95472 391.07 8.65197 390.473L7.7601 390.925C7.14628 389.715 6.57129 388.498 6.03428 387.275L6.94993 386.873C6.4204 385.666 5.92837 384.454 5.473 383.236L4.53635 383.587C4.06421 382.324 3.63087 381.055 3.23545 379.781L4.19051 379.485C3.79752 378.218 3.4425 376.947 3.12454 375.67L2.15417 375.911C1.83153 374.615 1.54652 373.315 1.29821 372.009L2.2806 371.822C2.03341 370.523 1.82308 369.218 1.64868 367.91L0.65744 368.042C0.480624 366.715 0.340264 365.384 0.235409 364.049L1.23234 363.971C1.12914 362.657 1.06077 361.339 1.02633 360.018L0.0266695 360.045C-0.00806601 358.712 -0.00871054 357.376 0.0238042 356.038L1.02351 356.062C1.05562 354.741 1.1205 353.416 1.21725 352.089L0.219893 352.016C0.316548 350.69 0.444615 349.362 0.603198 348.033L1.59616 348.151C1.75206 346.844 1.93784 345.535 2.15266 344.225L1.16583 344.063C1.38295 342.739 1.62935 341.413 1.90416 340.087L2.88336 340.29C3.14883 339.009 3.44115 337.726 3.75954 336.444L2.789 336.203C3.11011 334.91 3.45739 333.616 3.83003 332.323L4.79094 332.599C5.15862 331.323 5.5513 330.047 5.96822 328.772L5.01769 328.461C5.42824 327.205 5.86198 325.949 6.31817 324.695L7.25795 325.037C7.71047 323.792 8.18536 322.549 8.68189 321.307L7.75332 320.935C8.24988 319.693 8.76781 318.452 9.30638 317.213L10.2235 317.612C10.7474 316.407 11.291 315.203 11.8538 314.002L10.9482 313.577C11.5148 312.368 12.1006 311.16 12.7048 309.955L13.5987 310.403C14.1944 309.215 14.8081 308.029 15.4393 306.846L14.5571 306.375C15.1811 305.206 15.822 304.039 16.4791 302.875L17.3499 303.367C18.0032 302.21 18.6727 301.056 19.3578 299.906L18.4985 299.394C19.1836 298.244 19.8841 297.097 20.5993 295.953L21.4471 296.484C22.1475 295.364 22.8622 294.248 23.5906 293.136L22.7541 292.588C23.4863 291.471 24.2322 290.357 24.9912 289.247L25.8165 289.812C26.5699 288.711 27.3363 287.614 28.1152 286.521L27.301 285.941C28.073 284.858 28.857 283.78 29.6527 282.707L30.456 283.302C31.2481 282.234 32.0517 281.17 32.8663 280.111L32.0737 279.501C32.8918 278.438 33.721 277.379 34.5606 276.326L35.3424 276.95C36.1697 275.912 37.0072 274.88 37.8543 273.853L37.083 273.217C37.9336 272.186 38.7938 271.161 39.6632 270.141L40.4241 270.79C41.29 269.775 42.165 268.765 43.0486 267.762L42.2981 267.101C43.182 266.097 44.0744 265.099 44.9748 264.108L45.715 264.781C46.6112 263.794 47.5153 262.814 48.4268 261.84L47.6968 261.157C48.6118 260.179 49.5341 259.209 50.4632 258.245L51.183 258.94C52.1101 257.978 53.0441 257.024 53.9844 256.077L53.2747 255.372C54.2193 254.421 55.1702 253.477 56.1268 252.541L56.8263 253.255C57.7796 252.322 58.7386 251.397 59.7029 250.48L59.0136 249.755C59.985 248.831 60.9617 247.915 61.9431 247.007L62.6222 247.741C63.6057 246.831 64.594 245.929 65.5865 245.037L64.9177 244.293C65.9137 243.397 66.9138 242.51 67.9175 241.632L68.576 242.385C69.5804 241.506 70.5885 240.636 71.5997 239.776L70.9517 239.014C71.9797 238.14 73.0109 237.275 74.0447 236.42L74.682 237.19C75.7121 236.338 76.7448 235.496 77.7795 234.665L77.153 233.885C78.1947 233.048 79.2384 232.221 80.2834 231.405L80.899 232.193C81.9637 231.361 83.0299 230.541 84.0968 229.732L83.4926 228.935C84.5633 228.123 85.6349 227.323 86.7066 226.535L87.2991 227.34C88.3704 226.552 89.4418 225.776 90.5127 225.012L89.932 224.198C91.0409 223.407 92.1492 222.63 93.2563 221.865L93.8244 222.688C94.9272 221.927 96.0288 221.179 97.1283 220.446L96.5731 219.614C97.6851 218.872 98.7952 218.143 99.9025 217.43L100.444 218.27C101.588 217.533 102.73 216.811 103.867 216.106L103.34 215.256C104.482 214.547 105.621 213.854 106.755 213.178L107.267 214.037C108.419 213.35 109.566 212.68 110.707 212.028L110.211 211.16C111.398 210.482 112.58 209.822 113.755 209.182L114.233 210.06C115.402 209.423 116.563 208.805 117.717 208.208L117.257 207.32C118.474 206.69 119.682 206.081 120.88 205.496L121.319 206.394C122.533 205.8 123.737 205.23 124.93 204.684L124.513 203.775C125.736 203.215 126.947 202.68 128.145 202.17L128.536 203.091C129.802 202.552 131.053 202.043 132.287 201.564L131.925 200.631C133.169 200.148 134.397 199.695 135.607 199.272L135.937 200.216C137.249 199.758 138.54 199.336 139.806 198.953L139.516 197.996C140.804 197.605 142.069 197.253 143.307 196.941L143.552 197.911C144.9 197.571 146.216 197.279 147.497 197.035L147.31 196.053C148.632 195.802 149.92 195.602 151.169 195.455L151.286 196.448C152.677 196.284 154.017 196.187 155.3 196.159L155.278 195.159C156.667 195.128 157.997 195.176 159.264 195.304L159.163 196.299C160.489 196.433 161.734 196.658 162.894 196.974L163.157 196.009C164.517 196.38 165.775 196.873 166.923 197.493L166.448 198.373C167.562 198.975 168.559 199.701 169.434 200.555L170.132 199.839C171.062 200.746 171.869 201.791 172.543 202.978L171.673 203.471C172.264 204.514 172.751 205.682 173.122 206.984L174.083 206.711C174.425 207.91 174.671 209.209 174.816 210.609L173.822 210.712C173.945 211.904 173.994 213.178 173.963 214.538L174.963 214.561C174.933 215.856 174.833 217.222 174.66 218.658L173.667 218.539C173.522 219.744 173.324 221.003 173.071 222.317L174.053 222.506C173.808 223.779 173.512 225.1 173.165 226.471L172.196 226.225C172.024 226.902 171.84 227.591 171.643 228.293C171.458 228.948 171.278 229.603 171.101 230.256L172.066 230.518C171.713 231.819 171.375 233.115 171.052 234.406L170.082 234.163C169.755 235.471 169.443 236.773 169.145 238.071L170.12 238.294C169.818 239.611 169.532 240.924 169.261 242.23L168.282 242.028C168.009 243.344 167.752 244.656 167.51 245.962L168.494 246.144C168.248 247.475 168.018 248.801 167.805 250.122L166.818 249.962C166.603 251.29 166.406 252.612 166.224 253.928L167.215 254.065C167.031 255.406 166.863 256.741 166.714 258.07L165.72 257.958C165.569 259.297 165.436 260.63 165.321 261.955L166.317 262.042C166.2 263.389 166.101 264.73 166.02 266.063L165.022 266.003C164.941 267.349 164.878 268.688 164.834 270.02L165.834 270.053C165.79 271.404 165.765 272.746 165.759 274.082L164.759 274.078C164.754 275.427 164.768 276.768 164.802 278.102L165.802 278.076C165.836 279.426 165.892 280.768 165.967 282.102L164.969 282.158C165.045 283.505 165.143 284.843 165.261 286.173L166.257 286.085C166.376 287.43 166.518 288.765 166.681 290.092L165.688 290.214C165.853 291.554 166.039 292.885 166.248 294.207L167.236 294.051C167.446 295.382 167.678 296.703 167.934 298.014L166.952 298.206C167.211 299.533 167.492 300.85 167.797 302.157L168.771 301.93C169.076 303.239 169.404 304.537 169.756 305.825L168.792 306.089C169.149 307.394 169.529 308.688 169.934 309.971L170.888 309.67C171.292 310.949 171.719 312.217 172.171 313.472L171.23 313.811C171.688 315.084 172.171 316.346 172.678 317.595L173.605 317.219C174.108 318.459 174.637 319.687 175.19 320.903L174.279 321.317C174.839 322.548 175.424 323.766 176.033 324.971L176.926 324.519C177.53 325.713 178.158 326.894 178.812 328.062L177.939 328.55C178.598 329.727 179.282 330.891 179.991 332.043L180.842 331.518C181.543 332.655 182.269 333.78 183.019 334.891L182.19 335.451C182.944 336.567 183.723 337.669 184.527 338.759L185.331 338.165C186.123 339.238 186.939 340.298 187.78 341.344L187 341.97C187.843 343.019 188.711 344.055 189.603 345.077L190.356 344.419C191.231 345.421 192.129 346.41 193.052 347.385L192.325 348.072C193.25 349.05 194.198 350.014 195.17 350.964L195.869 350.249C196.818 351.177 197.79 352.091 198.784 352.992L198.113 353.733C199.11 354.637 200.131 355.527 201.174 356.403L201.817 355.638C202.83 356.489 203.865 357.328 204.923 358.153L204.307 358.941C205.368 359.77 206.45 360.585 207.555 361.386L208.142 360.577C209.211 361.353 210.3 362.117 211.411 362.868L210.851 363.696C211.965 364.45 213.1 365.19 214.255 365.918L214.788 365.072C215.904 365.775 217.041 366.466 218.197 367.146L217.69 368.008C218.848 368.688 220.025 369.356 221.222 370.011L221.702 369.134C222.86 369.769 224.037 370.391 225.232 371.002L224.777 371.893C225.97 372.502 227.18 373.1 228.409 373.686L228.84 372.783C230.035 373.353 231.247 373.912 232.477 374.459L232.071 375.373C233.29 375.915 234.525 376.446 235.778 376.966L236.161 376.042C237.39 376.552 238.636 377.051 239.898 377.539L239.537 378.472C240.775 378.951 242.028 379.419 243.297 379.876L243.636 378.936C244.898 379.39 246.175 379.834 247.468 380.268L247.15 381.216C248.4 381.635 249.664 382.044 250.944 382.444L251.241 381.489C252.514 381.886 253.801 382.273 255.104 382.651L254.825 383.611C256.103 383.981 257.394 384.342 258.7 384.692L258.959 383.727C260.237 384.07 261.528 384.404 262.833 384.728L262.592 385.699C263.899 386.024 265.22 386.34 266.554 386.646L266.778 385.671C268.056 385.964 269.346 386.249 270.65 386.525L270.443 387.503C271.752 387.78 273.074 388.048 274.408 388.307L274.598 387.326C275.903 387.579 277.22 387.824 278.549 388.06L278.374 389.045C279.677 389.277 280.992 389.5 282.319 389.715L282.479 388.728C283.801 388.942 285.134 389.148 286.479 389.346L286.334 390.335C287.645 390.527 288.967 390.712 290.301 390.889L290.432 389.897C291.744 390.071 293.066 390.237 294.4 390.395L294.282 391.388C295.62 391.547 296.968 391.698 298.328 391.841L298.432 390.846C299.741 390.984 301.059 391.114 302.388 391.237L302.296 392.233C303.62 392.355 304.953 392.47 306.297 392.578L306.377 391.581C307.717 391.688 309.067 391.788 310.426 391.881L310.358 392.878C311.674 392.968 313 393.051 314.335 393.126L314.391 392.128C315.714 392.203 317.046 392.271 318.388 392.332L318.342 393.331C319.687 393.393 321.041 393.447 322.405 393.495L322.44 392.495C323.759 392.541 325.087 392.581 326.423 392.614L326.398 393.613C327.724 393.646 329.058 393.672 330.401 393.692L330.415 392.692C331.755 392.711 333.103 392.724 334.459 392.731L334.455 393.731C335.134 393.734 335.817 393.736 336.501 393.736C337.225 393.736 337.937 393.743 338.638 393.758L338.659 392.758C340.074 392.788 341.441 392.848 342.762 392.937L342.695 393.935C344.001 394.022 345.258 394.139 346.47 394.283L346.588 393.29C347.949 393.451 349.254 393.648 350.504 393.878L350.323 394.861C351.685 395.112 352.977 395.402 354.203 395.731L354.462 394.765C355.716 395.102 356.904 395.478 358.028 395.894L357.682 396.832C359.005 397.32 360.232 397.862 361.366 398.454L361.829 397.568C363.003 398.18 364.087 398.847 365.081 399.566L364.495 400.376C365.582 401.161 366.553 402.007 367.417 402.911L368.14 402.22C369.057 403.179 369.86 404.203 370.554 405.288L369.711 405.827C370.388 406.886 370.957 408.007 371.42 409.188L372.351 408.823C372.823 410.026 373.191 411.287 373.458 412.601L372.478 412.8C372.726 414.018 372.884 415.287 372.956 416.606L373.954 416.552C374.023 417.824 374.014 419.135 373.929 420.484L372.931 420.421C372.852 421.678 372.706 422.971 372.495 424.298L373.483 424.455C373.281 425.722 373.021 427.016 372.706 428.335L371.734 428.103C371.441 429.33 371.098 430.582 370.708 431.856L371.665 432.149C371.279 433.409 370.848 434.689 370.373 435.987L369.434 435.644C369.004 436.819 368.537 438.01 368.035 439.217L368.959 439.601C368.452 440.821 367.909 442.055 367.332 443.302L366.424 442.883C365.886 444.046 365.318 445.223 364.72 446.41L365.613 446.86C365.033 448.012 364.426 449.175 363.793 450.347L362.913 449.871C362.284 451.035 361.629 452.208 360.948 453.39L361.815 453.889C361.17 455.009 360.503 456.136 359.815 457.27L358.96 456.751C358.29 457.855 357.599 458.965 356.889 460.081L357.732 460.618C357.018 461.74 356.284 462.867 355.531 464L354.698 463.446C353.978 464.529 353.24 465.616 352.485 466.708L353.308 467.277C352.569 468.345 351.814 469.418 351.044 470.493L350.231 469.911C349.464 470.982 348.681 472.057 347.883 473.135L348.687 473.73C347.897 474.796 347.093 475.865 346.275 476.937L345.481 476.33C344.696 477.358 343.898 478.387 343.088 479.419L343.875 480.036C343.062 481.071 342.237 482.108 341.4 483.145L340.621 482.517C339.787 483.551 338.941 484.586 338.084 485.622L338.854 486.259C338.019 487.268 337.173 488.278 336.316 489.287L335.554 488.64C334.708 489.637 333.853 490.634 332.988 491.631L333.743 492.286C332.876 493.286 331.999 494.285 331.113 495.283L330.365 494.619C329.483 495.612 328.593 496.604 327.694 497.595L328.435 498.267C327.555 499.237 326.667 500.206 325.771 501.173L325.038 500.494C324.144 501.458 323.243 502.421 322.335 503.383L323.062 504.07C322.151 505.033 321.234 505.995 320.309 506.954L319.589 506.26C318.671 507.212 317.747 508.162 316.816 509.109L317.529 509.81C316.605 510.75 315.676 511.687 314.74 512.621L314.033 511.913C313.1 512.845 312.16 513.774 311.216 514.7L311.916 515.414C310.969 516.342 310.016 517.266 309.059 518.186L308.366 517.465C307.413 518.382 306.455 519.294 305.493 520.202L306.179 520.93C305.216 521.838 304.249 522.743 303.277 523.643L302.598 522.91C301.629 523.808 300.655 524.701 299.678 525.59L300.351 526.329C299.372 527.22 298.389 528.106 297.403 528.986L296.737 528.24C295.748 529.123 294.756 530 293.761 530.872L294.42 531.624C293.42 532.5 292.418 533.37 291.413 534.234L290.761 533.475C289.759 534.337 288.754 535.193 287.747 536.042L288.391 536.806C287.382 537.657 286.37 538.502 285.357 539.34L284.72 538.569C283.692 539.419 282.663 540.261 281.633 541.096L282.263 541.873C281.228 542.712 280.191 543.543 279.155 544.366L278.533 543.583C277.498 544.404 276.463 545.217 275.428 546.022L276.041 546.811C274.998 547.622 273.954 548.425 272.911 549.218L272.305 548.422C271.238 549.234 270.171 550.036 269.104 550.829L269.701 551.631C268.631 552.426 267.562 553.211 266.494 553.986L265.907 553.176C264.842 553.949 263.778 554.711 262.715 555.463L263.293 556.28C262.203 557.051 261.114 557.812 260.027 558.561L259.459 557.738C258.355 558.499 257.252 559.248 256.153 559.985L256.709 560.816C255.606 561.555 254.506 562.281 253.409 562.995L252.863 562.157C251.766 562.87 250.671 563.571 249.581 564.258L250.114 565.104C248.961 565.831 247.812 566.542 246.669 567.238L246.149 566.383C245.01 567.076 243.876 567.753 242.748 568.414L243.253 569.277C242.12 569.94 240.992 570.587 239.87 571.218L239.381 570.346C238.199 571.01 237.025 571.654 235.86 572.279L236.332 573.161C235.143 573.798 233.962 574.415 232.789 575.012L232.336 574.12C231.17 574.713 230.013 575.285 228.867 575.835L229.299 576.737C228.067 577.328 226.847 577.894 225.638 578.434L225.23 577.521C224.002 578.07 222.787 578.592 221.586 579.087L221.967 580.012C220.756 580.51 219.559 580.98 218.376 581.422L218.026 580.485C216.733 580.969 215.458 581.417 214.203 581.829L214.515 582.779C213.238 583.198 211.98 583.58 210.744 583.925L210.475 582.961C209.188 583.32 207.926 583.636 206.689 583.908L206.904 584.885C205.558 585.182 204.24 585.428 202.953 585.622L202.804 584.633C201.508 584.828 200.246 584.969 199.021 585.054L199.09 586.052C197.697 586.148 196.345 586.174 195.04 586.127L195.076 585.128C193.773 585.08 192.521 584.958 191.324 584.759L191.16 585.745C189.802 585.519 188.506 585.196 187.277 584.773L187.602 583.828C186.398 583.414 185.265 582.901 184.206 582.286L183.704 583.151C182.556 582.484 181.487 581.702 180.501 580.799L181.176 580.061C180.29 579.25 179.473 578.333 178.73 577.307L177.92 577.893C177.156 576.838 176.468 575.675 175.861 574.401L176.763 573.97C176.26 572.915 175.812 571.775 175.423 570.548L174.469 570.85C174.069 569.589 173.731 568.243 173.457 566.811L174.439 566.623C174.221 565.48 174.044 564.277 173.91 563.013L172.915 563.118C172.779 561.828 172.686 560.479 172.64 559.069L173.64 559.036C173.617 558.343 173.605 557.633 173.605 556.908V556.884Z" stroke="white" stroke-width="2" stroke-dasharray="4 4"/>
</g>
<g style="mix-blend-mode:overlay">
<circle cx="1405" cy="325.15" r="240" stroke="white" stroke-width="2" stroke-dasharray="4 4"/>
</g>
<circle cx="666.5" cy="432.65" r="3.5" stroke="white" stroke-width="2"/>
<circle cx="1303.5" cy="548.65" r="3.5" stroke="white" stroke-width="2"/>
<circle cx="270.5" cy="563.65" r="3.5" stroke="white" stroke-width="2"/>
<path d="M763 407.15L771 399.15" stroke="white" stroke-width="2"/>
<path d="M763 399.15L771 407.15" stroke="white" stroke-width="2"/>
<path d="M834 294.986L844.992 292.307" stroke="white" stroke-width="2"/>
<path d="M838.157 288.15L840.836 299.142" stroke="white" stroke-width="2"/>
<path d="M652 346.15H662" stroke="white" stroke-width="2"/>
<path d="M657 341.15V351.15" stroke="white" stroke-width="2"/>
<path d="M436 294.15H446" stroke="white" stroke-width="2"/>
<path d="M441 289.15V299.15" stroke="white" stroke-width="2"/>
<path d="M1090.5 641.15L1096 636.15H1085L1090.5 641.15Z" stroke="white" stroke-width="2"/>
<path d="M617.5 714.15L623 709.15H612L617.5 714.15Z" stroke="white" stroke-width="2"/>
<path d="M243 412.15L253 404.15L261.5 418.15L271.5 404.15" stroke="white" stroke-width="2"/>
<path d="M824 708.15L834 700.15L842.5 714.15L852.5 700.15" stroke="white" stroke-width="2"/>
<path d="M1180 261.15L1190 253.15L1198.5 267.15L1208.5 253.15" stroke="white" stroke-width="2"/>
<circle cx="953" cy="504.15" r="161" stroke="white" stroke-width="2"/>
<g style="mix-blend-mode:overlay">
<path d="M221 145.944C311.448 183.393 353 -7.9782 461 7.9435C584.5 26.1503 763.668 249.443 854.5 166.444C952.762 76.654 1137.76 48.2661 1298.5 44.1501" stroke="white" stroke-width="13" stroke-linecap="round"/>
</g>
</svg>
