<svg width="1244" height="461" viewBox="0 0 1244 461" fill="none" xmlns="http://www.w3.org/2000/svg">
<g filter="url(#filter0_d_2_660)">
<rect x="1" y="32" width="310" height="379" rx="13" fill="#3B3BB8" stroke="white" stroke-width="2"/>
<path fill-rule="evenodd" clip-rule="evenodd" d="M12 79.8975V137.506L127.735 200.121C131.135 201.96 132.4 206.208 130.56 209.608L119.616 229.838C117.776 233.238 113.529 234.503 110.128 232.663L12 179.574V198.918L157.129 277.436C160.529 279.275 161.794 283.523 159.955 286.924L151.543 302.472C149.703 305.872 145.455 307.137 142.055 305.298L12 234.935V253.531L19.0331 257.336C22.4333 259.176 23.6985 263.424 21.8588 266.824L12 285.046V337.628L123.588 398H165.889L136.88 382.306C133.48 380.466 132.215 376.218 134.054 372.818L175.986 295.315C177.825 291.915 182.073 290.649 185.473 292.489L216.257 309.144C219.657 310.983 220.922 315.231 219.082 318.631L177.151 396.134C176.761 396.855 176.263 397.48 175.688 398H194.332L234.138 324.424C235.978 321.024 240.225 319.759 243.626 321.598L290.241 346.818C293.641 348.658 294.906 352.906 293.066 356.306L270.509 398H294C297.314 398 300 395.314 300 392V387.723C297.837 385.592 297.242 382.211 298.76 379.407L300 377.114V333.446C299.228 333.327 298.463 333.075 297.737 332.683L251.122 307.463C247.722 305.623 246.457 301.375 248.296 297.975L300 202.409V155.482C299.773 155.388 299.549 155.282 299.328 155.162L235.95 120.874C232.55 119.034 231.285 114.786 233.125 111.386L266.434 49.819C268.273 46.4187 272.521 45.1536 275.921 46.9932L300 60.0203V51C300 47.6863 297.314 45 294 45H250.317L218.603 103.619C216.763 107.019 212.516 108.284 209.115 106.444L187.127 94.5481C183.727 92.7085 182.462 88.4608 184.301 85.0605L205.975 45H166.899L176.898 50.4094C180.298 52.249 181.563 56.4968 179.724 59.897L170.207 77.4876C168.367 80.8878 164.119 82.153 160.719 80.3133L138.731 68.4172C135.331 66.5776 134.065 62.3298 135.905 58.9296L143.441 45H125.249L122.275 50.4972C120.435 53.8974 116.188 55.1626 112.787 53.323L97.4038 45H63.7799L105.174 67.3953C108.574 69.2349 109.84 73.4827 108 76.883L97.0554 97.1121C95.2158 100.512 90.9681 101.777 87.5678 99.9379L40.9528 74.718C37.5526 72.8784 36.2874 68.6306 38.1271 65.2304L49.0715 45.0012C49.0717 45.0008 49.072 45.0004 49.0722 45H30.8804L12 79.8975ZM57.0156 398L12 373.645V391.578L23.8695 398H57.0156ZM33.3389 88.7905C29.9387 86.9508 25.6909 88.216 23.8513 91.6162L12.9068 111.845C11.0672 115.246 12.3323 119.493 15.7326 121.333L62.3476 146.553C65.7479 148.392 69.9956 147.127 71.8352 143.727L82.7797 123.498C84.6193 120.098 83.3542 115.85 79.9539 114.01L33.3389 88.7905ZM45.7681 271.137C42.3679 269.298 38.1201 270.563 36.2805 273.963L17.0629 309.484C15.2232 312.884 16.4884 317.132 19.8887 318.972L110.131 367.795C113.531 369.635 117.779 368.369 119.619 364.969L138.836 329.448C140.676 326.048 139.411 321.8 136.011 319.961L45.7681 271.137ZM131.118 82.4896C127.717 80.6499 123.47 81.9151 121.63 85.3153L85.4658 152.159C83.6262 155.56 84.8913 159.807 88.2915 161.647L134.907 186.867C138.307 188.707 142.555 187.441 144.394 184.041L180.558 117.197C182.398 113.797 181.133 109.549 177.733 107.709L131.118 82.4896ZM204.151 121.924C200.751 120.084 196.503 121.349 194.664 124.75L133.28 238.209C131.44 241.609 132.705 245.857 136.105 247.696L166.889 264.351C170.289 266.191 174.537 264.925 176.376 261.525L237.761 148.066C239.6 144.666 238.335 140.418 234.935 138.578L204.151 121.924ZM261.42 153.936C258.02 152.096 253.772 153.361 251.933 156.761L190.549 270.221C188.709 273.621 189.974 277.869 193.374 279.708L224.158 296.363C227.558 298.203 231.806 296.937 233.646 293.537L295.03 180.078C296.869 176.678 295.604 172.43 292.204 170.59L261.42 153.936Z" fill="white"/>
<g style="mix-blend-mode:difference">
<path d="M167.5 136V260.5C167.5 262.157 168.843 263.5 170.5 263.5H215.5" stroke="#42FF00" stroke-width="2" stroke-linecap="round" stroke-dasharray="18 18"/>
</g>
<g filter="url(#filter1_d_2_660)">
<circle cx="166.5" cy="122.5" r="13.5" fill="white"/>
<circle cx="166.5" cy="122.5" r="11.5" stroke="#3B3BB8" stroke-width="4"/>
</g>
<path d="M173 121.545C173 126.636 166.5 131 166.5 131C166.5 131 160 126.636 160 121.545C160 119.809 160.685 118.145 161.904 116.917C163.123 115.69 164.776 115 166.5 115C168.224 115 169.877 115.69 171.096 116.917C172.315 118.145 173 119.809 173 121.545Z" fill="#3B3BB8"/>
<path d="M166.5 124C167.881 124 169 122.881 169 121.5C169 120.119 167.881 119 166.5 119C165.119 119 164 120.119 164 121.5C164 122.881 165.119 124 166.5 124Z" fill="white"/>
</g>
<g filter="url(#filter2_d_2_660)">
<rect x="570" width="402" height="327" rx="14" fill="#3B3BB8" fill-opacity="0.9" shape-rendering="crispEdges"/>
<rect x="571" y="1" width="400" height="325" rx="13" stroke="white" stroke-width="2" shape-rendering="crispEdges"/>
</g>
<path d="M595 30C595 25.5817 598.582 22 603 22H940C944.418 22 948 25.5817 948 30V203H595V30Z" fill="black" fill-opacity="0.2"/>
<rect x="640" y="223" width="278" height="12" rx="6" fill="#6E6EE6"/>
<rect x="640" y="247" width="297" height="12" rx="6" fill="#6E6EE6"/>
<rect x="640" y="271" width="260" height="12" rx="6" fill="#6E6EE6"/>
<circle cx="927.5" cy="301.5" r="9.5" fill="#6E6EE6"/>
<circle cx="899.5" cy="301.5" r="9.5" fill="#6E6EE6"/>
<g filter="url(#filter3_d_2_660)">
<rect x="216" y="182" width="431" height="215" rx="13" fill="#3B3BB8" fill-opacity="0.9" stroke="white" stroke-width="2"/>
<path d="M217 203H646" stroke="white" stroke-width="2" stroke-linecap="square"/>
<path d="M439.605 307.794C439.973 307.056 441.027 307.056 441.395 307.794L442.893 310.798C443.039 311.091 443.32 311.294 443.645 311.341L446.979 311.823C447.802 311.942 448.128 312.956 447.53 313.533L445.132 315.844C444.893 316.075 444.784 316.408 444.841 316.735L445.408 320.01C445.549 320.825 444.695 321.45 443.961 321.067L440.962 319.506C440.672 319.356 440.328 319.356 440.038 319.506L437.039 321.067C436.305 321.45 435.451 320.825 435.592 320.01L436.159 316.735C436.216 316.408 436.107 316.075 435.868 315.844L433.47 313.533C432.872 312.956 433.198 311.942 434.021 311.823L437.355 311.341C437.68 311.294 437.961 311.091 438.107 310.798L439.605 307.794Z" fill="#6E6EE6"/>
<path d="M489.605 307.794C489.973 307.056 491.027 307.056 491.395 307.794L492.893 310.798C493.039 311.091 493.32 311.294 493.645 311.341L496.979 311.823C497.802 311.942 498.128 312.956 497.53 313.533L495.132 315.844C494.893 316.075 494.784 316.408 494.841 316.735L495.408 320.01C495.549 320.825 494.695 321.45 493.961 321.067L490.962 319.506C490.672 319.356 490.328 319.356 490.038 319.506L487.039 321.067C486.305 321.45 485.451 320.825 485.592 320.01L486.159 316.735C486.216 316.408 486.107 316.075 485.868 315.844L483.47 313.533C482.872 312.956 483.198 311.942 484.021 311.823L487.355 311.341C487.68 311.294 487.961 311.091 488.107 310.798L489.605 307.794Z" fill="#6E6EE6"/>
<path d="M514.605 307.794C514.973 307.056 516.027 307.056 516.395 307.794L517.893 310.798C518.039 311.091 518.32 311.294 518.645 311.341L521.979 311.823C522.802 311.942 523.128 312.956 522.53 313.533L520.132 315.844C519.893 316.075 519.784 316.408 519.841 316.735L520.408 320.01C520.549 320.825 519.695 321.45 518.961 321.067L515.962 319.506C515.672 319.356 515.328 319.356 515.038 319.506L512.039 321.067C511.305 321.45 510.451 320.825 510.592 320.01L511.159 316.735C511.216 316.408 511.107 316.075 510.868 315.844L508.47 313.533C507.872 312.956 508.198 311.942 509.021 311.823L512.355 311.341C512.68 311.294 512.961 311.091 513.107 310.798L514.605 307.794Z" fill="#6E6EE6"/>
<path d="M464.605 307.794C464.973 307.056 466.027 307.056 466.395 307.794L467.893 310.798C468.039 311.091 468.32 311.294 468.645 311.341L471.979 311.823C472.802 311.942 473.128 312.956 472.53 313.533L470.132 315.844C469.893 316.075 469.784 316.408 469.841 316.735L470.408 320.01C470.549 320.825 469.695 321.45 468.961 321.067L465.962 319.506C465.672 319.356 465.328 319.356 465.038 319.506L462.039 321.067C461.305 321.45 460.451 320.825 460.592 320.01L461.159 316.735C461.216 316.408 461.107 316.075 460.868 315.844L458.47 313.533C457.872 312.956 458.198 311.942 459.021 311.823L462.355 311.341C462.68 311.294 462.961 311.091 463.107 310.798L464.605 307.794Z" fill="#6E6EE6"/>
<rect x="227" y="210" width="191" height="177" rx="8" fill="black" fill-opacity="0.2"/>
<path d="M432 216H606.5C609.538 216 612 218.462 612 221.5V221.5C612 224.538 609.538 227 606.5 227H432V216Z" fill="#6E6EE7"/>
<path d="M432 235H534.5C537.538 235 540 237.462 540 240.5V240.5C540 243.538 537.538 246 534.5 246H432V235Z" fill="#6E6EE7"/>
<path d="M432 254H561.5C564.538 254 567 256.462 567 259.5V259.5C567 262.538 564.538 265 561.5 265H432V254Z" fill="#6E6EE7"/>
<path d="M432 273H498.5C501.538 273 504 275.462 504 278.5V278.5C504 281.538 501.538 284 498.5 284H432V273Z" fill="#6E6EE7"/>
<path d="M432 333H498.5C501.538 333 504 335.462 504 338.5V338.5C504 341.538 501.538 344 498.5 344H432V333Z" fill="#6E6EE7"/>
<circle cx="627" cy="193" r="5" fill="white"/>
<circle cx="609" cy="193" r="5" fill="white"/>
<circle cx="592" cy="193" r="5" fill="white"/>
<path d="M432 353H606.5C609.538 353 612 355.462 612 358.5V358.5C612 361.538 609.538 364 606.5 364H432V353Z" fill="#6E6EE7"/>
<path d="M432 372H630.5C633.538 372 636 374.462 636 377.5V377.5C636 380.538 633.538 383 630.5 383H432V372Z" fill="#6E6EE7"/>
</g>
<g filter="url(#filter4_d_2_660)">
<rect x="869" y="93" width="375" height="364" rx="40" fill="white"/>
<rect x="1033" y="109" width="47" height="8" rx="4" fill="#3B3BB8"/>
<rect width="375" height="68" transform="translate(869 141)" fill="white"/>
<rect x="893" y="157" width="196" height="12" rx="6" fill="#9090CD"/>
<rect x="893" y="181" width="146" height="12" rx="6" fill="#9090CD"/>
<rect x="1161" y="158" width="58" height="34" rx="17" fill="#F3F3FF" stroke="#3B3BB8" stroke-width="2"/>
<circle cx="1202" cy="175" r="14" fill="#3B3BB8"/>
<rect width="375" height="68" transform="translate(869 209)" fill="white"/>
<rect x="893" y="225" width="196" height="12" rx="6" fill="#9090CD"/>
<rect x="893" y="249" width="146" height="12" rx="6" fill="#9090CD"/>
<rect x="1160" y="225" width="60" height="36" rx="18" fill="#3B3BB8"/>
<circle cx="1178" cy="243" r="13" fill="#D6F5FF" stroke="#3B3BB8" stroke-width="2"/>
<rect width="375" height="68" transform="translate(869 277)" fill="white"/>
<rect x="893" y="293" width="196" height="12" rx="6" fill="#9090CD"/>
<rect x="893" y="317" width="146" height="12" rx="6" fill="#9090CD"/>
<rect x="1160" y="293" width="60" height="36" rx="18" fill="#3B3BB8"/>
<circle cx="1178" cy="311" r="13" fill="#D6F5FF" stroke="#0072B1" stroke-width="2"/>
<rect x="893" y="369" width="327" height="52" rx="12" fill="#3B3BB8"/>
<rect x="1021" y="389" width="71" height="12" rx="6" fill="white"/>
</g>
<defs>
<filter id="filter0_d_2_660" x="0" y="31" width="312" height="385" filterUnits="userSpaceOnUse" color-interpolation-filters="sRGB">
<feFlood flood-opacity="0" result="BackgroundImageFix"/>
<feColorMatrix in="SourceAlpha" type="matrix" values="0 0 0 0 0 0 0 0 0 0 0 0 0 0 0 0 0 0 127 0" result="hardAlpha"/>
<feOffset dy="4"/>
<feComposite in2="hardAlpha" operator="out"/>
<feColorMatrix type="matrix" values="0 0 0 0 0 0 0 0 0 0 0 0 0 0 0 0 0 0 0.25 0"/>
<feBlend mode="normal" in2="BackgroundImageFix" result="effect1_dropShadow_2_660"/>
<feBlend mode="normal" in="SourceGraphic" in2="effect1_dropShadow_2_660" result="shape"/>
</filter>
<filter id="filter1_d_2_660" x="153" y="109" width="27" height="29" filterUnits="userSpaceOnUse" color-interpolation-filters="sRGB">
<feFlood flood-opacity="0" result="BackgroundImageFix"/>
<feColorMatrix in="SourceAlpha" type="matrix" values="0 0 0 0 0 0 0 0 0 0 0 0 0 0 0 0 0 0 127 0" result="hardAlpha"/>
<feOffset dy="2"/>
<feComposite in2="hardAlpha" operator="out"/>
<feColorMatrix type="matrix" values="0 0 0 0 0 0 0 0 0 0 0 0 0 0 0 0 0 0 0.25 0"/>
<feBlend mode="normal" in2="BackgroundImageFix" result="effect1_dropShadow_2_660"/>
<feBlend mode="normal" in="SourceGraphic" in2="effect1_dropShadow_2_660" result="shape"/>
</filter>
<filter id="filter2_d_2_660" x="570" y="0" width="402" height="331" filterUnits="userSpaceOnUse" color-interpolation-filters="sRGB">
<feFlood flood-opacity="0" result="BackgroundImageFix"/>
<feColorMatrix in="SourceAlpha" type="matrix" values="0 0 0 0 0 0 0 0 0 0 0 0 0 0 0 0 0 0 127 0" result="hardAlpha"/>
<feOffset dy="4"/>
<feComposite in2="hardAlpha" operator="out"/>
<feColorMatrix type="matrix" values="0 0 0 0 0 0 0 0 0 0 0 0 0 0 0 0 0 0 0.25 0"/>
<feBlend mode="normal" in2="BackgroundImageFix" result="effect1_dropShadow_2_660"/>
<feBlend mode="normal" in="SourceGraphic" in2="effect1_dropShadow_2_660" result="shape"/>
</filter>
<filter id="filter3_d_2_660" x="215" y="181" width="433" height="221" filterUnits="userSpaceOnUse" color-interpolation-filters="sRGB">
<feFlood flood-opacity="0" result="BackgroundImageFix"/>
<feColorMatrix in="SourceAlpha" type="matrix" values="0 0 0 0 0 0 0 0 0 0 0 0 0 0 0 0 0 0 127 0" result="hardAlpha"/>
<feOffset dy="4"/>
<feComposite in2="hardAlpha" operator="out"/>
<feColorMatrix type="matrix" values="0 0 0 0 0 0 0 0 0 0 0 0 0 0 0 0 0 0 0.25 0"/>
<feBlend mode="normal" in2="BackgroundImageFix" result="effect1_dropShadow_2_660"/>
<feBlend mode="normal" in="SourceGraphic" in2="effect1_dropShadow_2_660" result="shape"/>
</filter>
<filter id="filter4_d_2_660" x="869" y="93" width="375" height="368" filterUnits="userSpaceOnUse" color-interpolation-filters="sRGB">
<feFlood flood-opacity="0" result="BackgroundImageFix"/>
<feColorMatrix in="SourceAlpha" type="matrix" values="0 0 0 0 0 0 0 0 0 0 0 0 0 0 0 0 0 0 127 0" result="hardAlpha"/>
<feOffset dy="4"/>
<feComposite in2="hardAlpha" operator="out"/>
<feColorMatrix type="matrix" values="0 0 0 0 0 0 0 0 0 0 0 0 0 0 0 0 0 0 0.25 0"/>
<feBlend mode="normal" in2="BackgroundImageFix" result="effect1_dropShadow_2_660"/>
<feBlend mode="normal" in="SourceGraphic" in2="effect1_dropShadow_2_660" result="shape"/>
</filter>
</defs>
</svg>
