<svg width="22" height="803" viewBox="0 0 22 803" fill="none" xmlns="http://www.w3.org/2000/svg">
<path fill-rule="evenodd" clip-rule="evenodd" d="M0.333496 10.9999C0.333496 16.2074 4.06511 20.5432 9.00016 21.4794V411.02C4.06511 411.957 0.333496 416.292 0.333496 421.5C0.333496 426.707 4.06511 431.043 9.00016 431.979V781.02C4.06511 781.957 0.333496 786.292 0.333496 791.5C0.333496 797.391 5.10913 802.167 11.0002 802.167C16.8912 802.167 21.6668 797.391 21.6668 791.5C21.6668 786.292 17.9352 781.957 13.0002 781.02V431.979C17.9352 431.043 21.6668 426.707 21.6668 421.5C21.6668 416.292 17.9352 411.957 13.0002 411.02V21.4794C17.9352 20.5432 21.6668 16.2074 21.6668 10.9999C21.6668 5.10888 16.8912 0.333252 11.0002 0.333252C5.10913 0.333252 0.333496 5.10888 0.333496 10.9999Z" fill="#3B3BB8"/>
</svg>
