<svg width="168" height="51" viewBox="0 0 168 51" fill="none" xmlns="http://www.w3.org/2000/svg">
<path fill-rule="evenodd" clip-rule="evenodd" d="M42.3361 34.9857C42.3361 34.9857 51.1616 24.8358 50.3593 17.8697C50.0857 15.4944 48.7788 13.2896 46.7261 11.7404C44.6733 10.1913 42.0429 9.42471 39.4135 9.60928C36.784 9.79385 34.3709 10.9145 32.7051 12.7246C31.0393 14.5348 30.2571 16.8862 30.5307 19.2616C31.333 26.2276 42.3361 34.9857 42.3361 34.9857ZM44.8719 18.4356C45.1302 20.678 43.3667 22.6343 40.9332 22.8051C38.4996 22.976 36.3174 21.2966 36.0592 19.0542C35.8009 16.8118 37.5644 14.8555 39.9979 14.6847C42.4315 14.5139 44.6136 16.1932 44.8719 18.4356Z" fill="white"/>
<path fill-rule="evenodd" clip-rule="evenodd" d="M13.8948 14.1968C10.3522 12.422 5.95837 9.64927 7.68447 8.47497C9.7808 7.0488 22.7924 7.06233 28.7836 7.06855C30.1946 7.07002 31.2162 7.07108 31.6141 7.05283C32.9772 6.99032 33.1215 8.16939 33.2301 9.05628C33.2878 9.52742 33.3353 9.91611 33.5502 9.9924C34.1695 10.2123 41.8535 4.14935 41.1582 3.58684C40.4629 3.02433 28.9152 -0.162078 28.6235 0.00644706C28.5304 0.0602016 28.8718 0.363407 29.3123 0.754566C30.2528 1.58972 31.6447 2.82582 30.2232 2.89101C29.9912 2.90165 29.4587 2.91505 28.6932 2.93431C22.5713 3.08833 1.54866 3.61725 0.149657 6.1083C-1.19066 8.49487 6.77221 16.1441 12.0359 18.3804C11.7356 19.9361 11.8052 21.5542 12.2604 23.1174C14.6134 31.1963 28.8657 39.468 28.8657 39.468C28.8657 39.468 36.7314 25.8113 34.3784 17.7324C33.5761 14.9776 31.6415 12.6193 29.0002 11.1762C26.3589 9.73322 23.2272 9.32371 20.2942 10.0378C17.685 10.6731 15.4231 12.1512 13.8948 14.1968ZM25.1976 25.1279C28.0123 24.4426 29.6865 21.8008 28.937 19.2273C28.1874 16.6537 25.298 15.123 22.4832 15.8083C19.6685 16.4936 17.9943 19.1354 18.7438 21.7089C19.4934 24.2825 22.3828 25.8132 25.1976 25.1279Z" fill="white"/>
<path d="M82.859 8.6V13.016H76.267V31H71.851V13.016H65.259V8.6H82.859ZM84.165 31L84.149 15H88.565L88.581 16.184C89.1143 15.672 89.7383 15.272 90.453 14.984C91.1783 14.696 91.941 14.552 92.741 14.552C93.3277 14.552 93.9143 14.6373 94.501 14.808L92.757 19.272C92.373 19.112 91.9837 19.032 91.589 19.032C91.0343 19.032 90.5277 19.1653 90.069 19.432C89.6103 19.6987 89.2477 20.0613 88.981 20.52C88.7143 20.968 88.581 21.4747 88.581 22.04V31H84.165ZM96.149 15H100.565V31H96.149V15ZM98.389 13.16C97.749 13.16 97.2103 12.9467 96.773 12.52C96.3357 12.0933 96.117 11.5653 96.117 10.936C96.117 10.3067 96.3357 9.77867 96.773 9.352C97.2103 8.92533 97.7437 8.712 98.373 8.712C99.0023 8.712 99.5303 8.92533 99.957 9.352C100.394 9.77867 100.613 10.3067 100.613 10.936C100.613 11.5653 100.4 12.0933 99.973 12.52C99.557 12.9467 99.029 13.16 98.389 13.16ZM108.503 39H104.087V15H108.503V16.728C109.015 16.0987 109.623 15.5867 110.327 15.192C111.031 14.7867 111.852 14.584 112.791 14.584C113.953 14.584 115.041 14.8027 116.055 15.24C117.079 15.6773 117.975 16.2853 118.743 17.064C119.511 17.832 120.113 18.7227 120.551 19.736C120.988 20.7493 121.207 21.8373 121.207 23C121.207 24.1627 120.988 25.256 120.551 26.28C120.113 27.304 119.511 28.2053 118.743 28.984C117.975 29.752 117.079 30.3547 116.055 30.792C115.041 31.2293 113.953 31.448 112.791 31.448C111.852 31.448 111.031 31.2453 110.327 30.84C109.623 30.4347 109.015 29.9227 108.503 29.304V39ZM112.727 18.824C112.001 18.824 111.345 19.016 110.759 19.4C110.183 19.7733 109.724 20.2747 109.383 20.904C109.052 21.5333 108.887 22.232 108.887 23C108.887 23.768 109.052 24.472 109.383 25.112C109.724 25.7413 110.183 26.2427 110.759 26.616C111.345 26.9893 112.001 27.176 112.727 27.176C113.452 27.176 114.113 26.9893 114.711 26.616C115.319 26.2427 115.799 25.7413 116.151 25.112C116.513 24.4827 116.695 23.7787 116.695 23C116.695 22.2427 116.519 21.5493 116.167 20.92C115.815 20.28 115.335 19.7733 114.727 19.4C114.129 19.016 113.463 18.824 112.727 18.824ZM128.065 39H123.649V15H128.065V16.728C128.577 16.0987 129.185 15.5867 129.889 15.192C130.593 14.7867 131.414 14.584 132.353 14.584C133.516 14.584 134.604 14.8027 135.617 15.24C136.641 15.6773 137.537 16.2853 138.305 17.064C139.073 17.832 139.676 18.7227 140.113 19.736C140.55 20.7493 140.769 21.8373 140.769 23C140.769 24.1627 140.55 25.256 140.113 26.28C139.676 27.304 139.073 28.2053 138.305 28.984C137.537 29.752 136.641 30.3547 135.617 30.792C134.604 31.2293 133.516 31.448 132.353 31.448C131.414 31.448 130.593 31.2453 129.889 30.84C129.185 30.4347 128.577 29.9227 128.065 29.304V39ZM132.289 18.824C131.564 18.824 130.908 19.016 130.321 19.4C129.745 19.7733 129.286 20.2747 128.945 20.904C128.614 21.5333 128.449 22.232 128.449 23C128.449 23.768 128.614 24.472 128.945 25.112C129.286 25.7413 129.745 26.2427 130.321 26.616C130.908 26.9893 131.564 27.176 132.289 27.176C133.014 27.176 133.676 26.9893 134.273 26.616C134.881 26.2427 135.361 25.7413 135.713 25.112C136.076 24.4827 136.257 23.7787 136.257 23C136.257 22.2427 136.081 21.5493 135.729 20.92C135.377 20.28 134.897 19.7733 134.289 19.4C133.692 19.016 133.025 18.824 132.289 18.824ZM142.805 15H147.221V31H142.805V15ZM145.045 13.16C144.405 13.16 143.867 12.9467 143.429 12.52C142.992 12.0933 142.773 11.5653 142.773 10.936C142.773 10.3067 142.992 9.77867 143.429 9.352C143.867 8.92533 144.4 8.712 145.029 8.712C145.659 8.712 146.187 8.92533 146.613 9.352C147.051 9.77867 147.269 10.3067 147.269 10.936C147.269 11.5653 147.056 12.0933 146.629 12.52C146.213 12.9467 145.685 13.16 145.045 13.16ZM165.763 20.824V31H161.347V22.04C161.347 21.4747 161.208 20.968 160.931 20.52C160.664 20.0613 160.302 19.6987 159.843 19.432C159.395 19.1653 158.894 19.032 158.339 19.032C157.784 19.032 157.278 19.1653 156.819 19.432C156.36 19.6987 155.998 20.0613 155.731 20.52C155.464 20.968 155.331 21.4747 155.331 22.04V31H150.915L150.899 15H155.315L155.331 16.184C155.864 15.672 156.488 15.272 157.203 14.984C157.928 14.696 158.691 14.552 159.491 14.552C160.654 14.552 161.704 14.8347 162.643 15.4C163.592 15.9653 164.35 16.7227 164.915 17.672C165.48 18.6107 165.763 19.6613 165.763 20.824Z" fill="white"/>
<path d="M52.1727 34.8571C54.1453 32.5118 41.8973 30.8299 40.4878 31.0635C39.0783 31.2972 39.8511 28.6277 44.3076 27.3251C48.7641 26.0224 60.7646 31.8552 60.0633 34.8574C59.3619 37.8596 34.1768 45.7035 32.2068 46.3876C30.2368 47.0717 34.7971 48.32 34.5663 48.5569C34.3355 48.7938 22.3692 49.1945 21.5422 48.8811C20.7152 48.5677 26.3276 40.8492 26.9834 40.8723C27.6392 40.8955 27.7104 43.6796 29.6805 42.9955C31.6505 42.3114 50.2001 37.2023 52.1727 34.8571Z" fill="white"/>
</svg>
