<svg width="1568" height="506" viewBox="0 0 1568 506" fill="none" xmlns="http://www.w3.org/2000/svg">
<path d="M1175 252C1166.2 249.08 1162.48 246.235 1160 237C1157.47 245.868 1154.02 249.005 1145 252C1154.48 255.531 1157.4 259.046 1160 267C1161.98 259.012 1164.08 255.019 1175 252Z" fill="#3B3BB8" stroke="#3B3BB8" stroke-width="2" stroke-linecap="round"/>
<path d="M1564 315C1555.2 312.08 1551.48 309.235 1549 300C1546.47 308.868 1543.02 312.005 1534 315C1543.48 318.531 1546.4 322.046 1549 330C1550.98 322.012 1553.08 318.019 1564 315Z" fill="#3B3BB8" stroke="#3B3BB8" stroke-width="2" stroke-linecap="round"/>
<path d="M1366 402C1357.2 399.08 1353.48 396.235 1351 387C1348.47 395.868 1345.02 399.005 1336 402C1345.48 405.531 1348.4 409.046 1351 417C1352.98 409.012 1355.08 405.019 1366 402Z" fill="#3B3BB8" stroke="#3B3BB8" stroke-width="2" stroke-linecap="round"/>
<path d="M609 34C600.203 31.0802 596.482 28.2349 594 19C591.466 27.8677 588.019 31.0052 579 34C588.48 37.5311 591.403 41.0459 594 49C595.978 41.0123 598.08 37.0185 609 34Z" fill="#3B3BB8" stroke="#3B3BB8" stroke-width="2" stroke-linecap="round"/>
<path d="M1032 387C1023.2 384.08 1019.48 381.235 1017 372C1014.47 380.868 1011.02 384.005 1002 387C1011.48 390.531 1014.4 394.046 1017 402C1018.98 394.012 1021.08 390.019 1032 387Z" fill="#3B3BB8" stroke="#3B3BB8" stroke-width="2" stroke-linecap="round"/>
<path d="M855 345C846.203 342.08 842.482 339.235 840 330C837.466 338.868 834.019 342.005 825 345C834.48 348.531 837.403 352.046 840 360C841.978 352.012 844.08 348.019 855 345Z" fill="#3B3BB8" stroke="#3B3BB8" stroke-width="2" stroke-linecap="round"/>
<path d="M678 487C669.203 484.08 665.482 481.235 663 472C660.466 480.868 657.019 484.005 648 487C657.48 490.531 660.403 494.046 663 502C664.978 494.012 667.08 490.019 678 487Z" fill="#3B3BB8" stroke="#3B3BB8" stroke-width="2" stroke-linecap="round"/>
<path d="M579 299C570.203 296.08 566.482 293.235 564 284C561.466 292.868 558.019 296.005 549 299C558.48 302.531 561.403 306.046 564 314C565.978 306.012 568.08 302.019 579 299Z" fill="#3B3BB8" stroke="#3B3BB8" stroke-width="2" stroke-linecap="round"/>
<path d="M320 402C311.203 399.08 307.482 396.235 305 387C302.466 395.868 299.019 399.005 290 402C299.48 405.531 302.403 409.046 305 417C306.978 409.012 309.08 405.019 320 402Z" fill="#3B3BB8" stroke="#3B3BB8" stroke-width="2" stroke-linecap="round"/>
<path d="M34 487C25.203 484.08 21.4822 481.235 19 472C16.4657 480.868 13.0189 484.005 4 487C13.4802 490.531 16.4026 494.046 19 502C20.9778 494.012 23.0799 490.019 34 487Z" fill="#3B3BB8" stroke="#3B3BB8" stroke-width="2" stroke-linecap="round"/>
<path d="M305 114C296.203 111.08 292.482 108.235 290 99C287.466 107.868 284.019 111.005 275 114C284.48 117.531 287.403 121.046 290 129C291.978 121.012 294.08 117.019 305 114Z" fill="#3B3BB8" stroke="#3B3BB8" stroke-width="2" stroke-linecap="round"/>
<path d="M78 69C69.203 66.0802 65.4822 63.2349 63 54C60.4657 62.8677 57.0189 66.0052 48 69C57.4802 72.5311 60.4026 76.0459 63 84C64.9778 76.0123 67.0799 72.0185 78 69Z" fill="#3B3BB8" stroke="#3B3BB8" stroke-width="2" stroke-linecap="round"/>
<path d="M34 246C25.203 243.08 21.4822 240.235 19 231C16.4657 239.868 13.0189 243.005 4 246C13.4802 249.531 16.4026 253.046 19 261C20.9778 253.012 23.0799 249.019 34 246Z" fill="#3B3BB8" stroke="#3B3BB8" stroke-width="2" stroke-linecap="round"/>
<path d="M1175 19C1166.2 16.0802 1162.48 13.2349 1160 4C1157.47 12.8677 1154.02 16.0052 1145 19C1154.48 22.5311 1157.4 26.0459 1160 34C1161.98 26.0123 1164.08 22.0185 1175 19Z" fill="#3B3BB8" stroke="#3B3BB8" stroke-width="2" stroke-linecap="round"/>
<path d="M1409 99C1400.2 96.0802 1396.48 93.2349 1394 84C1391.47 92.8677 1388.02 96.0052 1379 99C1388.48 102.531 1391.4 106.046 1394 114C1395.98 106.012 1398.08 102.019 1409 99Z" fill="#3B3BB8" stroke="#3B3BB8" stroke-width="2" stroke-linecap="round"/>
</svg>
