<svg width="1207" height="56" viewBox="0 0 1207 56" fill="none" xmlns="http://www.w3.org/2000/svg">
<path fill-rule="evenodd" clip-rule="evenodd" d="M1206.08 13.1909C1205.05 14.0857 1203.58 14.6635 1202.08 15.0898C1200.49 15.5379 1198.53 15.9066 1196.26 16.2141C1191.71 16.8299 1185.66 17.2315 1178.36 17.4616C1163.75 17.9223 1143.87 17.7022 1120.38 17.0584C1085.98 16.1159 1043.71 14.2615 998.654 12.2847L998.652 12.2846L998.649 12.2845C982.147 11.5605 965.271 10.8202 948.271 10.1022C884.824 7.42251 819.627 5.0536 765.53 5.0009C738.48 4.97454 714.24 5.52748 694.401 6.9057C674.491 8.28884 659.243 10.4908 650.037 13.6703C635.562 18.6693 626.593 23.5059 620.269 29.5574C613.97 35.5849 610.084 43.017 606.158 53.6716C605.681 54.9672 604.244 55.6305 602.948 55.1532C602.585 55.0193 602.271 54.81 602.019 54.5494C601.464 54.276 601.009 53.7976 600.779 53.1715C596.853 42.5169 592.967 35.0848 586.668 29.0573C580.344 23.0058 571.375 18.1692 556.9 13.1703C538.3 6.7465 507.34 5.30232 467.715 6.42724C434.9 7.35883 396.454 10.0345 354.677 12.942C346.151 13.5354 337.486 14.1385 328.701 14.7383C225.16 21.8088 105.189 28.4285 2.13676 13.2806C0.770724 13.0798 -0.173887 11.8097 0.0269096 10.4436C0.227706 9.07761 1.49787 8.133 2.86391 8.3338C105.307 23.3921 224.759 16.8246 328.361 9.74994C337.125 9.15144 345.777 8.54928 354.295 7.95638C396.072 5.04873 434.645 2.36404 467.573 1.42926C507.102 0.30706 538.949 1.68072 558.532 8.44418C573.276 13.5359 583.036 18.6623 590.125 25.4447C596.133 31.1936 600.069 37.9886 603.571 46.5409C607.023 38.2231 610.922 31.5812 616.812 25.9448C623.9 19.1624 633.661 14.036 648.404 8.94426C658.29 5.53018 674.12 3.30258 694.055 1.91772C714.06 0.527951 738.43 -0.0255077 765.534 0.000898838C819.745 0.0537145 885.035 2.42696 948.482 5.10661C965.509 5.82573 982.401 6.56684 998.913 7.29123L998.914 7.29125C1043.96 9.26731 1086.16 11.119 1120.52 12.0603C1143.99 12.7035 1163.75 12.9199 1178.2 12.4641C1185.44 12.236 1191.29 11.841 1195.59 11.2592C1197.74 10.9679 1199.45 10.6376 1200.72 10.2785C1202.06 9.89761 1202.64 9.56011 1202.79 9.42371C1203.83 8.51586 1205.41 8.62323 1206.32 9.66351C1207.23 10.7038 1207.12 12.2831 1206.08 13.1909Z" fill="url(#paint0_linear_93_591)"/>
<defs>
<linearGradient id="paint0_linear_93_591" x1="1206.94" y1="9.9996" x2="-0.684901" y2="8.11209" gradientUnits="userSpaceOnUse">
<stop offset="0.1875" stop-color="#E818D3"/>
<stop offset="0.497194" stop-color="#513ADB"/>
<stop offset="0.854167" stop-color="#DE15A6"/>
</linearGradient>
</defs>
</svg>
