<svg width="1920" height="178" viewBox="0 0 1920 178" fill="none" xmlns="http://www.w3.org/2000/svg">
<path fill-rule="evenodd" clip-rule="evenodd" d="M1920 178L1840 148.333C1760 118.667 1600 59.3334 1440 59.3334C1280 59.3334 1120 118.667 960 127.143C800 135.619 640 93.2381 480 93.238C320 93.238 160 135.619 80 156.809L0 178L1.55612e-05 -5.05133e-09L80 6.98877e-06C160 1.39826e-05 320 2.79702e-05 480 4.19579e-05C640 5.59455e-05 800 6.99332e-05 960 8.39208e-05C1120 9.79085e-05 1280 0.000111896 1440 0.000125884C1600 0.000139871 1760 0.000153859 1840 0.000160853L1920 0.000167847L1920 178Z" fill="#3B3BB8"/>
</svg>
